<svg width="47" height="56" viewBox="0 0 47 56" fill="none" xmlns="http://www.w3.org/2000/svg">
<path fill-rule="evenodd" clip-rule="evenodd" d="M23.4768 0.0553347C17.2538 1.56738 13.2622 3.1381 11.5559 4.76601V0.427847C15.53 0.115465 19.5027 -0.0487929 23.4768 0.0128037C27.451 -0.0487929 31.4294 0.115465 35.405 0.427847V4.76601C33.6987 3.1381 29.6999 1.56738 23.4768 0.0553347ZM23.2834 3.51794C18.0219 8.65099 13.9983 15.5469 11.5661 20.7327C11.5661 22.2521 11.5574 23.575 11.5574 25.0929C13.0658 22.1656 17.2523 10.5546 23.4812 4.77041C29.71 10.5546 33.8965 22.1656 35.405 25.0929C35.405 23.5735 35.3963 22.2506 35.3963 20.7327C32.9641 15.5469 28.9391 8.65099 23.6776 3.51794C23.5263 3.36982 23.4303 3.36982 23.2834 3.51794ZM23.4274 1.98096C18.2852 4.80854 14.2412 9.85799 11.5646 13.6066C11.5646 15.126 11.5559 16.443 11.5559 17.9623C13.0644 15.7639 17.2509 7.06415 23.4797 2.77732C29.7086 7.06415 33.8951 15.7639 35.4036 17.9623C35.4036 16.443 35.3948 15.126 35.3948 13.6066C32.7183 9.85652 28.6729 4.8056 23.5292 1.97803C23.4696 1.94576 23.487 1.9487 23.4274 1.98096ZM23.4739 0.574506C19.3892 1.74777 15.5213 3.6734 11.5559 6.49951V11.0562C13.1997 9.04257 18.5746 3.21289 23.4652 1.2682H23.4957C28.3848 3.21143 33.7613 9.04257 35.405 11.0562V6.49804C31.4382 3.67193 27.5644 1.74777 23.4797 0.573039C23.4783 0.573039 23.4754 0.573039 23.4739 0.574506Z" fill="#922225"/>
<path fill-rule="evenodd" clip-rule="evenodd" d="M12.759 33.8043H14.3504H16.8263V35.4088H14.3504V41.2912H16.8263V42.8957H11.6099V41.2912H12.759V35.4088V33.8043ZM34.2618 35.4088V41.2736H35.3732V42.8781H17.5769V41.7811V41.2736V33.8043H19.1683V41.2736H20.1633V38.0824H21.7546V41.2736H22.8602V38.0824H24.4516V41.2736H25.5571V38.0824H27.1485V41.2736H32.6733V35.4088H29.5793V33.8043H34.2647V34.0932V35.4088H34.2618Z" fill="#922225"/>
<path fill-rule="evenodd" clip-rule="evenodd" d="M23.2834 5.5125C18.0219 11.9684 13.9983 21.3414 11.5646 27.8633C11.5646 29.7742 11.5559 30.7363 11.5559 32.6458C13.0586 29.9707 16.2661 20.5435 20.1835 12.8029V34.6726H21.7749V9.44734C22.124 8.83724 22.4775 8.15675 22.8353 7.59211V35.7198H20.1835V37.3242H22.8353H24.4267V35.7198V8.12155C24.8064 8.74925 25.1831 9.40628 25.5541 10.0853V37.3257H27.1455V13.6344C30.8199 21.1727 33.882 30.0529 35.405 32.6473C35.405 30.7363 35.3963 29.7742 35.3963 27.8647C32.9641 21.3428 28.9391 11.9713 23.679 5.51543C23.5263 5.32771 23.4303 5.32771 23.2834 5.5125Z" fill="#BF8C58"/>
<path d="M2.28517 50.148C2.14843 50.1201 2.03642 50.0806 1.9506 50.0292C1.86477 49.9779 1.80222 49.9163 1.76295 49.8459C1.72367 49.7755 1.70331 49.6978 1.70331 49.6127C1.70331 49.5306 1.72076 49.4499 1.75567 49.3707C1.79059 49.2915 1.8415 49.2211 1.90696 49.1595C1.97242 49.0979 2.05242 49.0481 2.14552 49.0114C2.23862 48.9747 2.34336 48.9557 2.46118 48.9557H3.75583V48.1403L2.45682 48.1535C2.21825 48.1535 2.00297 48.196 1.81241 48.281C1.62184 48.3661 1.45892 48.4776 1.32509 48.614C1.19127 48.7504 1.08799 48.9073 1.01671 49.0833C0.945429 49.2593 0.909063 49.4382 0.909063 49.6171C0.909063 49.8166 0.954157 50.0087 1.04435 50.1905H0.334473V50.9972H4.49479V50.1905H2.78412C2.58919 50.1905 2.42191 50.1759 2.28517 50.148Z" fill="#922225"/>
<path d="M19.9344 49.0583C19.7919 48.8691 19.6217 48.7005 19.4253 48.5538C19.2289 48.4071 19.0136 48.281 18.7824 48.1769C18.5511 48.0728 18.3052 47.9906 18.0448 47.9305C17.7845 47.8704 17.5226 47.8308 17.2579 47.8132C16.9917 47.7956 16.7255 47.8 16.4578 47.8264C16.1887 47.8528 15.9298 47.8997 15.6796 47.9672C15.4788 48.017 15.281 48.086 15.089 48.1725C14.897 48.259 14.718 48.3587 14.5551 48.4702L15.0104 49.136C15.1152 49.0598 15.2272 48.9938 15.3479 48.938C15.4672 48.8823 15.5923 48.8339 15.7247 48.7929C15.9574 48.7137 16.2003 48.6609 16.4535 48.6359C16.7051 48.611 16.9568 48.6051 17.2084 48.6169C17.4703 48.6345 17.7306 48.6755 17.9896 48.7386C18.2485 48.8016 18.4842 48.8955 18.7009 49.0216C18.9162 49.1463 19.1024 49.3047 19.2566 49.4983C19.4108 49.6904 19.517 49.9221 19.5751 50.1934H13.9791H13.8831H13.083V47.7721H12.2829V50.1934H10.9185V47.7721H10.1271V50.1934H8.76267V47.7721H7.96698V50.1934H7.18001H7.084H6.17775V45.7072H5.37769V50.5967C5.37769 50.7082 5.41696 50.8035 5.49406 50.8813C5.57115 50.959 5.66571 50.9986 5.77626 50.9986H7.084H7.18001H13.8874H13.9834H20.3621L20.3927 50.4516C20.3927 50.1788 20.3534 49.9251 20.2719 49.6933C20.1876 49.4601 20.077 49.249 19.9344 49.0583Z" fill="#922225"/>
<path d="M22.2096 45.2759H21.6409C21.5216 45.2759 21.4372 45.2613 21.3892 45.2319C21.3412 45.2026 21.3165 45.163 21.3165 45.1131C21.3165 45.0662 21.3368 45.0237 21.3761 44.9855C21.4154 44.9474 21.4692 44.9283 21.5361 44.9283H21.9696V44.6233C21.9027 44.6233 21.83 44.6248 21.7529 44.6262C21.6758 44.6277 21.6016 44.6292 21.5318 44.6292C21.4532 44.6292 21.3819 44.6424 21.3194 44.6717C21.2568 44.6996 21.203 44.7377 21.1579 44.7846C21.1128 44.8315 21.0779 44.8843 21.0546 44.9415C21.0313 44.9987 21.0197 45.0589 21.0197 45.1205C21.0197 45.1469 21.0212 45.1747 21.0241 45.2026C21.027 45.2305 21.0343 45.2569 21.0459 45.2803H20.8364V45.5854H22.2096V45.2759Z" fill="#922225"/>
<path d="M24.8165 48.677C24.8165 48.9146 24.7757 49.1346 24.6943 49.337C24.6128 49.5379 24.5023 49.7095 24.3612 49.8503C24.2797 49.4352 24.175 49.0481 24.0484 48.6858C23.9218 48.3236 23.7575 47.9877 23.5567 47.6753C23.4229 47.47 23.2731 47.2779 23.1058 47.099C22.94 46.9215 22.7523 46.7587 22.5457 46.6121C22.3392 46.4654 22.1108 46.3349 21.8635 46.222C21.6162 46.109 21.3427 46.0137 21.046 45.9374L20.8496 46.7221C21.0911 46.7837 21.3136 46.8599 21.5173 46.9508C21.7195 47.0418 21.9057 47.1459 22.073 47.2618C22.2403 47.3776 22.3915 47.5067 22.5254 47.6504C22.6592 47.7927 22.7799 47.9467 22.889 48.1109C23.0723 48.3969 23.2236 48.7122 23.34 49.0613C23.4564 49.4088 23.548 49.7872 23.6164 50.192H23.5858L21.1144 50.1876V50.9942H23.5858C23.8651 50.9942 24.1284 50.9326 24.3728 50.8109C24.6172 50.6892 24.8325 50.522 25.0157 50.3123C25.199 50.1025 25.346 49.8562 25.4536 49.576C25.5612 49.2959 25.6151 48.9953 25.6151 48.6741L25.6194 45.6837H24.8194V48.677H24.8165Z" fill="#922225"/>
<path d="M27.3401 45.7042H26.54V50.9927H27.3401V45.7042Z" fill="#922225"/>
<path d="M32.5584 46.8892C32.5977 46.9288 32.6443 46.9611 32.6981 46.9845C32.7519 47.008 32.8101 47.0197 32.8712 47.0197C32.9323 47.0197 32.989 47.008 33.0414 46.9845C33.0938 46.9611 33.1403 46.9288 33.1796 46.8892C33.2189 46.8496 33.2494 46.8027 33.2712 46.7499C33.293 46.6971 33.3032 46.6413 33.3032 46.5827C33.3032 46.4536 33.261 46.348 33.1781 46.2644C33.0952 46.1823 32.9919 46.1412 32.8697 46.1412C32.7446 46.1412 32.6399 46.1823 32.557 46.2644C32.4741 46.3466 32.4319 46.4522 32.4319 46.5827C32.4319 46.6413 32.4421 46.6971 32.4653 46.7499C32.4886 46.8027 32.5192 46.8496 32.5584 46.8892Z" fill="#922225"/>
<path d="M31.4425 46.8892C31.4818 46.9288 31.5283 46.9611 31.5821 46.9845C31.636 47.008 31.6941 47.0197 31.7552 47.0197C31.8163 47.0197 31.8731 47.008 31.9254 46.9845C31.9778 46.9611 32.0243 46.9288 32.0636 46.8892C32.1029 46.8496 32.1334 46.8027 32.1553 46.7499C32.1771 46.6971 32.1887 46.6413 32.1887 46.5827C32.1887 46.4536 32.1465 46.348 32.0636 46.2644C31.9807 46.1823 31.8774 46.1412 31.7552 46.1412C31.6301 46.1412 31.5254 46.1823 31.4425 46.2644C31.3596 46.3466 31.3174 46.4522 31.3174 46.5827C31.3174 46.6413 31.329 46.6971 31.3494 46.7499C31.3727 46.8027 31.4032 46.8496 31.4425 46.8892Z" fill="#922225"/>
<path d="M35.9925 47.1092C36.0318 47.1488 36.0784 47.181 36.1307 47.2045C36.1831 47.228 36.2398 47.2397 36.3009 47.2397C36.362 47.2397 36.4187 47.228 36.4711 47.2045C36.5235 47.181 36.57 47.1488 36.6093 47.1092C36.6486 47.0696 36.6806 47.0226 36.7039 46.9698C36.7271 46.917 36.7388 46.8613 36.7388 46.8026C36.7388 46.7411 36.7271 46.6824 36.7039 46.6281C36.6806 46.5739 36.6486 46.5269 36.6093 46.4873C36.57 46.4477 36.5235 46.4169 36.4711 46.3949C36.4187 46.3729 36.362 46.3612 36.3009 46.3612C36.1787 46.3612 36.0754 46.4037 35.9925 46.4873C35.9096 46.5709 35.8674 46.6765 35.8674 46.8026C35.8674 46.8613 35.8791 46.917 35.9009 46.9698C35.9227 47.0226 35.9533 47.0696 35.9925 47.1092Z" fill="#922225"/>
<path d="M36.454 50.1905H35.1026H35.011H34.4902V47.3497H33.6901V47.7428C33.2115 47.7662 32.7926 47.8249 32.4319 47.9188C32.0711 48.0126 31.7613 48.13 31.4994 48.2693C31.239 48.4086 31.0208 48.5626 30.8448 48.7327C30.6703 48.9014 30.5277 49.073 30.4186 49.2446C30.3095 49.4162 30.2266 49.5848 30.1713 49.7476C30.116 49.9104 30.0768 50.0556 30.0549 50.1846C30.0331 50.3122 30.0215 50.4164 30.0215 50.4956V50.61L30.0389 50.9986H35.0095H35.1011H36.8555C36.966 50.9986 37.0606 50.959 37.1377 50.8813C37.2148 50.8035 37.254 50.7082 37.254 50.5968V47.7692H36.454V50.1905ZM33.6887 50.1905H30.8666C30.8899 50.0996 30.9277 49.9984 30.9786 49.8855C31.0296 49.774 31.1008 49.6611 31.191 49.5467C31.2812 49.4323 31.3961 49.3194 31.5372 49.2064C31.6769 49.095 31.8471 48.9938 32.0464 48.9043C32.2457 48.8149 32.4813 48.7386 32.7533 48.677C33.0239 48.6154 33.3366 48.5743 33.6901 48.5538V50.1905H33.6887Z" fill="#922225"/>
<path d="M44.2362 47.8674C44.0529 47.6841 43.8289 47.5345 43.567 47.4216C43.3052 47.3087 43.0099 47.2515 42.684 47.2515C42.3626 47.2515 42.0585 47.3131 41.7691 47.4348C41.4796 47.5565 41.2294 47.7354 41.017 47.9701C40.9035 48.0933 40.8119 48.2224 40.7435 48.3558C40.6752 48.4893 40.6213 48.6271 40.5821 48.7679C40.5428 48.9087 40.5166 49.0539 40.5035 49.2006C40.4904 49.3472 40.4832 49.4939 40.4832 49.642V49.9119C40.4832 49.9999 40.4861 50.0878 40.4919 50.1758V50.189H39.9144H39.8184H38.9121V45.7028H38.1121V50.5968C38.1121 50.7082 38.1513 50.8035 38.2284 50.8813C38.3055 50.959 38.4001 50.9986 38.5106 50.9986H39.8184H39.9144H42.0847C42.2069 50.9986 42.3422 50.9957 42.4891 50.9898C42.636 50.9839 42.7742 50.9737 42.9022 50.959C43.231 50.9267 43.5161 50.8549 43.7576 50.7434C43.9976 50.632 44.1969 50.4956 44.3525 50.3328C44.5082 50.1714 44.6231 49.9925 44.6973 49.7975C44.7715 49.6024 44.8093 49.4044 44.8093 49.2035C44.8093 48.963 44.7598 48.7254 44.6609 48.4937C44.562 48.2605 44.4209 48.0522 44.2362 47.8674ZM43.9452 49.5291C43.9001 49.6347 43.8289 49.7315 43.7329 49.818C43.6369 49.9045 43.5132 49.9779 43.3634 50.038C43.2135 50.0981 43.0332 50.1392 42.8222 50.1597C42.7699 50.1656 42.7175 50.17 42.6666 50.1758C42.6157 50.1802 42.5619 50.1832 42.5051 50.1846C42.4484 50.1861 42.3858 50.1876 42.3175 50.189C42.2491 50.1905 42.1706 50.192 42.0833 50.192H41.2832L41.2788 49.6977C41.2788 49.5863 41.2832 49.4748 41.2919 49.3648C41.3007 49.2548 41.3167 49.1492 41.3399 49.048C41.3632 48.9468 41.3952 48.8515 41.436 48.7606C41.4767 48.6711 41.5305 48.589 41.5974 48.5157C41.7254 48.3719 41.884 48.259 42.0745 48.1784C42.2637 48.0977 42.4673 48.0566 42.6826 48.0566C42.8862 48.0566 43.071 48.0904 43.2354 48.1564C43.3997 48.2223 43.5408 48.3103 43.6558 48.4189C43.7707 48.5274 43.8594 48.6506 43.9205 48.787C43.9816 48.9234 44.0122 49.0627 44.0122 49.2035C44.0136 49.3135 43.9903 49.4235 43.9452 49.5291Z" fill="#922225"/>
<path d="M46.3936 45.7042H45.5935V50.9927H46.3936V45.7042Z" fill="#922225"/>
<path d="M46.021 45.012C45.9017 45.012 45.8173 44.9988 45.7693 44.9695C45.7213 44.9416 45.6966 44.902 45.6966 44.8521C45.6966 44.8023 45.717 44.7583 45.7562 44.7216C45.7955 44.685 45.8493 44.6659 45.9162 44.6659H46.3497V44.3564C46.2828 44.3564 46.2101 44.3579 46.133 44.3594C46.0559 44.3608 45.9817 44.3608 45.9119 44.3608C45.8333 44.3608 45.7621 44.3755 45.6995 44.4034C45.6369 44.4312 45.5831 44.4694 45.538 44.5163C45.4929 44.5632 45.458 44.616 45.4348 44.6732C45.4115 44.7304 45.3998 44.7906 45.3998 44.8521C45.3998 44.8785 45.4013 44.9064 45.4042 44.9343C45.4071 44.9621 45.4144 44.9885 45.426 45.012H45.2166V45.3215H46.5898V45.012H46.021Z" fill="#922225"/>
<path d="M1.19427 52.5137L0 55.4879H0.458217L0.792789 54.6021H1.98415L2.29545 55.4879H2.76385L1.64813 52.5137H1.19427ZM0.929526 54.2633L1.40665 52.958L1.85614 54.2633H0.929526Z" fill="#BF8C58"/>
<path d="M3.60173 52.5137H3.17261V55.4879H5.1684V55.1139H3.60173V52.5137Z" fill="#BF8C58"/>
<path d="M6.3974 52.5137L5.20312 55.4879H5.66134L5.99591 54.6021H7.18728L7.49858 55.4879H7.96698L6.85125 52.5137H6.3974ZM6.1312 54.2633L6.60832 52.958L7.05781 54.2633H6.1312Z" fill="#BF8C58"/>
<path d="M10.2741 53.7309H8.80485V52.5137H8.37427V55.4879H8.80485V54.1078H10.2741V55.4879H10.709V52.5137H10.2741V53.7309Z" fill="#BF8C58"/>
<path d="M13.1574 53.8893L12.1668 53.6458C12.0984 53.6224 12.0431 53.6004 11.9995 53.5769C11.9559 53.5534 11.9224 53.5285 11.8977 53.5006C11.873 53.4728 11.8555 53.442 11.8482 53.4068C11.8395 53.3716 11.8351 53.3305 11.8351 53.2836C11.8351 53.2117 11.8511 53.1472 11.8846 53.0915C11.9166 53.0357 11.9631 52.9873 12.0213 52.9492C12.0795 52.9096 12.1479 52.8803 12.2264 52.8597C12.305 52.8392 12.3908 52.8289 12.4839 52.8289C12.5508 52.8289 12.6148 52.8348 12.6788 52.8465C12.7414 52.8583 12.7996 52.8744 12.8534 52.8949C12.9072 52.9155 12.9538 52.9404 12.9959 52.9697C13.0367 52.9991 13.0716 53.0328 13.0992 53.0695C13.1123 53.0929 13.1225 53.1149 13.1327 53.134C13.1414 53.1545 13.1501 53.178 13.156 53.2029C13.1618 53.2279 13.1676 53.2572 13.1705 53.2895C13.1734 53.3217 13.1749 53.3628 13.1749 53.4097H13.6244L13.6171 53.3115C13.6171 53.2425 13.6127 53.1824 13.604 53.1296C13.5953 53.0768 13.5822 53.0313 13.5676 52.9903C13.5342 52.9067 13.4847 52.8304 13.4178 52.7629C13.3509 52.6955 13.2723 52.6383 13.1792 52.5914C13.0861 52.5444 12.9814 52.5092 12.865 52.4843C12.7487 52.4594 12.625 52.4476 12.4926 52.4476C12.3239 52.4476 12.1712 52.4682 12.0359 52.5092C11.8991 52.5503 11.7828 52.6075 11.6868 52.6823C11.5907 52.7571 11.5166 52.8465 11.4627 52.9507C11.4104 53.0548 11.3842 53.1707 11.3842 53.2983C11.3842 53.4713 11.4293 53.6165 11.5209 53.7368C11.6126 53.8556 11.7639 53.9524 11.9762 54.0257L12.9319 54.2545C13.0018 54.2794 13.06 54.3073 13.1065 54.341C13.153 54.3747 13.1894 54.4099 13.2171 54.4481C13.2447 54.4862 13.2636 54.5258 13.2738 54.5683C13.2854 54.6108 13.2898 54.6504 13.2898 54.6915C13.2898 54.7634 13.2709 54.8279 13.2345 54.8866C13.1981 54.9452 13.1458 54.9951 13.0789 55.0362C13.0119 55.0772 12.9319 55.1095 12.8388 55.1315C12.7457 55.1535 12.6425 55.1652 12.529 55.1652C12.2395 55.1652 12.0213 55.1022 11.8744 54.9775C11.8424 54.9526 11.8162 54.9291 11.7944 54.9042C11.7726 54.8792 11.7566 54.8528 11.7449 54.822C11.7333 54.7912 11.7246 54.756 11.7202 54.7179C11.7158 54.6783 11.7129 54.6314 11.7129 54.5771V54.4921H11.2664V54.5815C11.2664 54.8998 11.3711 55.1388 11.5806 55.3001C11.79 55.4615 12.1013 55.5421 12.513 55.5421C12.7297 55.5421 12.9145 55.5172 13.0701 55.4659C13.2243 55.4145 13.3509 55.3456 13.4483 55.2605C13.5458 55.1755 13.6185 55.0758 13.6636 54.9643C13.7087 54.8528 13.732 54.7355 13.732 54.6138C13.7276 54.2633 13.5371 54.0213 13.1574 53.8893Z" fill="#BF8C58"/>
<path d="M15.1447 52.5137L13.9504 55.4879H14.4087L14.7432 54.6021H15.9346L16.2459 55.4879H16.7143L15.5986 52.5137H15.1447ZM14.88 54.2633L15.3571 52.958L15.8066 54.2633H14.88Z" fill="#BF8C58"/>
<path d="M19.5562 54.9862L18.5859 52.515H18.0637V55.4878H18.4405V53.1046L19.386 55.4878H19.7351L20.6399 53.1046V55.4878H21.021V52.515H20.4974L19.5562 54.9862Z" fill="#BF8C58"/>
<path d="M23.6033 54.3776C23.6033 54.514 23.5844 54.6313 23.5466 54.7296C23.5087 54.8278 23.4564 54.91 23.388 54.9759C23.3196 55.0419 23.2382 55.0903 23.1451 55.1211C23.0505 55.1519 22.9487 55.1681 22.8367 55.1681C22.7014 55.1681 22.5763 55.1431 22.4599 55.0947C22.345 55.0463 22.2548 54.9789 22.1908 54.8953C22.1632 54.863 22.1414 54.8293 22.1254 54.7956C22.1094 54.7618 22.0948 54.7237 22.0832 54.6812C22.0715 54.6386 22.0643 54.5917 22.0599 54.5404C22.0555 54.489 22.0541 54.4289 22.0541 54.3644V52.5092H21.6191V54.4098C21.6191 54.6005 21.6468 54.7677 21.7035 54.9085C21.7588 55.0493 21.8388 55.1681 21.9435 55.2634C22.0483 55.3587 22.1748 55.4291 22.3232 55.4761C22.4716 55.523 22.6389 55.5465 22.8236 55.5465C22.9662 55.5465 23.1 55.5303 23.2265 55.4981C23.3531 55.4643 23.4666 55.4159 23.5684 55.3529C23.6702 55.2883 23.756 55.2091 23.8288 55.1153C23.9015 55.0214 23.9553 54.9144 23.9902 54.7926C24.0222 54.6797 24.0382 54.5418 24.0382 54.382V52.5106H23.6033V54.3776Z" fill="#BF8C58"/>
<path d="M26.6349 54.8499L25.2151 52.5137H24.7351V55.4879H25.1657V53.1296L26.5811 55.4879H27.0684V52.5137H26.6349V54.8499Z" fill="#BF8C58"/>
<path d="M28.2377 52.5137H27.8071V55.4879H28.2377V52.5137Z" fill="#BF8C58"/>
<path d="M29.4598 53.1397C29.5457 53.0385 29.6504 52.9623 29.774 52.9095C29.8977 52.8567 30.0373 52.8303 30.193 52.8303C30.4606 52.8303 30.6701 52.8992 30.8243 53.0371C30.8563 53.0679 30.8825 53.0957 30.9043 53.1207C30.9261 53.1456 30.945 53.1735 30.961 53.2013C30.9771 53.2307 30.9916 53.2644 31.0032 53.3025C31.0149 53.3407 31.028 53.3876 31.0425 53.4419H31.4818C31.4673 53.2893 31.4265 53.1515 31.3582 53.0283C31.2898 52.9065 31.1996 52.8024 31.0876 52.7159C30.9756 52.6308 30.8418 52.5648 30.689 52.5179C30.5348 52.4724 30.3675 52.449 30.1843 52.449C29.985 52.449 29.8133 52.4754 29.6708 52.5267C29.598 52.5546 29.5253 52.5898 29.4526 52.6308C29.3798 52.6734 29.3086 52.7232 29.2358 52.7834C28.91 53.0591 28.7456 53.4741 28.7456 54.0314C28.7456 54.2631 28.7776 54.4729 28.8431 54.6591C28.9085 54.8454 29.0031 55.0038 29.1267 55.1358C29.2504 55.2663 29.4002 55.3675 29.5762 55.4379C29.7522 55.5083 29.9515 55.5435 30.1726 55.5435C30.6192 55.5435 30.9669 55.3792 31.2185 55.0507C31.3538 54.8703 31.4425 54.6474 31.4833 54.3834H31.044C31.0047 54.6357 30.9072 54.8292 30.7545 54.9642C30.6003 55.0991 30.4025 55.1666 30.161 55.1666C30.0097 55.1666 29.8744 55.1387 29.7551 55.0859C29.6359 55.0316 29.534 54.9539 29.4526 54.8542C29.3697 54.7544 29.3071 54.6327 29.2635 54.489C29.2198 54.3453 29.1995 54.1854 29.1995 54.008C29.1995 53.8217 29.2213 53.6545 29.2678 53.5078C29.3086 53.3641 29.374 53.2395 29.4598 53.1397Z" fill="#BF8C58"/>
<path d="M32.4635 52.5137H32.033V55.4879H32.4635V52.5137Z" fill="#BF8C58"/>
<path d="M35.3265 53.3759C35.3265 53.2014 35.293 53.0503 35.2261 52.9213C35.1592 52.7922 35.0632 52.6954 34.9395 52.6309C34.9017 52.6089 34.8625 52.5913 34.8217 52.5766C34.781 52.5619 34.7359 52.5502 34.685 52.5414C34.6341 52.5326 34.5744 52.5253 34.5075 52.5223C34.4391 52.5194 34.3591 52.5165 34.2675 52.5165H33.1401V55.4937H33.5562V54.2397H34.1889C34.4173 54.2397 34.5802 54.2309 34.6792 54.2119C34.7839 54.1913 34.877 54.1576 34.9585 54.1077C35.0399 54.0579 35.1083 53.9963 35.1621 53.9244C35.2174 53.8511 35.2581 53.7689 35.2858 53.6751C35.3119 53.5798 35.3265 53.4815 35.3265 53.3759ZM34.8726 53.6076C34.8508 53.6707 34.813 53.7235 34.7621 53.7631C34.7112 53.8041 34.6443 53.8335 34.5613 53.8496C34.4784 53.8672 34.3751 53.876 34.2529 53.876H33.5533V52.8787H34.285C34.397 52.8787 34.4915 52.8875 34.5701 52.9066C34.6486 52.9257 34.7126 52.955 34.7621 52.9946C34.8115 53.0357 34.8479 53.087 34.8712 53.15C34.8945 53.2131 34.9061 53.2879 34.9061 53.3744C34.9061 53.4668 34.8945 53.5446 34.8726 53.6076Z" fill="#BF8C58"/>
<path d="M36.4377 52.5137L35.2434 55.4879H35.7016L36.0362 54.6021H37.2276L37.5389 55.4879H38.0073L36.8915 52.5137H36.4377ZM36.1715 54.2633L36.6486 52.958L37.0981 54.2633H36.1715Z" fill="#BF8C58"/>
<path d="M38.8451 52.5137H38.4146V55.4879H40.4118V55.1139H38.8451V52.5137Z" fill="#BF8C58"/>
<path d="M41.2104 52.5137H40.7798V55.4879H41.2104V52.5137Z" fill="#BF8C58"/>
<path d="M41.6277 52.8847H42.6474V55.4879H43.078V52.8847H44.1079V52.5137H41.6277V52.8847Z" fill="#BF8C58"/>
<path d="M46.4835 52.5137L45.6005 53.9231L44.7015 52.5137H44.1619L45.3707 54.3161V55.4879H45.81V54.3161L46.9999 52.5137H46.4835Z" fill="#BF8C58"/>
</svg>
