<svg width="168" height="47" viewBox="0 0 168 47" fill="none" xmlns="http://www.w3.org/2000/svg">
<mask id="mask0_74_11291" style="mask-type:luminance" maskUnits="userSpaceOnUse" x="121" y="0" width="47" height="47">
<path d="M121.898 0V46.139H168V0H121.898Z" fill="white"/>
</mask>
<g mask="url(#mask0_74_11291)">
<path d="M99.0356 20.0849L147.915 -22.863L190.863 26.0541L141.946 69.002L99.0356 20.0849Z" fill="url(#paint0_radial_74_11291)"/>
</g>
<path d="M6.23192 19.4842C6.90768 19.4842 7.43327 18.921 7.43327 18.2453C7.43327 17.6071 6.87014 17.0439 6.23192 17.0439C5.55617 17.0439 4.99304 17.5695 4.99304 18.2453C4.99304 18.9586 5.51863 19.4842 6.23192 19.4842Z" fill="#5F636A"/>
<path d="M9.72338 31.385C9.01008 31.385 8.4845 31.9106 8.4845 32.5864C8.4845 33.2621 9.01008 33.7877 9.72338 33.7877C10.3616 33.7877 10.9247 33.2246 10.9247 32.5864C10.9247 31.9106 10.3616 31.385 9.72338 31.385Z" fill="#5F636A"/>
<path d="M11.5254 26.0916C11.5254 27.1803 11.1124 27.5557 9.98615 27.5557H8.67218V24.8527C8.67218 22.1121 7.28313 20.6855 4.65519 20.6855C1.46413 20.6855 0 22.9005 0 25.1155C0 26.7298 0.525586 27.9311 1.46413 28.6069C2.55285 29.3202 3.4914 29.4703 5.59374 29.4703H10.0612C12.4264 29.4703 13.7779 28.5693 13.7779 26.1667V20.6855H11.4503V26.0916H11.5254ZM6.41966 27.5557H5.1057C3.19106 27.5557 2.40268 26.8049 2.40268 25.0404C2.40268 23.5763 3.2286 22.6002 4.54257 22.6002C5.85654 22.6002 6.45721 23.3886 6.45721 25.078V27.5557H6.41966Z" fill="#5F636A"/>
<path d="M3.41631 19.4842C4.09206 19.4842 4.61765 18.921 4.61765 18.2453C4.61765 17.6071 4.05452 17.0439 3.41631 17.0439C2.74055 17.0439 2.21497 17.5695 2.21497 18.2453C2.21497 18.9586 2.70301 19.4842 3.41631 19.4842Z" fill="#5F636A"/>
<path d="M22.9756 25.1155C22.9756 22.9005 21.549 20.6855 18.3579 20.6855H16.5184V22.6002H18.5081C19.8221 22.6002 20.648 23.5387 20.648 25.0404V27.5557H14.6788V29.4703H22.9756V25.1155Z" fill="#5F636A"/>
<path d="M12.5014 31.385C11.8256 31.385 11.3 31.9106 11.3 32.5864C11.3 33.2621 11.8256 33.7877 12.5014 33.7877C13.1771 33.7877 13.7403 33.2246 13.7403 32.5864C13.7403 31.9106 13.1771 31.385 12.5014 31.385Z" fill="#5F636A"/>
<path d="M102.715 16.4058H100.462V29.4703H102.715V16.4058Z" fill="#5F636A"/>
<path d="M101.213 31.3849V33.5624C101.926 33.675 102.452 33.7501 102.977 33.7501C106.093 33.7501 107.633 32.3235 107.633 29.3577V21.549H105.267V29.3952C105.267 30.8593 104.441 31.7603 103.128 31.7603C102.302 31.7603 101.701 31.5726 101.476 31.4976L101.213 31.3849Z" fill="#5F636A"/>
<path d="M111.387 17.8324H109.134V29.5079H111.387V17.8324Z" fill="#5F636A"/>
<path d="M72.9065 28.6069C73.9952 29.3202 74.9337 29.4704 77.0361 29.4704H77.8245C77.7869 30.9721 76.961 31.7229 75.3467 31.7229C74.6334 31.7229 73.7324 31.6103 72.7938 31.31L72.6437 31.2724V33.4498C73.8075 33.6375 74.6709 33.7502 75.4593 33.7502C78.5377 33.7502 80.1145 32.3236 80.152 29.5079H93.4043C97.0459 29.5079 98.9981 28.5694 98.9981 25.1531C98.9981 22.9381 97.5715 20.7231 94.3804 20.7231C91.79 20.7231 90.3634 22.1497 90.3634 24.8903V27.5933H88.2986C88.599 27.0302 88.7867 26.3169 88.7867 25.4534C88.7867 23.5388 87.5478 21.2863 84.169 21.2863H83.8687L88.2611 16.4434H85.5205C83.8687 18.2829 81.3909 20.9859 81.0906 21.2863V23.2384H84.2817C85.2578 23.2384 86.4215 23.6139 86.4215 25.3783C86.4215 26.9926 85.7082 27.5933 83.7185 27.5933H80.077V24.8903C80.077 22.1497 78.6879 20.7231 76.06 20.7231C72.8689 20.7231 71.4048 22.9381 71.4048 25.1531C71.4423 26.7298 71.9679 27.9312 72.9065 28.6069ZM92.6535 25.078C92.6535 23.3886 93.2542 22.6002 94.5681 22.6002C95.8821 22.6002 96.708 23.5388 96.708 25.0405C96.708 26.8049 95.9197 27.5558 94.0426 27.5558H92.6535V25.078ZM75.9098 22.6002C77.2238 22.6002 77.7869 23.3886 77.7869 25.078V27.5182H76.5105C74.5958 27.5182 73.8075 26.7674 73.8075 25.0029C73.8075 23.5763 74.6334 22.6002 75.9098 22.6002Z" fill="#5F636A"/>
<path d="M59.6166 29.4703C60.5927 29.4703 61.6063 29.2451 62.1319 28.9072C62.8452 28.4942 63.1831 27.7434 63.2207 27.368C63.2957 27.0677 63.3333 26.7673 63.3333 26.1291V16.4058H61.0057V26.054C61.0057 27.1427 60.5927 27.5182 59.4665 27.5182H58.9033C58.5279 27.5182 58.1525 27.4431 57.7395 27.2929C57.7771 26.9926 57.8146 26.6547 57.8146 26.2793V21.5115H55.5246V26.1291C55.5246 27.1427 55.0741 27.5557 54.0604 27.5557C53.685 27.5557 53.3096 27.5182 52.8966 27.368C52.9342 27.0301 52.9717 26.7298 52.9717 26.2417V21.5115H50.6817V26.1291C50.6817 27.0301 50.4564 27.4055 49.8182 27.5182H48.6544C48.4667 27.5182 48.0913 27.5557 48.0913 27.3305V21.5115H45.8012V27.5182H41.9719C43.2108 26.2042 43.9617 24.7776 43.9617 23.7264C43.9617 21.6616 41.4839 20.6105 39.0437 20.6105C36.6034 20.6105 34.1257 21.6616 34.1257 23.7264C34.1257 25.1906 35.4396 26.7673 36.1905 27.5182H32.6991V24.8151C32.6991 22.0746 31.31 20.648 28.6821 20.648C25.491 20.648 24.0645 22.863 24.0645 25.0779C24.0645 26.6922 24.5525 27.8936 25.5286 28.5693C26.6173 29.2826 27.5558 29.4328 29.6582 29.4328H30.4466C30.409 30.9345 29.5831 31.6853 27.9688 31.6853C27.2555 31.6853 26.3545 31.5727 25.416 31.2724L25.2658 31.2348V33.4122C26.4296 33.5999 27.2931 33.7126 28.0814 33.7126C31.1599 33.7126 32.7366 32.286 32.7742 29.4703H48.279C48.7295 29.5079 49.18 29.5454 49.6305 29.5454C50.4939 29.5454 51.1697 29.3953 51.7704 29.0574C52.5963 29.3953 53.5724 29.5454 54.5109 29.5454C55.3744 29.5454 56.1252 29.3577 56.6508 28.9823C57.4017 29.3202 58.3402 29.4703 59.3914 29.4703H59.6166ZM30.3715 27.5557H29.0575C27.1429 27.5557 26.3545 26.8049 26.3545 25.0404C26.3545 23.5763 27.1804 22.6002 28.4944 22.6002C29.8084 22.6002 30.409 23.3886 30.409 25.0779V27.5557H30.3715ZM39.0437 27.4055C38.7058 27.4055 36.3031 25.1155 36.3031 23.764C36.3031 23.0131 37.7672 22.6002 39.1188 22.6002C40.4327 22.6002 41.8218 23.0131 41.8218 23.764C41.8218 25.0779 39.4942 27.4055 39.0437 27.4055Z" fill="#5F636A"/>
<path d="M67.3502 16.4058H65.0977V29.4703H67.3502V16.4058Z" fill="#5F636A"/>
<path d="M111.95 15.7675H110.673C110.148 15.73 110.035 15.6549 110.035 15.2419C110.035 14.7914 110.185 14.6788 110.749 14.6788C111.086 14.6788 111.349 14.7539 111.725 15.0167V13.928L111.537 13.8529C111.274 13.7402 111.011 13.6652 110.711 13.6652C109.547 13.6652 108.909 14.2283 108.909 15.2419C108.909 15.4672 108.947 15.6173 109.022 15.73H108.609V16.7436H111.95V15.7675Z" fill="#5F636A"/>
<path d="M108.571 37.3916C106.131 37.3916 104.104 39.3813 104.104 41.8591C104.104 44.3369 106.093 46.3266 108.571 46.3266C111.011 46.3266 113.001 44.3369 113.001 41.8591C113.001 39.3813 111.011 37.3916 108.571 37.3916ZM108.571 44.2618C107.22 44.2618 106.131 43.1731 106.131 41.8216C106.131 40.5076 107.22 39.4189 108.571 39.4189C109.885 39.4189 110.974 40.5076 110.974 41.8216C110.974 43.1731 109.885 44.2618 108.571 44.2618Z" fill="#5F636A"/>
<path d="M92.2405 37.2791C91.2644 37.2791 90.2508 37.4668 89.4624 37.8046C88.8242 37.4292 88.186 37.2791 87.285 37.2791C86.1587 37.2791 84.9949 37.4292 83.756 37.8422L83.5308 37.9173V46.1014H85.7457V39.3814C86.1962 39.2312 86.5341 39.1937 86.9846 39.1937C88.0733 39.1937 88.4112 39.5316 88.4112 40.6954V46.1014H90.6637V40.5452C90.6637 40.0571 90.6262 39.7193 90.5511 39.4189C91.0016 39.2688 91.3395 39.1937 91.7524 39.1937C92.8036 39.1937 93.2917 39.6817 93.2917 40.6954V46.1014H95.5066V40.5077C95.5066 39.4189 95.3189 38.7432 94.8309 38.2176C94.3428 37.6545 93.4043 37.2791 92.2405 37.2791Z" fill="#5F636A"/>
<path d="M101.175 44.3745C99.6737 44.3745 98.8478 43.4359 98.8478 41.8592C98.8478 40.2073 99.7112 39.2688 101.213 39.2688C101.513 39.2688 101.776 39.3063 102.039 39.3814C102.039 39.3814 102.489 39.5316 102.902 39.8319L103.841 38.2176C103.315 37.8046 102.715 37.6169 102.527 37.5418C101.964 37.3541 101.1 37.3541 101.1 37.3541C98.4348 37.3541 96.6328 39.1937 96.6328 41.9718C96.6328 44.6373 98.3222 46.3266 100.988 46.3266C100.988 46.3266 102.752 46.4017 103.953 45.313L102.827 43.8864C102.189 44.2243 101.776 44.3745 101.175 44.3745Z" fill="#5F636A"/>
<path d="M72.1554 37.3541C68.9644 37.3541 67.5002 38.7432 67.5002 41.7465V46.1389H69.7903V41.9342V41.7465C69.7903 40.2449 70.6538 39.3063 71.9677 39.3063C72.5309 39.3063 72.9438 39.4189 73.2442 39.494L73.7697 37.5043C72.8687 37.3541 72.1554 37.3541 72.1554 37.3541Z" fill="#5F636A"/>
<path d="M82.2543 41.4838V46.1015H79.2134C77.111 46.1015 76.1725 45.9513 75.0838 45.238C74.1452 44.5998 73.6196 43.3609 73.6196 41.7466C73.6196 39.5316 75.0838 37.3167 78.2748 37.3167C80.8277 37.3542 82.2543 38.7808 82.2543 41.4838ZM80.0018 41.7466C80.0018 40.0572 79.3635 39.2313 78.0496 39.2313C76.7356 39.2313 75.8721 40.2074 75.8721 41.6715C75.8721 43.436 76.7356 44.2244 78.6127 44.2244H80.0018V41.7466Z" fill="#5F636A"/>
<path d="M66.2613 41.4838V46.1015H63.2205C61.1181 46.1015 60.1796 45.9513 59.0908 45.238C58.1523 44.5998 57.6267 43.3609 57.6267 41.7466C57.6267 39.5316 59.0908 37.3167 62.2819 37.3167C64.8723 37.3542 66.2613 38.7808 66.2613 41.4838ZM63.9337 41.7466C63.9337 40.0572 63.3331 39.2313 62.0191 39.2313C60.7051 39.2313 59.8417 40.2074 59.8417 41.6715C59.8417 43.436 60.7051 44.2244 62.5822 44.2244H63.9337V41.7466Z" fill="#5F636A"/>
<path d="M18.5456 40.8455C17.1941 40.4325 16.631 40.2073 16.631 39.7943C16.631 39.3438 17.3068 39.081 18.1702 39.081C18.9961 39.081 19.8221 39.2687 20.4227 39.4564L20.9483 37.5043C20.0473 37.279 18.9586 37.1664 18.2078 37.1664C15.8051 37.1664 14.4911 38.2551 14.4911 39.8694C14.4911 40.6953 14.7164 41.784 17.2317 42.4973C18.7333 42.9478 19.2589 42.9854 19.2589 43.4734C19.2589 43.999 18.3204 44.412 17.2692 44.412C16.1805 44.412 15.0542 43.9239 14.3409 43.586V45.6884C15.1669 46.0263 16.1805 46.2891 17.2317 46.2891C19.8596 46.2891 21.3988 45.1628 21.3988 43.4734C21.4364 42.1595 20.648 41.4462 18.5456 40.8455Z" fill="#5F636A"/>
<path d="M37.617 42.8728C37.617 43.9615 37.204 44.337 36.0402 44.337H35.9276C34.7638 44.337 34.3508 43.924 34.3508 42.8728V37.4668H32.1359V43.023C32.1359 45.6134 33.6 46.2891 35.815 46.2891H36.1904C38.5555 46.2891 39.9446 45.6134 39.9446 43.023V37.4668H37.6545V42.8728H37.617Z" fill="#5F636A"/>
<path d="M51.9205 34.3132C51.2447 34.3132 50.7191 34.8388 50.7191 35.5146C50.7191 36.1903 51.2447 36.7159 51.9205 36.7159C52.5962 36.7159 53.1218 36.1903 53.1218 35.5146C53.1218 34.8764 52.5962 34.3132 51.9205 34.3132Z" fill="#5F636A"/>
<path d="M53.0466 37.7295H50.8317V46.1389H53.0466V37.7295Z" fill="#5F636A"/>
<path d="M30.8594 41.4838V46.1015H27.8185C25.7161 46.1015 24.7776 45.9513 23.6889 45.238C22.7503 44.5998 22.2247 43.3609 22.2247 41.7466C22.2247 39.5316 23.6889 37.3167 26.8799 37.3167C29.4328 37.3542 30.8594 38.7808 30.8594 41.4838ZM28.6069 41.7466C28.6069 40.0572 27.9686 39.2313 26.6547 39.2313C25.3407 39.2313 24.4772 40.2074 24.4772 41.6715C24.4772 43.436 25.3407 44.2244 27.2178 44.2244H28.6069V41.7466Z" fill="#5F636A"/>
<path d="M49.4052 34.1255V46.1014H46.6271C44.5247 46.1014 43.5862 45.9512 42.4975 45.2379C41.5589 44.5997 41.0333 43.3608 41.0333 41.7465C41.0333 39.081 42.8353 37.3541 45.4257 37.3541H45.651C46.2141 37.3541 46.7772 37.5418 47.2653 37.8421V34.1255H49.4052ZM47.2653 41.784C47.2653 39.982 46.7772 39.2687 45.5008 39.2687C44.1868 39.2687 43.3234 40.2448 43.3234 41.7089C43.3234 43.4734 44.1493 44.2618 46.0639 44.2618H47.2653V41.784Z" fill="#5F636A"/>
<path d="M147.314 19.3716C147.878 19.6343 148.215 20.1975 148.14 20.648C148.065 21.0985 147.577 21.2486 147.014 20.9859C146.451 20.6855 146.076 20.1224 146.188 19.6719C146.263 19.2214 146.751 19.1088 147.314 19.3716Z" fill="white"/>
<path d="M148.929 10.4741C149.379 10.6993 149.679 11.1123 149.642 11.3751C149.604 11.6754 149.191 11.713 148.741 11.4502C148.29 11.2249 147.952 10.812 148.028 10.5116C148.103 10.2864 148.478 10.2488 148.929 10.4741Z" fill="white"/>
<path d="M149.079 9.61065C149.454 9.79836 149.717 10.1362 149.68 10.3615C149.642 10.5867 149.304 10.6243 148.929 10.399C148.553 10.2113 148.29 9.87345 148.328 9.6482C148.403 9.42294 148.703 9.42294 149.079 9.61065Z" fill="white"/>
<path d="M149.229 8.74723C149.567 8.93494 149.83 9.23527 149.792 9.42298C149.755 9.61069 149.454 9.64823 149.117 9.46052C148.779 9.27281 148.516 8.97248 148.553 8.74723C148.591 8.55952 148.891 8.55952 149.229 8.74723Z" fill="white"/>
<path d="M149.379 7.8837C149.717 8.07141 149.942 8.3342 149.905 8.52191C149.867 8.70962 149.605 8.70962 149.267 8.52191C148.929 8.3342 148.704 8.07141 148.741 7.8837C148.779 7.69599 149.041 7.69599 149.379 7.8837Z" fill="white"/>
<path d="M149.492 7.09535C149.792 7.24552 150.017 7.50832 149.98 7.65848C149.942 7.80865 149.717 7.80865 149.417 7.65848C149.116 7.50832 148.891 7.24552 148.929 7.09535C148.929 6.90764 149.191 6.94519 149.492 7.09535Z" fill="white"/>
<path d="M149.604 6.38203C149.867 6.5322 150.055 6.75745 150.055 6.90762C150.017 7.05779 149.792 7.05779 149.529 6.90762C149.267 6.75745 149.041 6.5322 149.079 6.38203C149.116 6.23187 149.342 6.23187 149.604 6.38203Z" fill="white"/>
<path d="M149.717 5.66875C149.98 5.81892 150.168 6.00663 150.13 6.15679C150.093 6.30696 149.905 6.26942 149.642 6.15679C149.379 6.00663 149.192 5.81892 149.229 5.66875C149.267 5.51858 149.454 5.55612 149.717 5.66875Z" fill="white"/>
<path d="M149.83 4.993C150.055 5.10562 150.205 5.25579 150.205 5.40595C150.168 5.51858 150.017 5.51858 149.792 5.36842C149.567 5.25579 149.417 5.06808 149.417 4.95545C149.417 4.84283 149.604 4.88037 149.83 4.993Z" fill="white"/>
<path d="M149.942 4.31722C150.13 4.42984 150.28 4.58001 150.28 4.69264C150.243 4.80526 150.092 4.76772 149.905 4.65509C149.717 4.54247 149.567 4.3923 149.567 4.27967C149.567 4.16705 149.717 4.20459 149.942 4.31722Z" fill="white"/>
<path d="M150.017 3.67906C150.205 3.79168 150.318 3.9043 150.318 3.97939C150.318 4.09201 150.167 4.05447 149.98 3.94185C149.792 3.82922 149.679 3.7166 149.679 3.64151C149.717 3.56643 149.867 3.60397 150.017 3.67906Z" fill="white"/>
<path d="M150.13 3.07835C150.28 3.15343 150.393 3.26606 150.393 3.34114C150.393 3.41622 150.243 3.37869 150.093 3.3036C149.942 3.22852 149.83 3.11589 149.83 3.0408C149.867 2.96572 149.98 3.00326 150.13 3.07835Z" fill="white"/>
<path d="M146.751 22.45C146.301 22.2248 146.001 21.7367 146.038 21.3238C146.113 20.9484 146.526 20.7982 147.014 21.0234C147.465 21.2487 147.765 21.7367 147.727 22.1121C147.615 22.5627 147.202 22.6753 146.751 22.45Z" fill="white"/>
<path d="M146.376 24.3646C145.925 24.1394 145.625 23.6513 145.7 23.2384C145.775 22.8254 146.188 22.7128 146.639 22.9005C147.089 23.1257 147.389 23.6138 147.314 23.9892C147.239 24.4397 146.826 24.5899 146.376 24.3646Z" fill="white"/>
<path d="M146 26.3168C145.55 26.0916 145.287 25.6035 145.362 25.1906C145.437 24.7776 145.85 24.6274 146.301 24.8527C146.751 25.0779 147.014 25.5284 146.939 25.9414C146.864 26.3919 146.451 26.5421 146 26.3168Z" fill="white"/>
<path d="M145.587 28.4942C145.137 28.3065 144.874 27.8184 144.949 27.3679C145.062 26.955 145.437 26.8048 145.85 26.9925C146.263 27.1802 146.564 27.6683 146.488 28.0812C146.413 28.5317 146 28.6819 145.587 28.4942Z" fill="white"/>
<path d="M145.137 30.6717C144.761 30.484 144.536 30.071 144.611 29.6581C144.686 29.2826 145.062 29.1325 145.4 29.2826C145.775 29.4704 146 29.8833 145.925 30.2587C145.85 30.6717 145.512 30.8219 145.137 30.6717Z" fill="white"/>
<path d="M144.611 33.2995C144.236 33.1494 144.011 32.6989 144.123 32.3234C144.198 31.948 144.536 31.7603 144.912 31.9105C145.25 32.0606 145.475 32.5112 145.4 32.8866C145.325 33.262 144.987 33.4497 144.611 33.2995Z" fill="white"/>
<path d="M144.011 36.1152C143.673 35.965 143.485 35.5896 143.56 35.2142C143.635 34.8388 143.936 34.6886 144.273 34.8012C144.611 34.9514 144.799 35.3268 144.724 35.7022C144.649 36.0776 144.349 36.2654 144.011 36.1152Z" fill="white"/>
<path d="M143.41 38.9685C143.147 38.8559 142.96 38.518 143.035 38.1801C143.11 37.8422 143.373 37.6921 143.673 37.8047C143.936 37.9173 144.086 38.2552 144.048 38.5931C143.973 38.8934 143.711 39.0436 143.41 38.9685Z" fill="white"/>
<path d="M149.267 20.4228C149.68 20.648 149.98 21.0985 149.942 21.4739C149.867 21.8494 149.492 21.962 149.079 21.7367C148.628 21.5115 148.328 21.061 148.403 20.6856C148.441 20.3101 148.816 20.2351 149.267 20.4228Z" fill="white"/>
<path d="M151.181 21.2486C151.707 21.5114 152.082 22.1121 152.045 22.5626C152.007 23.0506 151.557 23.2008 150.994 22.9005C150.43 22.6001 150.055 22.037 150.13 21.549C150.168 21.0985 150.618 20.9858 151.181 21.2486Z" fill="white"/>
<path d="M164.396 20.5353C164.171 20.3852 164.02 20.4602 164.058 20.648C164.096 20.8357 164.283 21.0985 164.508 21.2486C164.734 21.3988 164.884 21.3613 164.846 21.136C164.809 20.9483 164.621 20.6855 164.396 20.5353Z" fill="white"/>
<path d="M162.857 19.4842C162.557 19.2965 162.369 19.3716 162.406 19.5968C162.444 19.8596 162.707 20.1975 162.969 20.3477C163.27 20.5354 163.458 20.4603 163.42 20.1975C163.42 19.9722 163.157 19.6719 162.857 19.4842Z" fill="white"/>
<path d="M158.577 33.8628C158.202 33.6375 157.939 33.7877 157.901 34.2382C157.901 34.6887 158.202 35.2143 158.577 35.4771C158.953 35.7023 159.215 35.5521 159.253 35.1016C159.215 34.6136 158.915 34.088 158.577 33.8628Z" fill="white"/>
<path d="M156.737 30.2212C156.287 29.9584 155.949 30.1461 155.949 30.5966C155.949 31.0847 156.249 31.6478 156.7 31.9106C157.15 32.1734 157.488 31.9857 157.488 31.4976C157.488 31.0096 157.15 30.484 156.737 30.2212Z" fill="white"/>
<path d="M154.785 27.0676C154.372 26.8424 154.034 26.9926 153.997 27.4055C153.997 27.856 154.297 28.3441 154.71 28.6069C155.161 28.8321 155.499 28.6819 155.499 28.2314C155.536 27.8185 155.236 27.2929 154.785 27.0676Z" fill="white"/>
<path d="M153.621 14.1532C153.246 13.9655 152.908 14.003 152.908 14.2658C152.908 14.5286 153.171 14.904 153.584 15.1293C153.959 15.317 154.297 15.2795 154.297 15.0167C154.297 14.7163 153.997 14.3785 153.621 14.1532Z" fill="white"/>
<path d="M161.505 19.8596C161.205 19.6719 160.98 19.747 161.017 20.0098C161.055 20.2726 161.28 20.6105 161.58 20.7982C161.881 20.9859 162.106 20.9108 162.068 20.648C162.031 20.3852 161.806 20.0474 161.505 19.8596Z" fill="white"/>
<path d="M159.928 18.9586C159.628 18.7709 159.365 18.846 159.403 19.1088C159.44 19.3716 159.703 19.747 160.003 19.9347C160.341 20.1224 160.567 20.0474 160.529 19.7846C160.529 19.4842 160.266 19.1464 159.928 18.9586Z" fill="white"/>
<path d="M156.85 18.3955C156.475 18.2078 156.174 18.2453 156.174 18.5457C156.174 18.846 156.475 19.259 156.85 19.4842C157.225 19.7095 157.526 19.5968 157.526 19.2965C157.488 19.0337 157.225 18.6207 156.85 18.3955Z" fill="white"/>
<path d="M158.389 17.9825C158.014 17.7948 157.751 17.8324 157.751 18.1327C157.751 18.433 158.051 18.8085 158.427 19.0337C158.802 19.2214 159.065 19.1839 159.027 18.8835C159.027 18.5832 158.765 18.2078 158.389 17.9825Z" fill="white"/>
<path d="M156.775 17.0439C156.362 16.8187 156.062 16.8938 156.062 17.1941C156.062 17.4944 156.4 17.9449 156.775 18.1702C157.188 18.3954 157.488 18.3204 157.488 18.02C157.488 17.6821 157.15 17.2692 156.775 17.0439Z" fill="white"/>
<path d="M155.161 17.4569C154.748 17.2316 154.41 17.3067 154.41 17.6446C154.41 17.9825 154.71 18.3954 155.161 18.6582C155.574 18.8835 155.912 18.8084 155.912 18.4705C155.912 18.0951 155.574 17.6821 155.161 17.4569Z" fill="white"/>
<path d="M152.946 24.0642C152.495 23.839 152.157 23.9516 152.082 24.3646C152.045 24.7776 152.383 25.2656 152.796 25.5284C153.246 25.7536 153.621 25.6035 153.621 25.1905C153.697 24.7775 153.396 24.2895 152.946 24.0642Z" fill="white"/>
<path d="M153.096 22.2998C152.608 22.037 152.232 22.1872 152.195 22.6001C152.157 23.0131 152.495 23.5762 152.983 23.8015C153.471 24.0643 153.847 23.9141 153.884 23.4636C153.884 23.0882 153.546 22.5626 153.096 22.2998Z" fill="white"/>
<path d="M153.208 20.6855C152.683 20.4227 152.27 20.5354 152.232 20.9859C152.195 21.4364 152.57 21.9995 153.096 22.2623C153.621 22.5251 154.034 22.4124 154.072 21.9619C154.072 21.5114 153.696 20.9483 153.208 20.6855Z" fill="white"/>
<path d="M153.321 19.1463C152.833 18.8835 152.42 18.9961 152.382 19.409C152.345 19.822 152.72 20.3476 153.208 20.6104C153.734 20.8732 154.109 20.7606 154.147 20.3476C154.147 19.9346 153.809 19.409 153.321 19.1463Z" fill="white"/>
<path d="M153.396 17.8324C152.946 17.6071 152.608 17.6822 152.57 18.0201C152.533 18.358 152.871 18.8085 153.321 19.0713C153.772 19.2965 154.109 19.2214 154.147 18.846C154.147 18.5081 153.809 18.0576 153.396 17.8324Z" fill="white"/>
<path d="M153.471 16.4809C152.983 16.2181 152.608 16.2932 152.57 16.6686C152.533 17.044 152.908 17.4945 153.396 17.7573C153.884 18.0201 154.26 17.9075 154.297 17.5696C154.297 17.1942 153.959 16.7437 153.471 16.4809Z" fill="white"/>
<path d="M153.546 15.242C153.096 15.0167 152.72 15.0542 152.683 15.3921C152.683 15.73 153.021 16.1805 153.471 16.4433C153.922 16.6685 154.297 16.631 154.335 16.2556C154.335 15.9553 153.997 15.5047 153.546 15.242Z" fill="white"/>
<path d="M150.581 11.4877C150.243 11.3375 149.98 11.3375 149.942 11.5628C149.905 11.7881 150.13 12.0508 150.468 12.2386C150.806 12.3887 151.069 12.3887 151.106 12.1635C151.144 11.9382 150.881 11.6754 150.581 11.4877Z" fill="white"/>
<path d="M150.656 10.5492C150.355 10.3991 150.13 10.3991 150.092 10.5868C150.055 10.7745 150.28 11.0373 150.581 11.1875C150.881 11.3376 151.106 11.3376 151.144 11.1499C151.144 10.9622 150.918 10.6994 150.656 10.5492Z" fill="white"/>
<path d="M150.693 9.61061C150.43 9.46044 150.243 9.49799 150.205 9.64815C150.205 9.79832 150.355 10.0236 150.618 10.1737C150.881 10.3239 151.069 10.2864 151.106 10.1362C151.144 9.98603 150.956 9.76078 150.693 9.61061Z" fill="white"/>
<path d="M150.731 8.74724C150.506 8.63461 150.318 8.59707 150.28 8.74724C150.28 8.89741 150.43 9.08511 150.656 9.19774C150.881 9.31037 151.069 9.34791 151.106 9.19774C151.106 9.04757 150.956 8.85986 150.731 8.74724Z" fill="white"/>
<path d="M150.768 7.92131C150.543 7.80869 150.393 7.77114 150.355 7.92131C150.355 8.07148 150.505 8.22165 150.731 8.33427C150.956 8.4469 151.106 8.48444 151.144 8.33427C151.144 8.22165 150.993 8.03394 150.768 7.92131Z" fill="white"/>
<path d="M150.806 7.09533C150.618 6.98271 150.468 6.98271 150.43 7.09533C150.43 7.20796 150.543 7.35813 150.731 7.47075C150.918 7.58338 151.069 7.58338 151.106 7.47075C151.144 7.35813 150.994 7.20796 150.806 7.09533Z" fill="white"/>
<path d="M150.843 6.38208C150.656 6.26945 150.543 6.26945 150.505 6.38208C150.505 6.4947 150.618 6.60733 150.806 6.71995C150.993 6.83258 151.106 6.83258 151.144 6.71995C151.144 6.60733 151.031 6.4947 150.843 6.38208Z" fill="white"/>
<path d="M150.881 5.63126C150.731 5.55618 150.618 5.51864 150.581 5.63126C150.581 5.70635 150.693 5.81897 150.843 5.9316C150.994 6.00668 151.106 6.04422 151.144 5.9316C151.144 5.85651 151.031 5.74389 150.881 5.63126Z" fill="white"/>
<path d="M148.854 23.2759C149.192 23.4261 149.492 23.351 149.529 23.0507C149.567 22.7503 149.342 22.4125 149.004 22.2247C148.666 22.0746 148.366 22.1497 148.328 22.45C148.291 22.7503 148.516 23.0882 148.854 23.2759Z" fill="white"/>
<path d="M148.553 25.1905C148.891 25.3407 149.154 25.2281 149.192 24.9277C149.229 24.6274 149.004 24.2895 148.704 24.1018C148.366 23.9516 148.103 24.0643 148.028 24.3271C148.028 24.6649 148.216 25.0028 148.553 25.1905Z" fill="white"/>
<path d="M148.103 27.1427C148.441 27.2929 148.704 27.1803 148.741 26.8799C148.779 26.5796 148.591 26.2417 148.253 26.054C147.953 25.9039 147.652 26.0165 147.615 26.3168C147.577 26.6171 147.765 26.955 148.103 27.1427Z" fill="white"/>
<path d="M147.69 29.2451C147.99 29.3953 148.253 29.2451 148.291 28.9823C148.328 28.682 148.14 28.3441 147.84 28.1939C147.54 28.0437 147.277 28.1564 147.239 28.4567C147.202 28.757 147.39 29.0949 147.69 29.2451Z" fill="white"/>
<path d="M147.202 31.385C147.502 31.4977 147.727 31.385 147.802 31.0847C147.84 30.7844 147.652 30.484 147.389 30.3339C147.127 30.2212 146.864 30.3339 146.789 30.6342C146.714 30.897 146.901 31.2349 147.202 31.385Z" fill="white"/>
<path d="M146.601 33.9002C146.864 34.0129 147.089 33.9002 147.164 33.5999C147.202 33.2995 147.052 32.9992 146.789 32.8866C146.526 32.774 146.301 32.8866 146.226 33.1869C146.188 33.4497 146.338 33.7501 146.601 33.9002Z" fill="white"/>
<path d="M155.161 16.1805C154.785 15.9553 154.485 16.0304 154.447 16.3307C154.447 16.631 154.748 17.0065 155.123 17.2317C155.536 17.457 155.836 17.3819 155.836 17.0815C155.836 16.7812 155.536 16.4058 155.161 16.1805Z" fill="white"/>
<path d="M155.048 18.846C154.71 18.6583 154.41 18.7333 154.41 18.9961C154.41 19.2965 154.673 19.6343 155.011 19.8596C155.348 20.0473 155.649 19.9722 155.649 19.6719C155.686 19.4091 155.424 19.0337 155.048 18.846Z" fill="white"/>
<path d="M155.048 20.1975C154.635 19.9723 154.335 20.0849 154.297 20.4228C154.297 20.7606 154.597 21.2111 154.973 21.4364C155.386 21.6616 155.686 21.549 155.724 21.2111C155.724 20.8733 155.423 20.4228 155.048 20.1975Z" fill="white"/>
<path d="M154.823 25.153C154.447 24.9653 154.109 25.0779 154.109 25.4534C154.109 25.8288 154.372 26.2793 154.785 26.5045C155.198 26.7298 155.498 26.5796 155.498 26.2042C155.498 25.7912 155.236 25.3407 154.823 25.153Z" fill="white"/>
<path d="M161.355 18.5456C161.017 18.3579 160.792 18.3955 160.83 18.6958C160.867 18.9586 161.13 19.334 161.468 19.5217C161.806 19.7094 162.031 19.6719 161.993 19.3716C161.956 19.0712 161.693 18.7334 161.355 18.5456Z" fill="white"/>
<path d="M156.587 32.5863C156.212 32.3986 155.949 32.5488 155.912 32.9242C155.912 33.3371 156.174 33.8252 156.55 34.0504C156.925 34.2757 157.188 34.088 157.226 33.675C157.226 33.2621 156.963 32.774 156.587 32.5863Z" fill="white"/>
<path d="M158.577 36.303C158.239 36.0778 157.976 36.2655 157.976 36.6784C157.976 37.1289 158.239 37.617 158.577 37.8422C158.915 38.0675 159.178 37.8798 159.178 37.4668C159.178 37.0163 158.915 36.5283 158.577 36.303Z" fill="white"/>
<path d="M154.635 29.1325C154.222 28.9072 153.922 29.0574 153.884 29.4703C153.847 29.8833 154.147 30.3713 154.56 30.6341C154.973 30.8594 155.273 30.7092 155.311 30.2587C155.311 29.8458 155.048 29.3577 154.635 29.1325Z" fill="white"/>
<path d="M152.796 26.054C152.42 25.8663 152.082 25.9789 152.045 26.3543C152.007 26.7298 152.307 27.2178 152.683 27.4055C153.096 27.5932 153.396 27.4806 153.434 27.0676C153.471 26.7298 153.171 26.2793 152.796 26.054Z" fill="white"/>
<path d="M150.994 23.0881C150.581 22.8629 150.205 23.0131 150.13 23.3885C150.093 23.7639 150.393 24.2519 150.806 24.4772C151.256 24.7024 151.594 24.5523 151.669 24.1769C151.744 23.7639 151.444 23.2758 150.994 23.0881Z" fill="white"/>
<path d="M154.898 23.4636C154.522 23.2759 154.26 23.3885 154.222 23.6888C154.222 24.0267 154.485 24.4397 154.86 24.6649C155.236 24.8526 155.499 24.74 155.536 24.4021C155.536 24.0643 155.273 23.6513 154.898 23.4636Z" fill="white"/>
<path d="M153.659 13.102C153.321 12.9143 153.058 12.9518 153.021 13.1771C153.021 13.4023 153.284 13.7402 153.621 13.9279C153.959 14.1156 154.222 14.0781 154.26 13.8528C154.26 13.59 153.997 13.2897 153.659 13.102Z" fill="white"/>
<path d="M159.853 17.7197C159.591 17.5696 159.403 17.6071 159.403 17.8324C159.403 18.0576 159.628 18.3204 159.928 18.5081C160.191 18.6583 160.379 18.6207 160.379 18.3955C160.341 18.1702 160.116 17.9074 159.853 17.7197Z" fill="white"/>
<path d="M156.85 21.3613C156.55 21.2111 156.324 21.2487 156.287 21.549C156.287 21.8118 156.512 22.1497 156.812 22.3374C157.113 22.4876 157.338 22.4125 157.376 22.1497C157.376 21.8494 157.15 21.5115 156.85 21.3613Z" fill="white"/>
<path d="M156.7 28.194C156.325 27.9687 156.024 28.1189 156.024 28.4943C156.024 28.9073 156.287 29.3578 156.7 29.583C157.075 29.8083 157.376 29.6581 157.376 29.2451C157.338 28.9073 157.075 28.4192 156.7 28.194Z" fill="white"/>
<path d="M154.973 21.8868C154.635 21.6991 154.335 21.7742 154.297 22.1121C154.297 22.4124 154.56 22.8254 154.898 23.0131C155.273 23.2008 155.536 23.1257 155.536 22.7878C155.574 22.4499 155.311 22.0745 154.973 21.8868Z" fill="white"/>
<path d="M158.615 23.9142C158.277 23.7264 158.014 23.8015 158.014 24.1394C158.014 24.4773 158.277 24.8902 158.652 25.078C158.99 25.2657 159.253 25.1906 159.253 24.8527C159.215 24.5148 158.952 24.1019 158.615 23.9142Z" fill="white"/>
<path d="M160.079 40.4701C159.816 40.2824 159.591 40.4325 159.591 40.808C159.591 41.1834 159.816 41.6714 160.079 41.8591C160.341 42.0468 160.567 41.8967 160.567 41.5213C160.567 41.1458 160.341 40.6953 160.079 40.4701Z" fill="white"/>
<path d="M158.464 19.3716C158.164 19.1839 157.901 19.259 157.901 19.5218C157.901 19.7846 158.164 20.1224 158.502 20.3102C158.84 20.4979 159.065 20.4228 159.065 20.16C159.028 19.8972 158.765 19.5593 158.464 19.3716Z" fill="white"/>
<path d="M152.082 12.3136C151.782 12.1635 151.519 12.1635 151.481 12.3887C151.481 12.5764 151.707 12.8768 152.007 13.0645C152.307 13.2146 152.57 13.2146 152.608 12.9894C152.608 12.7266 152.382 12.4638 152.082 12.3136Z" fill="white"/>
<path d="M155.198 12.9518C154.898 12.8017 154.673 12.8017 154.673 13.0269C154.673 13.2146 154.898 13.515 155.198 13.6651C155.499 13.8153 155.724 13.8153 155.724 13.59C155.724 13.4023 155.499 13.102 155.198 12.9518Z" fill="white"/>
<path d="M158.352 16.8938C158.089 16.7436 157.939 16.7812 157.939 16.9689C157.939 17.1566 158.126 17.4194 158.389 17.5696C158.652 17.7197 158.802 17.6822 158.802 17.4569C158.802 17.3068 158.614 17.044 158.352 16.8938Z" fill="white"/>
<path d="M156.775 22.9005C156.475 22.7128 156.212 22.8254 156.212 23.0882C156.212 23.3885 156.437 23.7264 156.775 23.9141C157.075 24.1018 157.338 23.9892 157.338 23.7264C157.338 23.4636 157.075 23.0882 156.775 22.9005Z" fill="white"/>
<path d="M158.502 22.3374C158.239 22.1872 158.014 22.2623 158.014 22.4876C158.014 22.7504 158.239 23.0507 158.502 23.2009C158.765 23.351 158.99 23.2759 158.99 23.0507C158.99 22.8254 158.765 22.4876 158.502 22.3374Z" fill="white"/>
<path d="M160.266 24.9653C159.966 24.7775 159.741 24.8526 159.741 25.153C159.741 25.4533 160.004 25.8287 160.304 26.0164C160.604 26.2041 160.829 26.1291 160.829 25.7912C160.829 25.5284 160.567 25.153 160.266 24.9653Z" fill="white"/>
<path d="M162.969 20.8732C162.744 20.7231 162.594 20.7981 162.594 20.9858C162.632 21.1736 162.819 21.4739 163.045 21.6241C163.27 21.7742 163.42 21.6991 163.42 21.5114C163.42 21.2862 163.195 21.0234 162.969 20.8732Z" fill="white"/>
<path d="M155.198 12.0133C154.936 11.8632 154.748 11.9007 154.748 12.0509C154.748 12.201 154.936 12.4638 155.198 12.614C155.461 12.7642 155.649 12.7266 155.649 12.5765C155.649 12.3887 155.461 12.1635 155.198 12.0133Z" fill="white"/>
<path d="M155.198 14.0031C154.935 13.8529 154.71 13.8904 154.71 14.0781C154.71 14.2659 154.935 14.5286 155.198 14.6788C155.461 14.829 155.686 14.7914 155.686 14.6037C155.649 14.416 155.461 14.1532 155.198 14.0031Z" fill="white"/>
<path d="M160.379 37.9549C160.079 37.7296 159.816 37.8798 159.816 38.2927C159.816 38.7057 160.079 39.2313 160.379 39.4565C160.679 39.6818 160.942 39.5316 160.942 39.0811C160.942 38.6681 160.679 38.1801 160.379 37.9549Z" fill="white"/>
<path d="M153.697 12.1635C153.434 12.0133 153.208 12.0508 153.208 12.201C153.208 12.3887 153.396 12.614 153.659 12.7641C153.922 12.9143 154.147 12.8768 154.147 12.6891C154.185 12.5764 153.959 12.3136 153.697 12.1635Z" fill="white"/>
<path d="M156.775 19.8971C156.512 19.7469 156.287 19.822 156.287 20.0473C156.287 20.2725 156.512 20.5728 156.775 20.723C157.038 20.8732 157.263 20.7981 157.263 20.5729C157.225 20.3476 157.038 20.0473 156.775 19.8971Z" fill="white"/>
<path d="M156.737 16.0678C156.512 15.9552 156.362 15.9927 156.324 16.1429C156.324 16.2931 156.512 16.5183 156.737 16.6685C156.963 16.7811 157.15 16.7436 157.15 16.5934C157.15 16.4057 156.963 16.1804 156.737 16.0678Z" fill="white"/>
<path d="M156.737 26.392C156.475 26.2418 156.249 26.3169 156.249 26.5797C156.249 26.8425 156.437 27.1803 156.737 27.3305C157 27.4807 157.225 27.4056 157.225 27.1053C157.188 26.88 157 26.5421 156.737 26.392Z" fill="white"/>
<path d="M158.614 31.6102C158.314 31.4225 158.089 31.5351 158.051 31.9105C158.051 32.2484 158.277 32.6989 158.614 32.8866C158.915 33.0743 159.178 32.9617 159.178 32.5863C159.14 32.2484 158.915 31.7979 158.614 31.6102Z" fill="white"/>
<path d="M155.161 15.242C154.973 15.1294 154.785 15.1669 154.785 15.3171C154.785 15.4673 154.935 15.655 155.123 15.7676C155.311 15.8802 155.498 15.8427 155.498 15.6925C155.536 15.5423 155.386 15.3171 155.161 15.242Z" fill="white"/>
<path d="M158.464 38.8183C158.239 38.6681 158.014 38.7808 158.014 39.1186C158.014 39.4565 158.202 39.8319 158.427 39.9821C158.69 40.1323 158.877 40.0196 158.877 39.6818C158.877 39.3439 158.69 38.9685 158.464 38.8183Z" fill="white"/>
<path d="M160.041 20.3851C159.778 20.235 159.591 20.2725 159.591 20.4978C159.591 20.723 159.816 21.0234 160.079 21.1735C160.341 21.3237 160.529 21.2862 160.529 21.0234C160.492 20.8356 160.304 20.5353 160.041 20.3851Z" fill="white"/>
<path d="M156.737 12.8768C156.512 12.7642 156.324 12.7642 156.324 12.9143C156.324 13.0645 156.512 13.2898 156.737 13.4399C156.963 13.5525 157.15 13.5525 157.15 13.4024C157.15 13.2522 156.963 13.027 156.737 12.8768Z" fill="white"/>
<path d="M165.935 21.549C165.747 21.4364 165.635 21.4739 165.635 21.6241C165.672 21.8118 165.822 22.0371 166.01 22.1497C166.198 22.2623 166.311 22.2248 166.273 22.0371C166.273 21.9244 166.123 21.6992 165.935 21.549Z" fill="white"/>
<path d="M161.993 26.0916C161.73 25.9414 161.543 26.0165 161.543 26.2793C161.58 26.5421 161.768 26.9175 162.068 27.1052C162.331 27.2929 162.519 27.1803 162.519 26.9175C162.481 26.6171 162.256 26.2793 161.993 26.0916Z" fill="white"/>
<path d="M161.167 43.2107C160.942 43.023 160.792 43.1731 160.792 43.511C160.792 43.8864 160.98 44.2994 161.205 44.5246C161.43 44.7124 161.58 44.5997 161.58 44.2243C161.543 43.8114 161.393 43.3984 161.167 43.2107Z" fill="white"/>
<path d="M156.512 35.064C156.249 34.9139 156.024 35.0265 156.024 35.3644C156.024 35.7022 156.212 36.0777 156.475 36.2278C156.737 36.378 156.963 36.2654 156.963 35.9275C156.963 35.5896 156.775 35.2142 156.512 35.064Z" fill="white"/>
<path d="M160.191 23.4636C160.004 23.351 159.854 23.3885 159.854 23.5763C159.854 23.764 160.004 23.9892 160.229 24.1018C160.417 24.2145 160.567 24.1769 160.567 23.9892C160.567 23.8015 160.379 23.5762 160.191 23.4636Z" fill="white"/>
<path d="M156.662 11.9383C156.475 11.8257 156.324 11.8257 156.324 11.9759C156.324 12.126 156.475 12.2762 156.7 12.3888C156.888 12.5014 157.038 12.5014 157.038 12.3513C157 12.2386 156.85 12.0509 156.662 11.9383Z" fill="white"/>
<path d="M158.051 12.8017C157.901 12.7266 157.751 12.7266 157.789 12.8393C157.789 12.9519 157.939 13.1021 158.089 13.1771C158.239 13.2522 158.389 13.2522 158.352 13.1396C158.352 13.027 158.202 12.8768 158.051 12.8017Z" fill="white"/>
<path d="M154.523 31.6477C154.297 31.5351 154.072 31.6102 154.072 31.873C154.072 32.1358 154.222 32.4361 154.485 32.5863C154.748 32.6989 154.935 32.6238 154.935 32.361C154.935 32.0982 154.785 31.7979 154.523 31.6477Z" fill="white"/>
<path d="M152.57 28.344C152.345 28.2314 152.12 28.3065 152.12 28.5693C152.12 28.7945 152.27 29.0949 152.495 29.2075C152.72 29.3201 152.946 29.245 152.946 28.9822C152.946 28.757 152.795 28.4566 152.57 28.344Z" fill="white"/>
<path d="M150.731 25.2656C150.505 25.153 150.28 25.2281 150.28 25.4533C150.243 25.6786 150.43 25.9414 150.656 26.054C150.881 26.1666 151.106 26.0915 151.106 25.8663C151.106 25.641 150.956 25.3782 150.731 25.2656Z" fill="white"/>
<path d="M157.976 11.9007C157.789 11.7881 157.676 11.7881 157.676 11.9383C157.676 12.0509 157.826 12.2011 158.014 12.3137C158.202 12.4263 158.314 12.4263 158.314 12.2761C158.277 12.126 158.127 11.9758 157.976 11.9007Z" fill="white"/>
<path d="M159.065 11.9383C158.915 11.8632 158.802 11.8632 158.802 11.9759C158.802 12.0885 158.915 12.2011 159.065 12.2762C159.215 12.3513 159.328 12.3513 159.328 12.2386C159.365 12.126 159.215 12.0134 159.065 11.9383Z" fill="white"/>
<path d="M163.645 27.3679C163.495 27.2553 163.345 27.2928 163.382 27.4805C163.382 27.6682 163.532 27.8935 163.72 28.0437C163.908 28.1563 164.021 28.1188 163.983 27.931C163.983 27.7433 163.833 27.4805 163.645 27.3679Z" fill="white"/>
<path d="M162.106 27.8185C161.881 27.6683 161.73 27.7434 161.73 27.9686C161.73 28.1939 161.918 28.4942 162.143 28.6444C162.369 28.7946 162.519 28.7195 162.481 28.4942C162.481 28.2315 162.331 27.9687 162.106 27.8185Z" fill="white"/>
<path d="M160.379 26.7297C160.191 26.6171 160.041 26.6546 160.041 26.8799C160.041 27.1051 160.191 27.3679 160.416 27.4806C160.604 27.5932 160.754 27.5556 160.754 27.3304C160.717 27.1051 160.567 26.8423 160.379 26.7297Z" fill="white"/>
<path d="M158.577 25.6786C158.389 25.566 158.239 25.6411 158.239 25.8288C158.239 26.0165 158.389 26.2418 158.577 26.3544C158.765 26.467 158.915 26.3919 158.915 26.2042C158.915 26.0165 158.765 25.7913 158.577 25.6786Z" fill="white"/>
<path d="M156.775 24.6274C156.587 24.5148 156.437 24.5898 156.437 24.7775C156.437 24.9653 156.587 25.1905 156.775 25.3031C156.963 25.4158 157.113 25.3407 157.113 25.153C157.113 24.9277 156.963 24.74 156.775 24.6274Z" fill="white"/>
<path d="M163.758 29.0199C163.57 28.9072 163.457 28.9448 163.495 29.17C163.495 29.3577 163.645 29.6205 163.833 29.7332C164.021 29.8458 164.133 29.8083 164.096 29.583C164.058 29.3953 163.908 29.1325 163.758 29.0199Z" fill="white"/>
<path d="M165.485 30.2963C165.335 30.1836 165.222 30.2212 165.259 30.4089C165.259 30.5966 165.41 30.8218 165.56 30.972C165.71 31.0846 165.823 31.0471 165.785 30.8594C165.748 30.6717 165.635 30.4089 165.485 30.2963Z" fill="white"/>
<path d="M156.7 13.8905C156.512 13.7778 156.362 13.7778 156.362 13.928C156.362 14.0782 156.512 14.2283 156.7 14.341C156.888 14.4536 157.038 14.4536 157.038 14.3034C157.038 14.1908 156.888 14.0031 156.7 13.8905Z" fill="white"/>
<path d="M145.287 18.4706C144.837 18.2453 144.424 18.358 144.349 18.6958C144.274 19.0713 144.536 19.5218 145.024 19.747C145.475 19.9723 145.888 19.8596 145.963 19.4842C146.038 19.1088 145.738 18.6958 145.287 18.4706Z" fill="white"/>
<path d="M143.372 17.3818C142.809 17.119 142.284 17.2316 142.134 17.6821C142.021 18.1326 142.359 18.6958 142.959 18.9586C143.56 19.2214 144.086 19.0712 144.198 18.6207C144.273 18.1702 143.936 17.6446 143.372 17.3818Z" fill="white"/>
<path d="M130.345 3.64154C130.646 3.75416 130.796 3.94187 130.683 4.09204C130.571 4.24221 130.233 4.27975 129.932 4.16712C129.632 4.05449 129.482 3.86679 129.595 3.71662C129.707 3.56645 130.045 3.52891 130.345 3.64154Z" fill="white"/>
<path d="M132.485 4.27972C132.861 4.42989 133.049 4.65514 132.936 4.84285C132.823 5.03056 132.41 5.0681 132.035 4.91793C131.66 4.76776 131.472 4.54251 131.584 4.3548C131.735 4.20463 132.11 4.16709 132.485 4.27972Z" fill="white"/>
<path d="M131.697 21.2862C132.035 21.4363 132.223 21.7367 132.072 22.037C131.922 22.2998 131.584 22.45 131.209 22.2998C130.871 22.1496 130.683 21.8493 130.834 21.549C130.946 21.2862 131.322 21.1735 131.697 21.2862Z" fill="white"/>
<path d="M134.738 19.7469C135.188 19.9347 135.451 20.3852 135.301 20.7606C135.151 21.136 134.663 21.2862 134.175 21.0985C133.687 20.9107 133.462 20.4602 133.612 20.0848C133.799 19.7094 134.287 19.5592 134.738 19.7469Z" fill="white"/>
<path d="M137.854 18.846C138.342 19.0713 138.605 19.5218 138.492 19.8972C138.342 20.2726 137.854 20.4228 137.366 20.2351C136.878 20.0098 136.577 19.5593 136.728 19.1463C136.84 18.7709 137.366 18.6583 137.854 18.846Z" fill="white"/>
<path d="M143.598 9.00998C144.011 9.19769 144.274 9.5731 144.199 9.79836C144.123 10.0611 143.748 10.0987 143.298 9.87344C142.885 9.64819 142.622 9.31031 142.697 9.04752C142.809 8.82227 143.185 8.78473 143.598 9.00998Z" fill="white"/>
<path d="M133.837 6.0442C134.212 6.19437 134.438 6.45717 134.325 6.68242C134.212 6.87013 133.799 6.94521 133.386 6.79504C132.973 6.64487 132.786 6.38208 132.898 6.15683C133.049 5.93158 133.462 5.89403 133.837 6.0442Z" fill="white"/>
<path d="M135.827 6.79506C136.239 6.94522 136.427 7.24556 136.315 7.47081C136.202 7.69606 135.789 7.73361 135.376 7.58344C134.963 7.43327 134.738 7.13293 134.888 6.90768C135.038 6.68243 135.414 6.64489 135.827 6.79506Z" fill="white"/>
<path d="M139.13 9.46051C139.543 9.64822 139.806 10.0236 139.731 10.2864C139.618 10.5492 139.205 10.5868 138.755 10.3991C138.304 10.2114 138.042 9.83593 138.154 9.57314C138.267 9.34789 138.68 9.2728 139.13 9.46051Z" fill="white"/>
<path d="M137.741 7.54591C138.154 7.73362 138.417 8.07149 138.304 8.29674C138.192 8.522 137.779 8.59708 137.328 8.40937C136.878 8.22166 136.653 7.88379 136.765 7.65853C136.915 7.39574 137.328 7.3582 137.741 7.54591Z" fill="white"/>
<path d="M139.656 8.37184C140.106 8.59709 140.369 8.93496 140.257 9.19776C140.144 9.46055 139.693 9.49809 139.243 9.31038C138.792 9.08513 138.53 8.74725 138.642 8.48446C138.792 8.22166 139.205 8.18413 139.656 8.37184Z" fill="white"/>
<path d="M141.045 10.2864C141.495 10.5116 141.796 10.887 141.683 11.1874C141.57 11.4877 141.12 11.5252 140.632 11.3375C140.144 11.1123 139.881 10.6993 139.994 10.4365C140.106 10.1362 140.557 10.0611 141.045 10.2864Z" fill="white"/>
<path d="M140.707 18.0576C141.195 18.2828 141.458 18.7333 141.345 19.1088C141.233 19.4842 140.744 19.6343 140.256 19.4091C139.768 19.1838 139.468 18.7333 139.618 18.3204C139.731 17.9825 140.219 17.8699 140.707 18.0576Z" fill="white"/>
<path d="M141.195 16.4809C141.721 16.7061 142.021 17.1942 141.908 17.6071C141.796 17.9826 141.27 18.1327 140.745 17.9075C140.219 17.6447 139.919 17.1566 140.031 16.7812C140.182 16.3683 140.67 16.2556 141.195 16.4809Z" fill="white"/>
<path d="M141.645 14.9792C142.209 15.242 142.546 15.73 142.434 16.143C142.321 16.5559 141.758 16.6685 141.195 16.4058C140.632 16.143 140.294 15.6174 140.407 15.2044C140.557 14.829 141.082 14.7164 141.645 14.9792Z" fill="white"/>
<path d="M142.096 13.5526C142.622 13.8154 142.96 14.3034 142.847 14.6789C142.734 15.0543 142.209 15.1669 141.646 14.9041C141.083 14.6413 140.745 14.1533 140.895 13.7779C141.045 13.4024 141.533 13.3274 142.096 13.5526Z" fill="white"/>
<path d="M142.472 12.3512C142.96 12.5764 143.222 12.9894 143.147 13.3273C143.035 13.6276 142.584 13.7402 142.096 13.515C141.608 13.2897 141.308 12.8768 141.42 12.5389C141.571 12.201 141.984 12.1259 142.472 12.3512Z" fill="white"/>
<path d="M142.922 11.1123C143.447 11.3751 143.748 11.7881 143.673 12.126C143.56 12.4638 143.072 12.5389 142.546 12.2761C142.021 12.0133 141.721 11.5628 141.796 11.225C141.908 10.9246 142.396 10.8871 142.922 11.1123Z" fill="white"/>
<path d="M143.297 9.98611C143.785 10.2489 144.086 10.6619 144.011 10.9622C143.898 11.2625 143.448 11.3376 142.959 11.0748C142.434 10.812 142.134 10.3991 142.246 10.0987C142.321 9.7984 142.809 9.76086 143.297 9.98611Z" fill="white"/>
<path d="M147.239 9.72328C147.577 9.91099 147.803 10.1738 147.765 10.399C147.727 10.5867 147.427 10.6243 147.089 10.4741C146.751 10.2864 146.526 10.0236 146.564 9.79836C146.601 9.61065 146.902 9.57311 147.239 9.72328Z" fill="white"/>
<path d="M147.502 8.82228C147.803 8.97245 147.99 9.23524 147.99 9.42295C147.953 9.61066 147.69 9.61066 147.39 9.46049C147.089 9.31033 146.864 9.04753 146.902 8.85982C146.939 8.70965 147.202 8.67211 147.502 8.82228Z" fill="white"/>
<path d="M147.765 7.99635C148.028 8.14652 148.215 8.37177 148.178 8.52194C148.14 8.67211 147.915 8.67211 147.652 8.55948C147.39 8.40932 147.202 8.18406 147.239 8.03389C147.277 7.88373 147.502 7.84619 147.765 7.99635Z" fill="white"/>
<path d="M147.99 7.17041C148.215 7.28303 148.403 7.47075 148.366 7.62091C148.328 7.77108 148.14 7.77108 147.878 7.62091C147.652 7.50829 147.465 7.32057 147.502 7.17041C147.54 7.05778 147.727 7.05778 147.99 7.17041Z" fill="white"/>
<path d="M148.216 6.4572C148.441 6.56983 148.591 6.72 148.553 6.87016C148.516 7.02033 148.328 6.98279 148.103 6.87016C147.878 6.75754 147.727 6.56983 147.765 6.4572C147.803 6.30703 147.99 6.34457 148.216 6.4572Z" fill="white"/>
<path d="M148.403 5.74389C148.591 5.85652 148.741 6.00669 148.704 6.11931C148.666 6.23194 148.516 6.23194 148.328 6.11931C148.14 6.00669 147.99 5.85652 148.028 5.74389C148.065 5.63127 148.215 5.63127 148.403 5.74389Z" fill="white"/>
<path d="M148.591 5.14323C148.779 5.25585 148.891 5.36847 148.891 5.4811C148.854 5.59373 148.703 5.55618 148.553 5.4811C148.366 5.36847 148.253 5.25585 148.253 5.14323C148.253 5.0306 148.403 5.06814 148.591 5.14323Z" fill="white"/>
<path d="M148.779 4.54255C148.929 4.61763 149.041 4.73026 149.041 4.84288C149.004 4.91797 148.891 4.91797 148.741 4.80534C148.591 4.73026 148.478 4.61763 148.478 4.50501C148.478 4.46747 148.591 4.46746 148.779 4.54255Z" fill="white"/>
<path d="M144.649 21.2111C144.311 21.0234 144.086 20.6855 144.161 20.3852C144.236 20.0848 144.574 20.0098 144.912 20.1599C145.25 20.3476 145.475 20.6855 145.4 20.9483C145.325 21.2862 144.987 21.3988 144.649 21.2111Z" fill="white"/>
<path d="M144.274 23.0882C143.936 22.9381 143.748 22.6002 143.785 22.2998C143.861 21.9995 144.161 21.9244 144.499 22.0746C144.837 22.2248 145.024 22.5626 144.987 22.863C144.912 23.1258 144.611 23.2384 144.274 23.0882Z" fill="white"/>
<path d="M143.898 25.0403C143.56 24.8901 143.373 24.5147 143.448 24.2144C143.523 23.9141 143.823 23.8014 144.161 23.9516C144.499 24.1018 144.686 24.4397 144.611 24.74C144.574 25.0779 144.236 25.1905 143.898 25.0403Z" fill="white"/>
<path d="M143.598 27.1803C143.297 27.0301 143.11 26.6922 143.185 26.3919C143.26 26.0916 143.56 25.9789 143.861 26.1291C144.161 26.2793 144.349 26.6171 144.273 26.8799C144.198 27.1803 143.898 27.2929 143.598 27.1803Z" fill="white"/>
<path d="M143.147 29.4704C142.847 29.3202 142.697 29.0199 142.772 28.7195C142.847 28.4192 143.11 28.3066 143.41 28.4567C143.71 28.6069 143.861 28.9072 143.823 29.2076C143.71 29.4704 143.448 29.583 143.147 29.4704Z" fill="white"/>
<path d="M142.697 32.0982C142.434 31.9856 142.284 31.6477 142.321 31.3849C142.396 31.0846 142.659 30.972 142.922 31.0846C143.185 31.1972 143.335 31.4975 143.297 31.7979C143.26 32.0982 142.997 32.2108 142.697 32.0982Z" fill="white"/>
<path d="M141.496 9.23524C141.909 9.42295 142.171 9.79837 142.096 10.0612C141.984 10.324 141.571 10.3615 141.158 10.1738C140.707 9.94853 140.444 9.61066 140.557 9.34786C140.67 9.08507 141.083 9.04753 141.496 9.23524Z" fill="white"/>
<path d="M140.519 11.5629C140.895 11.7506 141.158 12.0885 141.045 12.3137C140.932 12.5765 140.557 12.614 140.181 12.4639C139.768 12.2762 139.543 11.9383 139.656 11.6755C139.768 11.4127 140.144 11.3752 140.519 11.5629Z" fill="white"/>
<path d="M140.069 12.7642C140.519 12.9895 140.782 13.3649 140.67 13.6652C140.557 13.9655 140.106 14.0406 139.656 13.8529C139.205 13.6277 138.943 13.2522 139.055 12.9519C139.205 12.6516 139.618 12.5765 140.069 12.7642Z" fill="white"/>
<path d="M138.454 17.1566C138.905 17.3443 139.13 17.7573 139.018 18.0951C138.905 18.433 138.454 18.5456 138.004 18.3579C137.553 18.1702 137.291 17.7573 137.441 17.4194C137.553 17.0815 138.004 16.9689 138.454 17.1566Z" fill="white"/>
<path d="M134.475 4.99299C134.888 5.1807 135.113 5.44349 135.001 5.66874C134.85 5.89399 134.437 5.894 134.024 5.74383C133.611 5.55612 133.386 5.29332 133.499 5.06807C133.649 4.84282 134.062 4.80528 134.475 4.99299Z" fill="white"/>
<path d="M133.95 21.8118C134.4 21.9995 134.588 22.4125 134.475 22.7879C134.325 23.1633 133.874 23.3135 133.424 23.1258C132.973 22.9381 132.748 22.5251 132.898 22.1497C133.049 21.7743 133.499 21.6616 133.95 21.8118Z" fill="white"/>
<path d="M130.871 23.0507C131.322 23.2384 131.509 23.6514 131.359 24.0268C131.171 24.4022 130.683 24.5899 130.233 24.4022C129.782 24.2145 129.595 23.8016 129.745 23.4261C129.932 23.0507 130.421 22.9005 130.871 23.0507Z" fill="white"/>
<path d="M137.141 20.7606C137.591 20.9483 137.854 21.3988 137.704 21.7742C137.554 22.1497 137.103 22.2998 136.615 22.1121C136.165 21.9244 135.902 21.4739 136.052 21.0609C136.202 20.7231 136.69 20.5729 137.141 20.7606Z" fill="white"/>
<path d="M140.106 19.9346C140.519 20.1223 140.782 20.5353 140.669 20.9107C140.557 21.2486 140.144 21.3988 139.693 21.2111C139.243 21.0233 139.018 20.5728 139.13 20.235C139.243 19.8595 139.656 19.7469 140.106 19.9346Z" fill="white"/>
<path d="M142.847 19.0713C143.297 19.2965 143.56 19.747 143.485 20.0849C143.373 20.4603 142.96 20.5729 142.472 20.3852C142.021 20.16 141.721 19.7095 141.833 19.3341C141.946 18.9962 142.396 18.8836 142.847 19.0713Z" fill="white"/>
<path d="M139.018 15.6174C139.431 15.8051 139.656 16.1805 139.581 16.4809C139.468 16.7812 139.055 16.8563 138.642 16.7061C138.229 16.5184 138.004 16.143 138.079 15.8427C138.192 15.5048 138.605 15.4297 139.018 15.6174Z" fill="white"/>
<path d="M143.936 8.03393C144.311 8.22164 144.536 8.52198 144.461 8.74723C144.386 8.97248 144.048 8.97248 143.673 8.78477C143.297 8.59706 143.072 8.29673 143.147 8.07148C143.222 7.88377 143.56 7.84622 143.936 8.03393Z" fill="white"/>
<path d="M136.427 5.89397C136.765 6.04414 136.915 6.26939 136.84 6.4571C136.727 6.64481 136.427 6.64481 136.089 6.49464C135.751 6.34447 135.564 6.11922 135.676 5.93151C135.751 5.7438 136.089 5.7438 136.427 5.89397Z" fill="white"/>
<path d="M138.041 12.0133C138.379 12.1635 138.605 12.4638 138.492 12.6891C138.379 12.9143 138.041 12.9894 137.666 12.8393C137.291 12.6891 137.103 12.3887 137.178 12.1635C137.328 11.9007 137.704 11.8256 138.041 12.0133Z" fill="white"/>
<path d="M135.489 17.9074C135.939 18.0951 136.165 18.508 136.052 18.8459C135.902 19.1838 135.451 19.334 134.963 19.1463C134.513 18.9585 134.25 18.5456 134.4 18.1702C134.588 17.8698 135.038 17.7197 135.489 17.9074Z" fill="white"/>
<path d="M139.506 14.2283C139.919 14.416 140.144 14.7539 140.031 15.0542C139.919 15.317 139.543 15.4296 139.13 15.2419C138.717 15.0542 138.492 14.7163 138.605 14.416C138.717 14.1532 139.13 14.0781 139.506 14.2283Z" fill="white"/>
<path d="M135.338 12.4263C135.751 12.614 135.977 12.9519 135.864 13.2146C135.714 13.4774 135.301 13.5525 134.888 13.4024C134.475 13.2146 134.25 12.8768 134.362 12.614C134.513 12.3512 134.926 12.2761 135.338 12.4263Z" fill="white"/>
<path d="M128.168 24.3646C128.468 24.4772 128.619 24.7776 128.468 25.0404C128.318 25.3032 127.98 25.4533 127.642 25.3407C127.342 25.2281 127.192 24.9277 127.342 24.6649C127.53 24.4022 127.868 24.252 128.168 24.3646Z" fill="white"/>
<path d="M137.141 8.67213C137.516 8.8223 137.741 9.12264 137.629 9.34789C137.516 9.57314 137.141 9.61068 136.765 9.46051C136.39 9.31035 136.165 9.01001 136.277 8.78476C136.39 8.55951 136.765 8.52196 137.141 8.67213Z" fill="white"/>
<path d="M145.587 8.93493C145.925 9.0851 146.113 9.38544 146.076 9.57315C146.038 9.76086 145.738 9.79839 145.4 9.61068C145.062 9.46052 144.874 9.16018 144.912 8.97247C144.987 8.78476 145.287 8.74723 145.587 8.93493Z" fill="white"/>
<path d="M140.895 5.7063C141.158 5.81893 141.308 5.9691 141.27 6.11927C141.233 6.23189 141.007 6.26943 140.745 6.19435C140.482 6.08172 140.332 5.93155 140.369 5.78138C140.407 5.63122 140.632 5.63122 140.895 5.7063Z" fill="white"/>
<path d="M138.229 6.64479C138.53 6.75742 138.68 6.98266 138.605 7.17037C138.53 7.32054 138.229 7.35809 137.929 7.20792C137.629 7.05775 137.478 6.87004 137.554 6.68233C137.629 6.53217 137.929 6.49462 138.229 6.64479Z" fill="white"/>
<path d="M137.441 13.4024C137.816 13.5526 138.004 13.8529 137.929 14.1157C137.816 14.3785 137.441 14.4536 137.065 14.2659C136.69 14.1157 136.465 13.7778 136.577 13.5526C136.69 13.2898 137.065 13.2522 137.441 13.4024Z" fill="white"/>
<path d="M135.977 11.1874C136.315 11.3375 136.465 11.6003 136.39 11.788C136.277 11.9758 135.977 12.0508 135.639 11.9007C135.301 11.7505 135.113 11.4877 135.226 11.3C135.338 11.1123 135.676 11.0748 135.977 11.1874Z" fill="white"/>
<path d="M133.161 11.6754C133.537 11.8256 133.762 12.1259 133.612 12.3512C133.461 12.5764 133.086 12.6515 132.673 12.5389C132.298 12.3887 132.072 12.0884 132.223 11.8256C132.373 11.6003 132.786 11.5252 133.161 11.6754Z" fill="white"/>
<path d="M131.81 5.40594C132.11 5.51857 132.26 5.70628 132.185 5.85644C132.072 6.00661 131.772 6.04416 131.434 5.93153C131.134 5.81891 130.946 5.6312 131.059 5.44349C131.209 5.3684 131.509 5.29332 131.81 5.40594Z" fill="white"/>
<path d="M141.308 4.88033C141.57 4.99296 141.758 5.18066 141.721 5.29329C141.683 5.44346 141.458 5.44346 141.157 5.36838C140.895 5.25575 140.707 5.06804 140.745 4.91787C140.782 4.7677 141.007 4.76771 141.308 4.88033Z" fill="white"/>
<path d="M142.246 7.2455C142.584 7.39567 142.772 7.65846 142.697 7.84617C142.622 8.03388 142.321 8.03388 141.984 7.88371C141.646 7.73354 141.458 7.47075 141.533 7.28304C141.608 7.13287 141.908 7.09533 142.246 7.2455Z" fill="white"/>
<path d="M142.622 6.34453C142.922 6.4947 143.11 6.71995 143.035 6.87012C142.997 7.02029 142.734 7.05782 142.434 6.90766C142.134 6.75749 141.946 6.53224 142.021 6.34453C142.058 6.2319 142.321 6.19436 142.622 6.34453Z" fill="white"/>
<path d="M138.567 10.812C138.867 10.9622 139.055 11.1874 138.98 11.4127C138.905 11.6004 138.605 11.6379 138.267 11.5253C137.966 11.3751 137.779 11.1123 137.854 10.9246C137.929 10.7369 138.229 10.6994 138.567 10.812Z" fill="white"/>
<path d="M140.069 7.50826C140.332 7.62089 140.482 7.84614 140.407 7.95876C140.332 8.10893 140.106 8.10893 139.844 7.99631C139.581 7.88368 139.431 7.65843 139.506 7.5458C139.581 7.39563 139.806 7.39564 140.069 7.50826Z" fill="white"/>
<path d="M136.164 16.3682C136.465 16.5183 136.652 16.7811 136.577 17.0064C136.465 17.2316 136.164 17.3067 135.826 17.1941C135.489 17.0439 135.338 16.7811 135.413 16.5559C135.526 16.3306 135.826 16.2555 136.164 16.3682Z" fill="white"/>
<path d="M141.796 8.33419C142.021 8.44681 142.171 8.63453 142.134 8.74715C142.096 8.85978 141.871 8.89732 141.646 8.78469C141.42 8.67206 141.27 8.48436 141.308 8.37173C141.383 8.25911 141.571 8.2591 141.796 8.33419Z" fill="white"/>
<path d="M144.161 7.17037C144.424 7.32054 144.574 7.50825 144.536 7.65841C144.499 7.80858 144.274 7.80858 144.011 7.69596C143.748 7.54579 143.598 7.35808 143.635 7.20791C143.673 7.05774 143.898 7.05774 144.161 7.17037Z" fill="white"/>
<path d="M135.151 7.92126C135.451 8.03389 135.639 8.29668 135.564 8.48439C135.451 8.6721 135.151 8.70964 134.813 8.59702C134.475 8.48439 134.325 8.2216 134.4 8.03389C134.475 7.84618 134.813 7.80864 135.151 7.92126Z" fill="white"/>
<path d="M128.206 2.92822C128.468 3.00331 128.581 3.15347 128.468 3.2661C128.356 3.37872 128.093 3.41626 127.83 3.34118C127.567 3.2661 127.455 3.11593 127.567 3.00331C127.68 2.89068 127.98 2.85314 128.206 2.92822Z" fill="white"/>
<path d="M130.909 10.887C131.284 10.9996 131.434 11.2624 131.322 11.4877C131.171 11.7129 130.796 11.788 130.421 11.6379C130.045 11.5252 129.857 11.2624 130.008 11.0372C130.158 10.8495 130.533 10.7744 130.909 10.887Z" fill="white"/>
<path d="M127.417 26.3919C127.717 26.5045 127.83 26.7673 127.68 27.0301C127.53 27.2929 127.192 27.4055 126.929 27.3304C126.629 27.2178 126.516 26.9175 126.666 26.6547C126.779 26.3919 127.117 26.2793 127.417 26.3919Z" fill="white"/>
<path d="M125.165 27.5556C125.427 27.6307 125.503 27.8935 125.39 28.1188C125.24 28.344 124.977 28.4566 124.714 28.3816C124.451 28.3065 124.339 28.0437 124.489 27.8184C124.602 27.5932 124.902 27.4806 125.165 27.5556Z" fill="white"/>
<path d="M133.124 23.8015C133.462 23.9517 133.612 24.252 133.499 24.5523C133.386 24.8527 133.011 24.9653 132.673 24.8527C132.335 24.7025 132.185 24.4022 132.298 24.1018C132.448 23.8015 132.823 23.6889 133.124 23.8015Z" fill="white"/>
<path d="M130.045 25.1155C130.383 25.2656 130.533 25.566 130.421 25.8663C130.308 26.1666 129.933 26.2793 129.595 26.1666C129.257 26.0165 129.107 25.7161 129.219 25.4158C129.37 25.1155 129.707 25.0028 130.045 25.1155Z" fill="white"/>
<path d="M133.837 10.4365C134.062 10.5492 134.212 10.7369 134.137 10.8495C134.062 10.9996 133.799 11.0372 133.574 10.9621C133.311 10.8495 133.199 10.6618 133.274 10.5116C133.349 10.399 133.612 10.3614 133.837 10.4365Z" fill="white"/>
<path d="M140.181 3.60396C140.407 3.67905 140.519 3.82922 140.482 3.94184C140.444 4.05447 140.257 4.05447 140.031 3.97938C139.806 3.9043 139.693 3.75413 139.731 3.64151C139.806 3.52888 139.994 3.52888 140.181 3.60396Z" fill="white"/>
<path d="M136.39 22.7878C136.652 22.9005 136.803 23.2008 136.728 23.4261C136.615 23.6513 136.352 23.7639 136.052 23.6513C135.751 23.5387 135.639 23.2383 135.714 23.0131C135.827 22.7878 136.127 22.6752 136.39 22.7878Z" fill="white"/>
<path d="M139.431 21.7743C139.693 21.8869 139.844 22.1497 139.768 22.3749C139.693 22.6002 139.431 22.6753 139.168 22.5627C138.905 22.45 138.755 22.1872 138.83 21.962C138.905 21.7367 139.168 21.6617 139.431 21.7743Z" fill="white"/>
<path d="M142.246 21.136C142.509 21.2487 142.659 21.5115 142.584 21.6992C142.509 21.9244 142.284 21.9995 142.021 21.8869C141.758 21.7743 141.608 21.5115 141.683 21.2862C141.758 21.0985 142.021 21.0234 142.246 21.136Z" fill="white"/>
<path d="M128.468 10.2489C128.694 10.3239 128.844 10.4741 128.731 10.6243C128.619 10.7744 128.393 10.812 128.131 10.7369C127.868 10.6618 127.755 10.5116 127.868 10.3615C127.98 10.2488 128.243 10.1738 128.468 10.2489Z" fill="white"/>
<path d="M130.083 12.0133C130.383 12.1259 130.533 12.3136 130.421 12.5014C130.308 12.6891 130.008 12.7641 129.707 12.6515C129.407 12.5389 129.257 12.3512 129.369 12.1635C129.482 11.9758 129.782 11.9382 130.083 12.0133Z" fill="white"/>
<path d="M132.373 13.0269C132.636 13.1395 132.748 13.3273 132.673 13.515C132.598 13.6651 132.298 13.7402 132.035 13.6276C131.772 13.515 131.622 13.3273 131.735 13.1395C131.847 12.9894 132.11 12.9518 132.373 13.0269Z" fill="white"/>
<path d="M134.625 13.928C134.85 14.0407 134.963 14.2284 134.888 14.3786C134.813 14.5287 134.588 14.5663 134.362 14.4912C134.137 14.3785 134.025 14.1908 134.062 14.0407C134.175 13.8905 134.4 13.853 134.625 13.928Z" fill="white"/>
<path d="M136.803 14.8665C137.028 14.9791 137.141 15.1668 137.103 15.317C137.028 15.4672 136.803 15.5047 136.577 15.4296C136.352 15.317 136.24 15.1293 136.277 14.9791C136.352 14.8289 136.577 14.7539 136.803 14.8665Z" fill="white"/>
<path d="M141.683 4.16707C141.871 4.24216 142.021 4.39233 141.983 4.50495C141.946 4.61758 141.796 4.61758 141.571 4.54249C141.383 4.46741 141.233 4.31724 141.27 4.20462C141.308 4.09199 141.458 4.09199 141.683 4.16707Z" fill="white"/>
<path d="M140.595 2.92818C140.782 3.00327 140.895 3.11589 140.857 3.22852C140.82 3.34114 140.67 3.34114 140.482 3.26606C140.294 3.19098 140.182 3.07835 140.219 2.96572C140.257 2.8531 140.444 2.8531 140.595 2.92818Z" fill="white"/>
<path d="M139.506 1.87704C139.656 1.95212 139.768 2.06475 139.768 2.13983C139.731 2.21491 139.618 2.25246 139.431 2.17737C139.28 2.10229 139.168 2.0272 139.168 1.91458C139.168 1.80195 139.318 1.80195 139.506 1.87704Z" fill="white"/>
<path d="M142.922 5.63122C143.147 5.74385 143.26 5.89401 143.222 6.04418C143.185 6.15681 142.997 6.15681 142.772 6.04418C142.546 5.93155 142.434 5.78139 142.434 5.63122C142.509 5.5186 142.697 5.5186 142.922 5.63122Z" fill="white"/>
<path d="M127.68 11.3376C127.943 11.4127 128.055 11.6004 127.943 11.7506C127.83 11.9007 127.567 11.9383 127.305 11.8632C127.042 11.7881 126.929 11.6004 127.042 11.4502C127.192 11.3 127.455 11.2625 127.68 11.3376Z" fill="white"/>
<path d="M125.465 10.7369C125.69 10.8119 125.803 10.9621 125.728 11.0747C125.615 11.2249 125.353 11.2624 125.127 11.2249C124.902 11.1498 124.789 10.9996 124.864 10.887C124.977 10.7369 125.24 10.6618 125.465 10.7369Z" fill="white"/>
<path d="M144.386 9.91104C144.311 10.1738 144.536 10.5117 144.912 10.7745C144.461 10.6243 144.086 10.6994 143.973 10.9998C143.898 11.2625 144.086 11.6004 144.386 11.8632C144.011 11.7881 143.71 11.9008 143.598 12.1635C143.523 12.4639 143.748 12.8768 144.198 13.1772C143.71 13.027 143.335 13.1396 143.222 13.4775C143.147 13.7403 143.297 14.1157 143.598 14.3785C143.222 14.341 142.922 14.4536 142.809 14.7539C142.734 15.0918 142.922 15.4672 143.297 15.7676C142.847 15.6925 142.509 15.8427 142.396 16.1805C142.284 16.631 142.659 17.2317 143.26 17.532C143.785 17.7573 144.236 17.7198 144.461 17.457C144.536 17.8699 144.874 18.2829 145.362 18.5457C145.775 18.7334 146.188 18.7334 146.413 18.5457C146.526 18.9211 146.864 19.259 147.277 19.4842C147.69 19.6719 148.065 19.6719 148.29 19.4842C148.441 19.8596 148.741 20.1975 149.154 20.4228C149.567 20.648 149.942 20.6105 150.168 20.4228C150.318 20.7982 150.618 21.1736 151.031 21.3989C151.632 21.6992 152.082 21.549 152.157 21.061C152.195 20.6856 151.97 20.2726 151.594 19.9347C151.97 20.0098 152.27 19.8596 152.307 19.5218C152.345 19.2214 152.157 18.846 151.819 18.5457C152.157 18.5832 152.383 18.4331 152.42 18.1327C152.458 17.7573 152.157 17.3443 151.744 17.044C152.195 17.1942 152.495 17.0815 152.533 16.7437C152.533 16.4433 152.345 16.1054 152.007 15.8051C152.345 15.8802 152.57 15.7676 152.608 15.5048C152.608 15.2044 152.345 14.7915 151.932 14.4911C152.307 14.6413 152.57 14.5287 152.608 14.2659C152.608 13.9656 152.307 13.5526 151.857 13.2898C151.482 13.1021 151.144 13.1021 151.031 13.2898C150.956 12.9895 150.693 12.6516 150.28 12.4639C149.905 12.2762 149.567 12.2762 149.454 12.4263C149.379 12.126 149.079 11.7506 148.666 11.5253C148.253 11.3001 147.878 11.3001 147.69 11.5253C147.615 11.2625 147.352 10.9247 146.976 10.737C146.526 10.5117 146.113 10.5117 146.038 10.812C146.113 10.5117 145.775 10.1363 145.287 9.8735C144.912 9.57316 144.499 9.6107 144.386 9.91104ZM150.468 18.7709C150.693 18.8836 150.843 19.1088 150.843 19.2965C150.806 19.4842 150.618 19.5218 150.393 19.4091C150.168 19.2965 150.017 19.0713 150.017 18.8836C150.055 18.6958 150.243 18.6583 150.468 18.7709ZM148.666 17.9075C148.854 18.0201 149.004 18.2078 149.004 18.358C148.966 18.5081 148.779 18.5832 148.591 18.4706C148.366 18.358 148.253 18.1703 148.253 17.9825C148.253 17.8324 148.441 17.7948 148.666 17.9075ZM146.826 17.0065C147.052 17.1191 147.164 17.3068 147.127 17.457C147.089 17.6071 146.901 17.6447 146.676 17.5696C146.451 17.457 146.338 17.2692 146.376 17.1191C146.413 16.9314 146.601 16.8938 146.826 17.0065ZM145.174 16.4809C145.137 16.6686 144.912 16.7061 144.686 16.5935C144.461 16.4809 144.273 16.2556 144.349 16.0679C144.386 15.8802 144.611 15.8427 144.837 15.9553C145.062 16.1055 145.212 16.3307 145.174 16.4809ZM150.693 17.4945C150.881 17.6071 151.031 17.7948 151.031 17.945C150.993 18.0952 150.843 18.1327 150.656 18.0201C150.468 17.9075 150.318 17.7198 150.318 17.5696C150.318 17.4194 150.505 17.3819 150.693 17.4945ZM145.137 14.7164C145.362 14.829 145.475 15.0167 145.437 15.1669C145.4 15.3171 145.212 15.3546 144.987 15.242C144.762 15.1294 144.649 14.9417 144.686 14.7915C144.762 14.6413 144.949 14.6038 145.137 14.7164ZM150.843 16.143C151.031 16.2556 151.181 16.4433 151.144 16.5935C151.144 16.7437 150.956 16.7812 150.768 16.6686C150.581 16.556 150.43 16.3682 150.468 16.2181C150.505 16.1055 150.656 16.0679 150.843 16.143ZM145.475 13.44C145.663 13.5526 145.813 13.7403 145.775 13.8529C145.738 14.0031 145.55 14.0031 145.362 13.928C145.174 13.8154 145.024 13.6277 145.062 13.5151C145.062 13.3649 145.25 13.3274 145.475 13.44ZM150.993 14.9041C151.181 15.0167 151.331 15.1669 151.294 15.3171C151.256 15.4672 151.106 15.4672 150.918 15.3922C150.731 15.2795 150.581 15.1294 150.618 14.9792C150.656 14.829 150.806 14.7915 150.993 14.9041ZM145.775 12.2386C145.963 12.3513 146.113 12.5014 146.075 12.6516C146.038 12.8018 145.85 12.8018 145.663 12.7267C145.475 12.6141 145.325 12.4639 145.362 12.3137C145.4 12.1636 145.55 12.126 145.775 12.2386ZM151.069 13.5901C151.256 13.7028 151.406 13.8905 151.406 14.0406C151.406 14.1908 151.219 14.1908 151.031 14.1157C150.843 14.0031 150.693 13.8154 150.693 13.6652C150.693 13.5151 150.881 13.5151 151.069 13.5901ZM149.454 12.8018C149.642 12.9144 149.755 13.0646 149.755 13.1772C149.717 13.3273 149.567 13.3273 149.379 13.2147C149.191 13.1021 149.079 12.9519 149.079 12.8393C149.116 12.7267 149.267 12.6891 149.454 12.8018ZM147.84 11.9758C148.028 12.0885 148.14 12.2386 148.14 12.3513C148.103 12.4639 147.953 12.5014 147.765 12.3888C147.577 12.2762 147.465 12.126 147.465 12.0134C147.502 11.8632 147.652 11.8632 147.84 11.9758ZM146.038 11.0373C146.263 11.1499 146.376 11.3376 146.376 11.4503C146.338 11.6004 146.151 11.6004 145.925 11.4878C145.7 11.3752 145.587 11.1875 145.587 11.0373C145.663 10.9622 145.85 10.9247 146.038 11.0373Z" fill="white"/>
<defs>
<radialGradient id="paint0_radial_74_11291" cx="0" cy="0" r="1" gradientUnits="userSpaceOnUse" gradientTransform="translate(101.187 58.6481) rotate(-41.2767) scale(88.882 88.882)">
<stop stop-color="#7FBF3F"/>
<stop offset="0.29" stop-color="#7FBF3F"/>
<stop offset="0.44" stop-color="#5FB744"/>
<stop offset="0.4803" stop-color="#4BB045"/>
<stop offset="0.5704" stop-color="#22A347"/>
<stop offset="0.6417" stop-color="#099B48"/>
<stop offset="0.685" stop-color="#009848"/>
<stop offset="0.6969" stop-color="#007688"/>
<stop offset="0.705" stop-color="#0062AF"/>
<stop offset="0.8778" stop-color="#009DDF"/>
<stop offset="0.9" stop-color="#00A5E6"/>
<stop offset="1" stop-color="#00ACEC"/>
</radialGradient>
</defs>
</svg>
