<svg width="92" height="59" viewBox="0 0 92 59" fill="none" xmlns="http://www.w3.org/2000/svg">
<path d="M46.9969 9.97424L47.3537 23.1054C47.3703 24.265 47.6104 25.411 48.0605 26.4773L48.2161 26.8458L46.0568 28.0952L43.8974 26.8458L44.0219 26.5717C44.5331 25.4447 44.8065 24.2212 44.8243 22.9819L44.8499 10.0046V9.5529C42.5427 11.8506 41.0347 15.0168 40.679 18.1999C39.1521 15.7674 39.0676 12.5877 40.0311 9.87537C40.3434 8.99561 40.7557 8.16192 41.2436 7.37317C38.6042 8.2945 36.1848 9.86862 34.3078 11.9607C34.2511 9.06414 35.8337 6.29229 38.0719 4.48221C38.3753 4.23727 38.6909 4.01031 39.0143 3.79683C36.9817 3.56987 34.9102 3.71144 32.9331 4.24401C34.4412 1.77777 37.2573 0.317121 40.1089 0.023868C42.1138 -0.181746 44.1308 0.991265 46.0579 1.6171C47.9849 0.991265 50.002 -0.181746 52.0068 0.023868C54.8585 0.317121 57.6746 1.77664 59.1815 4.24177C57.1478 3.69346 55.0129 3.56313 52.9225 3.81818C53.2326 4.02492 53.5349 4.24401 53.8271 4.47996C56.0654 6.29004 57.6479 9.0619 57.5912 11.9585C55.7075 9.85851 53.277 8.27989 50.6254 7.36081C51.1155 8.15293 51.5311 8.99111 51.8445 9.87424C52.8081 12.591 52.7225 15.7753 51.1911 18.2089C50.8177 14.973 49.3685 11.8405 46.998 9.53942" fill="#006A5B"/>
<path d="M54.0172 36.0299L51.5323 33.9704C39.8444 23.8919 30.4126 25.7402 27.082 26.8964C26.8264 26.9851 26.8875 27.3683 27.1587 27.3638C30.6282 27.3098 40.1878 27.9671 50.0931 35.7456L51.4434 36.8647L54.2428 39.1074C55.0263 39.7152 56.1876 39.4804 56.661 38.5456C56.95 37.9737 56.8666 37.2512 56.451 36.7658C56.0843 36.3366 55.5753 36.1546 55.0863 36.1962C54.8685 36.2153 54.6551 36.2782 54.4595 36.3838L54.0161 36.0299H54.0172Z" fill="#006A5B"/>
<path d="M38.0974 36.0299L40.5823 33.9704C52.2701 23.8919 61.702 25.7402 65.0326 26.8964C65.2882 26.9851 65.2271 27.3683 64.9559 27.3638C61.4864 27.3098 51.9267 27.9671 42.0215 35.7456L40.6712 36.8647L37.8718 39.1074C37.0883 39.7152 35.927 39.4804 35.4536 38.5456C35.1646 37.9737 35.248 37.2512 35.6636 36.7658C36.0303 36.3366 36.5393 36.1546 37.0283 36.1962C37.2461 36.2153 37.4595 36.2782 37.6551 36.3838L38.0985 36.0299H38.0974Z" fill="#006A5B"/>
<path d="M1.81924 47.9172C1.81924 47.9172 3.54291 49.6037 3.24063 50.1812C3.18173 50.2947 2.8361 50.3026 2.45936 50.2947H0.905731C0.633456 50.2947 0 50.2116 0 49.4667C0.0811268 48.4251 1.81924 47.9172 1.81924 47.9172ZM1.39916 46.96C1.39916 47.188 1.22246 47.3779 0.994637 47.3779C0.766815 47.3779 0.596782 47.188 0.596782 46.96C0.596782 46.7319 0.772371 46.542 0.994637 46.542C1.2169 46.542 1.39916 46.7319 1.39916 46.96ZM1.55363 49.3004C1.55363 49.1026 1.39916 48.9442 1.20801 48.9442C1.01686 48.9442 0.861278 49.1037 0.861278 49.3004C0.861278 49.497 1.01575 49.6577 1.20801 49.6577C1.40027 49.6577 1.55363 49.4981 1.55363 49.3004ZM2.43714 46.96C2.43714 47.188 2.25377 47.3779 2.03262 47.3779C1.81146 47.3779 1.62698 47.188 1.62698 46.96C1.62698 46.7319 1.81035 46.542 2.03262 46.542C2.25488 46.542 2.43714 46.7319 2.43714 46.96Z" fill="#6F7271"/>
<path d="M4.91547 48.5026L5.71118 48.1599V50.3486C5.69674 51.0026 5.33555 51.4879 4.77545 51.4879H3.53076L3.94306 50.7059H4.69432C4.98215 50.7059 4.99549 50.3408 4.99549 50.3329C4.99549 50.2194 4.92214 48.5015 4.91436 48.5015L4.91547 48.5026Z" fill="#6F7271"/>
<path d="M7.99592 47.9858C7.99592 47.9858 9.57178 49.5206 9.57178 50.1824C9.57178 50.2049 9.56511 50.2274 9.56511 50.251C9.42509 50.9734 8.97611 51.4745 8.3571 51.4745H6.04443L6.45785 50.6914H8.5338C8.72606 50.6914 8.80608 50.4487 8.80608 50.342C8.80608 50.3195 8.80608 50.297 8.79163 50.297H7.238C6.96572 50.297 6.33227 50.2139 6.33227 49.469C6.41339 48.4274 7.99703 47.9881 7.99703 47.9881L7.99592 47.9858ZM7.88479 49.3004C7.88479 49.1027 7.73031 48.9442 7.53917 48.9442C7.34802 48.9442 7.19243 49.1038 7.19243 49.3004C7.19243 49.497 7.34691 49.6577 7.53917 49.6577C7.73143 49.6577 7.88479 49.4982 7.88479 49.3004Z" fill="#6F7271"/>
<path d="M11.8213 49.5138V50.2958H9.61084V49.5138H10.7166L10.6644 48.5948L11.4456 48.1307V49.5138H11.8213ZM10.79 47.3397C10.79 47.5678 10.6133 47.7577 10.3854 47.7577C10.1576 47.7577 9.98758 47.5678 9.98758 47.3397C9.98758 47.1116 10.1632 46.9218 10.3854 46.9218C10.6077 46.9218 10.79 47.1116 10.79 47.3397Z" fill="#6F7271"/>
<path d="M15.5496 50.2958H14.5772C14.2971 50.4251 13.8781 50.4633 13.4581 50.4633C13.0169 50.4633 12.5746 50.4026 12.3167 50.2958H11.551V49.5138H12.1178C12.1989 49.1487 12.4712 48.1004 13.517 48.0768C14.136 48.0768 14.7172 48.7835 14.8806 49.4981H15.5507V50.2958H15.5496ZM13.6859 49.315C13.6859 49.1172 13.5314 48.9588 13.3391 48.9588C13.1469 48.9588 12.9935 49.1183 12.9935 49.315C12.9935 49.5116 13.148 49.6801 13.3391 49.6801C13.5303 49.6801 13.6859 49.5127 13.6859 49.315Z" fill="#6F7271"/>
<path d="M16.5609 45.66V50.2959H14.8083V49.5139H15.8174L15.7808 46.0106L16.562 45.66H16.5609Z" fill="#6F7271"/>
<path d="M0 57.6429L1.37804 54.2655C1.51807 54.2385 1.76034 54.2385 1.9137 54.2655L3.26063 57.6294C3.15283 57.7014 2.83277 57.7542 2.69274 57.7351L2.34823 56.8328H0.88017L0.530102 57.7351C0.383407 57.7542 0.10891 57.7148 0 57.6429ZM1.07243 56.3452H2.16375L1.62698 54.9228L1.07243 56.3452Z" fill="#6F7271"/>
<path d="M3.55078 54.088C3.68414 53.9959 3.88862 53.9296 4.11867 53.9296L4.10533 57.6947C3.98975 57.7475 3.78638 57.7407 3.65858 57.7272C3.65858 57.7272 3.59412 54.6453 3.55078 54.0869V54.088Z" fill="#6F7271"/>
<path d="M6.09775 57.7227C6.09775 57.7227 6.09775 55.6947 6.0144 54.4497C6.15554 54.3509 6.34002 54.279 6.59563 54.2722L7.74363 55.952L8.78383 54.4509C8.9183 54.352 9.10945 54.2801 9.35838 54.2733V57.6969C9.21836 57.7429 9.03277 57.7497 8.86718 57.7238C8.86718 57.7238 8.86162 56.3677 8.82272 55.1891L7.89143 56.5385C7.84031 56.5711 7.63583 56.5711 7.58471 56.5385L6.59563 55.0902L6.58896 57.6969C6.45449 57.7429 6.26334 57.7497 6.09775 57.7238V57.7227Z" fill="#6F7271"/>
<path d="M9.89868 57.0441C9.89868 56.5441 10.3265 56.2936 10.9522 56.2734C11.1178 56.2677 11.3023 56.2733 11.4945 56.2936V56.2014C11.4945 55.7734 11.1689 55.7206 10.85 55.7206C10.6199 55.7206 10.3076 55.8127 10.141 55.9116C10.0576 55.8588 9.93647 55.6217 9.93091 55.497C10.2054 55.3453 10.6133 55.2599 10.9644 55.2599C11.539 55.2599 12.0058 55.4644 12.0058 56.1689V57.6891C11.9613 57.7093 11.6168 57.7216 11.5523 57.7149C11.5457 57.6947 11.5334 57.5441 11.5268 57.5104C11.2978 57.6621 11.0934 57.7812 10.9144 57.7812C10.2954 57.7812 9.89979 57.5183 9.89979 57.043L9.89868 57.0441ZM11.5001 57.2745V56.6688C11.0722 56.6228 10.7088 56.6497 10.4788 56.7486C10.4466 56.8205 10.441 56.8936 10.441 56.9655C10.441 57.2745 10.7211 57.3464 11.0411 57.3464C11.1878 57.3464 11.3212 57.3329 11.5001 57.2745Z" fill="#6F7271"/>
<path d="M14.2329 57.4924C14.0095 57.6374 13.7539 57.7823 13.6083 57.7823C12.8237 57.7823 12.3569 57.2891 12.3569 56.57C12.3569 55.7801 12.8804 55.2599 13.6972 55.2599C13.8317 55.2599 14.0039 55.2666 14.1439 55.3059L14.0873 54.088C14.2217 53.9959 14.4318 53.9296 14.6618 53.9296V57.6947C14.6363 57.7081 14.3106 57.7216 14.2729 57.7149C14.254 57.689 14.2406 57.6093 14.234 57.4913L14.2329 57.4924ZM14.2206 57.1958L14.1628 55.8071C14.0284 55.7408 13.7861 55.7082 13.595 55.7082C13.3782 55.7082 13.1482 55.7677 13.0526 55.834C12.957 55.9722 12.8804 56.1565 12.8804 56.4261C12.8804 57.0183 13.2115 57.2947 13.7616 57.2947C13.9206 57.2947 14.0928 57.2553 14.2206 57.1958Z" fill="#6F7271"/>
<path d="M15.0906 54.3183C15.0906 54.3183 15.3073 54.0936 15.5951 53.9296C15.7674 54.1599 15.9585 54.4554 15.9585 54.4554L15.4606 54.8239L15.0906 54.3172V54.3183ZM15.2373 55.4172C15.3717 55.3385 15.614 55.2981 15.7863 55.3116L15.7929 57.6947C15.684 57.7475 15.4418 57.7407 15.3206 57.7272C15.3206 57.7272 15.2762 55.9767 15.2373 55.4161V55.4172Z" fill="#6F7271"/>
<path d="M18.0079 56.5172C18.0079 55.8588 17.7268 55.7464 17.3311 55.7464C17.1722 55.7464 17.0055 55.779 16.8777 55.8251L16.8844 57.6891C16.8077 57.7149 16.591 57.7419 16.3932 57.7149L16.342 55.4105C16.4576 55.3442 16.6677 55.2914 16.8077 55.3049C16.8077 55.3049 16.821 55.4105 16.8399 55.5419C17.0633 55.397 17.3067 55.2588 17.4334 55.2588C18.0646 55.2588 18.5113 55.5217 18.5113 56.2532V57.6812C18.4224 57.7217 18.2313 57.7475 18.0079 57.7138V56.5161V56.5172Z" fill="#6F7271"/>
<path d="M18.948 57.0441C18.948 56.5441 19.3759 56.2936 20.0015 56.2734C20.1671 56.2677 20.3516 56.2733 20.5428 56.2936V56.2014C20.5428 55.7734 20.2171 55.7206 19.8993 55.7206C19.6692 55.7206 19.357 55.8127 19.1903 55.9116C19.1069 55.8588 18.9858 55.6217 18.9802 55.497C19.2547 55.3453 19.6626 55.2599 20.0138 55.2599C20.5883 55.2599 21.054 55.4644 21.054 56.1689V57.6891C21.0095 57.7093 20.665 57.7216 20.6017 57.7149C20.5961 57.6947 20.5828 57.5441 20.5761 57.5104C20.3472 57.6621 20.1427 57.7812 19.9637 57.7812C19.3447 57.7812 18.9491 57.5183 18.9491 57.043L18.948 57.0441ZM20.5494 57.2745V56.6688C20.1216 56.6228 19.7582 56.6497 19.5281 56.7486C19.4959 56.8205 19.4903 56.8936 19.4903 56.9655C19.4903 57.2745 19.7704 57.3464 20.0904 57.3464C20.2371 57.3464 20.3705 57.3329 20.5494 57.2745Z" fill="#6F7271"/>
<path d="M21.5664 54.088C21.6998 53.9959 21.9042 53.9296 22.1343 53.9296L22.1287 55.4969C22.3332 55.3711 22.5622 55.2599 22.6777 55.2599C23.309 55.2599 23.7624 55.5228 23.7624 56.2542V57.6823C23.6668 57.7228 23.4812 57.7486 23.2578 57.7149L23.2523 56.5172C23.2523 55.8587 22.9711 55.7464 22.5822 55.7464C22.4232 55.7464 22.2632 55.779 22.1298 55.825L22.1232 57.6947C22.0076 57.7475 21.8042 57.7407 21.6764 57.7272C21.6764 57.7272 21.6253 55.1138 21.5686 54.0869L21.5664 54.088Z" fill="#6F7271"/>
<path d="M26.6362 56.2868H26.1839V57.7025C26.0495 57.7553 25.8516 57.7621 25.6861 57.7351C25.6861 57.7351 25.6794 55.6149 25.6094 54.4104C25.7816 54.3183 26.3428 54.2655 26.694 54.2655C27.5942 54.2655 28.0021 54.6071 28.0021 55.2666C28.0021 55.7801 27.7653 56.1351 27.1786 56.2475L28.2577 57.6823C28.1743 57.7486 27.7342 57.7677 27.6187 57.7351L26.6362 56.2857V56.2868ZM26.1839 55.8329H26.7196C26.9685 55.8329 27.1408 55.8329 27.2619 55.7733C27.3575 55.6745 27.4475 55.543 27.4475 55.2857C27.4475 54.8576 27.1475 54.7453 26.6951 54.7453C26.5418 54.7453 26.2673 54.7655 26.185 54.7779V55.8318L26.1839 55.8329Z" fill="#6F7271"/>
<path d="M28.342 56.5565C28.342 55.7925 28.821 55.2588 29.599 55.2588C30.2624 55.2588 30.7225 55.752 30.6325 56.6026H28.8332C28.891 57.0498 29.1844 57.288 29.6823 57.288C29.919 57.288 30.1991 57.2284 30.4035 57.1161C30.4936 57.2014 30.5825 57.4385 30.5891 57.5778C30.2769 57.7363 29.8879 57.7823 29.6378 57.7823C28.7577 57.7823 28.342 57.2295 28.342 56.5576V56.5565ZM28.8277 56.2206H30.1424C30.1291 55.8251 29.8234 55.6475 29.4723 55.6475C29.2867 55.6475 29.1266 55.688 29.0055 55.7397C28.9355 55.8386 28.8588 55.9902 28.8277 56.2206Z" fill="#6F7271"/>
<path d="M31.0427 58.7429C31.0427 58.5924 31.1071 58.3216 31.196 58.2362C31.445 58.3946 31.7572 58.4868 32.0829 58.4868C32.274 58.4868 32.5296 58.4609 32.7074 58.3621C32.7652 58.2564 32.803 58.0654 32.803 57.7104V57.4666C32.5796 57.6115 32.3374 57.7564 32.1907 57.7564C31.425 57.7564 30.9526 57.2902 30.9526 56.5385C30.9526 55.7868 31.4705 55.261 32.2873 55.261C32.6763 55.261 33.0141 55.3205 33.2953 55.4262L33.282 57.7564C33.2764 58.6991 32.7908 58.9609 32.0762 58.9609C31.7317 58.9609 31.266 58.8823 31.0427 58.7441V58.7429ZM32.8041 57.1756V55.8194C32.6452 55.7475 32.4018 55.707 32.1973 55.707C31.9739 55.707 31.7506 55.7666 31.6483 55.8329C31.565 55.9441 31.4761 56.1419 31.4761 56.4183C31.4761 57.0048 31.8084 57.261 32.3574 57.261C32.5107 57.261 32.6763 57.2284 32.8041 57.1756Z" fill="#6F7271"/>
<path d="M33.6943 54.3183C33.6943 54.3183 33.911 54.0936 34.1989 53.9296C34.3711 54.1599 34.5623 54.4554 34.5623 54.4554L34.0644 54.8239L33.6943 54.3172V54.3183ZM33.841 55.4172C33.9755 55.3385 34.2178 55.2981 34.39 55.3116L34.3956 57.6947C34.2878 57.7475 34.0455 57.7407 33.9244 57.7272C33.9244 57.7272 33.8799 55.9767 33.841 55.4161V55.4172Z" fill="#6F7271"/>
<path d="M34.7922 56.5239C34.7922 55.7868 35.2134 55.2599 35.9858 55.2599C36.7582 55.2599 37.1727 55.7868 37.1727 56.5239C37.1727 57.261 36.7515 57.7823 35.9858 57.7823C35.2201 57.7823 34.7922 57.2621 34.7922 56.5239ZM36.4003 57.2879C36.5604 57.1565 36.6437 56.8666 36.6437 56.5172C36.6437 55.9902 36.3625 55.6936 35.9613 55.6936C35.8269 55.6936 35.6857 55.7003 35.5646 55.7397C35.4112 55.8711 35.3223 56.1745 35.3223 56.5172C35.3223 57.043 35.6024 57.3396 36.018 57.3396C36.1392 57.3396 36.2792 57.3329 36.4003 57.2868V57.2879Z" fill="#6F7271"/>
<path d="M39.2364 56.5172C39.2364 55.8588 38.9553 55.7464 38.5596 55.7464C38.4007 55.7464 38.234 55.779 38.1062 55.8251L38.1129 57.6891C38.0362 57.7149 37.8195 57.7419 37.6217 57.7149L37.5706 55.4105C37.6861 55.3442 37.8962 55.2914 38.0362 55.3049C38.0362 55.3049 38.0495 55.4105 38.0684 55.5419C38.2918 55.397 38.5352 55.2588 38.6619 55.2588C39.2931 55.2588 39.7399 55.5217 39.7399 56.2532V57.6812C39.651 57.7217 39.4598 57.7475 39.2364 57.7138V56.5161V56.5172Z" fill="#6F7271"/>
<path d="M41.6714 57.7026C41.6714 57.7026 41.6647 55.6476 41.5947 54.4038C41.6836 54.3386 41.9459 54.2791 42.4371 54.2791H42.8261C44.0063 54.2791 44.4908 55.0363 44.4908 56.0105C44.4908 56.9846 43.9874 57.7026 42.845 57.7026H41.6703H41.6714ZM42.1626 57.2217H42.8461C43.0883 57.2217 43.4462 57.1891 43.5984 57.0902C43.784 56.8992 43.9296 56.5037 43.9296 56.0105C43.9296 55.333 43.6107 54.7599 42.8194 54.7599H42.1682L42.1615 57.2217H42.1626Z" fill="#6F7271"/>
<path d="M44.8186 56.5565C44.8186 55.7925 45.2976 55.2588 46.0755 55.2588C46.739 55.2588 47.1991 55.752 47.109 56.6026H45.3098C45.3676 57.0498 45.661 57.288 46.1589 57.288C46.3956 57.288 46.6756 57.2284 46.8801 57.1161C46.9701 57.2014 47.059 57.4385 47.0657 57.5778C46.7534 57.7363 46.3645 57.7823 46.1144 57.7823C45.2342 57.7823 44.8186 57.2295 44.8186 56.5576V56.5565ZM45.3043 56.2206H46.6189C46.6056 55.8251 46.3 55.6475 45.9488 55.6475C45.7632 55.6475 45.6032 55.688 45.4821 55.7397C45.4121 55.8386 45.3354 55.9902 45.3043 56.2206Z" fill="#6F7271"/>
<path d="M47.1692 55.4116C47.2336 55.3318 47.5904 55.2857 47.706 55.2992L48.4139 57.0969L49.1674 55.2992C49.2818 55.2857 49.563 55.3262 49.6263 55.3981L48.6439 57.6958C48.555 57.716 48.2227 57.716 48.1338 57.6958L47.1703 55.4116H47.1692Z" fill="#6F7271"/>
<path d="M49.7041 56.5565C49.7041 55.7925 50.1831 55.2588 50.961 55.2588C51.6245 55.2588 52.0846 55.752 51.9945 56.6026H50.1953C50.2531 57.0498 50.5465 57.288 51.0444 57.288C51.2811 57.288 51.5611 57.2284 51.7656 57.1161C51.8556 57.2014 51.9445 57.4385 51.9512 57.5778C51.6389 57.7363 51.25 57.7823 50.9999 57.7823C50.1197 57.7823 49.7041 57.2295 49.7041 56.5576V56.5565ZM50.1898 56.2206H51.5045C51.4911 55.8251 51.1855 55.6475 50.8343 55.6475C50.6487 55.6475 50.4887 55.688 50.3676 55.7397C50.2975 55.8386 50.2209 55.9902 50.1898 56.2206Z" fill="#6F7271"/>
<path d="M52.4189 54.088C52.5534 53.9959 52.7568 53.9296 52.9868 53.9296L52.9735 57.6947C52.859 57.7475 52.6545 57.7407 52.5267 57.7272C52.5267 57.7272 52.4623 54.6453 52.4189 54.0869V54.088Z" fill="#6F7271"/>
<path d="M53.3958 56.5239C53.3958 55.7868 53.8169 55.2599 54.5893 55.2599C55.3617 55.2599 55.7762 55.7868 55.7762 56.5239C55.7762 57.261 55.355 57.7823 54.5893 57.7823C53.8236 57.7823 53.3958 57.2621 53.3958 56.5239ZM55.0038 57.2879C55.1639 57.1565 55.2472 56.8666 55.2472 56.5172C55.2472 55.9902 54.9661 55.6936 54.5638 55.6936C54.4304 55.6936 54.2893 55.7003 54.1681 55.7397C54.0148 55.8711 53.9259 56.1745 53.9259 56.5172C53.9259 57.043 54.207 57.3396 54.6215 57.3396C54.7427 57.3396 54.8827 57.3329 55.0038 57.2868V57.2879Z" fill="#6F7271"/>
<path d="M56.1875 55.4116C56.2831 55.3397 56.4942 55.2857 56.6209 55.306C56.6209 55.306 56.6398 55.4374 56.6531 55.5228C56.8632 55.3913 57.0999 55.2599 57.2399 55.2599C58.0256 55.2599 58.4913 55.7531 58.4913 56.4722C58.4913 57.2554 57.9745 57.7823 57.151 57.7823C57.011 57.7823 56.8254 57.7688 56.6854 57.7228C56.6909 58.2553 56.6987 58.7239 56.7176 58.8946C56.5776 58.9744 56.4231 59.0003 56.1942 59.0003L56.1886 55.4116H56.1875ZM56.6665 55.8329C56.6665 56.1419 56.672 56.6891 56.6798 57.2351C56.8132 57.3014 57.0566 57.3273 57.2533 57.3273C57.47 57.3273 57.7 57.2677 57.7956 57.2082C57.8912 57.0632 57.9678 56.8857 57.9678 56.6093C57.9678 56.0239 57.6367 55.7475 57.0877 55.7475C56.941 55.7475 56.7876 55.7868 56.6665 55.8329Z" fill="#6F7271"/>
<path d="M60.4272 56.4644C60.4272 55.8329 60.2416 55.7475 59.8848 55.7475C59.7259 55.7475 59.5592 55.7801 59.4314 55.8262L59.4381 57.6902C59.3614 57.716 59.1447 57.743 58.9469 57.716C58.9469 57.716 58.9146 55.879 58.8958 55.4116C59.0113 55.3453 59.2214 55.2925 59.3614 55.306C59.3614 55.306 59.3681 55.4048 59.387 55.5228C59.6159 55.3711 59.8459 55.2599 60.006 55.2599C60.3438 55.2599 60.6128 55.352 60.7717 55.5756C61.0273 55.3981 61.314 55.2599 61.4929 55.2599C62.0608 55.2599 62.4242 55.5104 62.4242 56.2408L62.4186 57.6823C62.3297 57.7228 62.1442 57.7486 61.9141 57.7149V56.4576C61.9141 55.8318 61.7285 55.7464 61.3718 55.7464C61.2184 55.7464 61.0339 55.7913 60.8928 55.8509C60.9184 55.9632 60.9373 56.088 60.9373 56.2396L60.9306 57.6812C60.8417 57.7216 60.6561 57.7475 60.4327 57.7138L60.4272 56.4632V56.4644Z" fill="#6F7271"/>
<path d="M62.7776 56.5565C62.7776 55.7925 63.2566 55.2588 64.0345 55.2588C64.698 55.2588 65.158 55.752 65.068 56.6026H63.2688C63.3255 57.0498 63.62 57.288 64.1178 57.288C64.3546 57.288 64.6346 57.2284 64.8391 57.1161C64.9291 57.2014 65.018 57.4385 65.0247 57.5778C64.7124 57.7363 64.3234 57.7823 64.0734 57.7823C63.1932 57.7823 62.7776 57.2295 62.7776 56.5576V56.5565ZM63.2632 56.2206H64.5779C64.5646 55.8251 64.259 55.6475 63.9078 55.6475C63.7222 55.6475 63.5622 55.688 63.441 55.7397C63.371 55.8386 63.2944 55.9902 63.2632 56.2206Z" fill="#6F7271"/>
<path d="M67.1451 56.5172C67.1451 55.8588 66.864 55.7464 66.4683 55.7464C66.3094 55.7464 66.1427 55.779 66.0149 55.8251L66.0216 57.6891C65.9449 57.7149 65.7271 57.7419 65.5304 57.7149L65.4792 55.4105C65.5948 55.3442 65.8049 55.2914 65.9449 55.3049C65.9449 55.3049 65.9582 55.4105 65.9771 55.5419C66.2005 55.397 66.4428 55.2588 66.5706 55.2588C67.2018 55.2588 67.6486 55.5217 67.6486 56.2532V57.6812C67.5596 57.7217 67.3685 57.7475 67.1451 57.7138V56.5161V56.5172Z" fill="#6F7271"/>
<path d="M67.8875 55.3453H68.4364L68.4242 54.6217C68.532 54.5228 68.7743 54.4509 68.9543 54.4767L68.9354 55.3453H69.8345C69.8667 55.4509 69.8601 55.707 69.8223 55.7868H68.9288L68.9154 56.6228C68.9099 57.0699 69.0499 57.2216 69.3366 57.2216H69.7956C69.8334 57.3205 69.8212 57.6227 69.79 57.7025H69.3366C68.6476 57.7025 68.4876 57.2947 68.4687 56.7407L68.4498 55.7857H67.8886C67.8441 55.6936 67.8441 55.4295 67.8886 55.3441L67.8875 55.3453Z" fill="#6F7271"/>
<path d="M71.3038 57.6429L72.6819 54.2655C72.8219 54.2385 73.0642 54.2385 73.2176 54.2655L74.5645 57.6294C74.4567 57.7014 74.1366 57.7542 73.9966 57.7351L73.6521 56.8328H72.184L71.8328 57.7351C71.6861 57.7542 71.4116 57.7148 71.3027 57.6429H71.3038ZM72.3763 56.3452H73.4676L72.9308 54.9228L72.3763 56.3452Z" fill="#6F7271"/>
<path d="M76.4048 57.5183C76.1748 57.6688 75.9458 57.7812 75.8047 57.7812C75.1601 57.7812 74.7956 57.498 74.7956 56.7733L74.79 55.3778C74.8789 55.3385 75.0768 55.3116 75.3001 55.3453L75.2946 56.5632C75.2946 57.1756 75.4924 57.2947 75.9136 57.2947C76.067 57.2947 76.2259 57.2688 76.3603 57.216L76.3226 55.3992C76.4181 55.3531 76.6415 55.3127 76.846 55.3396L76.8649 57.6565C76.7693 57.7093 76.5648 57.7418 76.437 57.7284C76.437 57.7284 76.4237 57.6362 76.4048 57.5183Z" fill="#6F7271"/>
<path d="M77.1604 55.3453H77.7094L77.6972 54.6217C77.805 54.5228 78.0472 54.4509 78.2273 54.4767L78.2084 55.3453H79.1074C79.1397 55.4509 79.133 55.707 79.0952 55.7868H78.2017L78.1884 56.6228C78.1828 57.0699 78.3228 57.2216 78.6096 57.2216H79.0685C79.1063 57.3205 79.0941 57.6227 79.063 57.7025H78.6096C77.9205 57.7025 77.7605 57.2947 77.7416 56.7407L77.7227 55.7857H77.1615C77.1171 55.6936 77.1171 55.4295 77.1615 55.3441L77.1604 55.3453Z" fill="#6F7271"/>
<path d="M79.5554 54.088C79.6888 53.9959 79.8933 53.9296 80.1233 53.9296L80.1178 55.4969C80.3222 55.3711 80.5512 55.2599 80.6667 55.2599C81.298 55.2599 81.7514 55.5228 81.7514 56.2542V57.6823C81.6558 57.7228 81.4702 57.7486 81.2469 57.7149L81.2413 56.5172C81.2413 55.8587 80.9601 55.7464 80.5712 55.7464C80.4123 55.7464 80.2522 55.779 80.1189 55.825L80.1122 57.6947C79.9966 57.7475 79.7932 57.7407 79.6654 57.7272C79.6654 57.7272 79.6143 55.1138 79.5576 54.0869L79.5554 54.088Z" fill="#6F7271"/>
<path d="M82.0969 56.5239C82.0969 55.7868 82.5181 55.2599 83.2905 55.2599C84.0629 55.2599 84.4774 55.7868 84.4774 56.5239C84.4774 57.261 84.0562 57.7823 83.2905 57.7823C82.5248 57.7823 82.0969 57.2621 82.0969 56.5239ZM83.705 57.2879C83.865 57.1565 83.9484 56.8666 83.9484 56.5172C83.9484 55.9902 83.6672 55.6936 83.266 55.6936C83.1316 55.6936 82.9904 55.7003 82.8693 55.7397C82.7159 55.8711 82.627 56.1745 82.627 56.5172C82.627 57.043 82.9071 57.3396 83.3227 57.3396C83.4439 57.3396 83.5839 57.3329 83.705 57.2868V57.2879Z" fill="#6F7271"/>
<path d="M84.8743 55.4115C84.9898 55.3452 85.1999 55.2924 85.3399 55.3059C85.3399 55.3059 85.3466 55.4048 85.3655 55.5306C85.4422 55.4711 85.5244 55.4183 85.6077 55.3722C85.7422 55.307 85.8889 55.2733 86.0545 55.2733C86.1312 55.2733 86.1823 55.2733 86.3612 55.2801C86.4001 55.3845 86.3935 55.6418 86.3557 55.7733C86.1645 55.7598 85.9856 55.7598 85.8767 55.7598C85.7233 55.7598 85.5444 55.7991 85.4099 55.8452L85.4166 57.689C85.3399 57.7148 85.1221 57.7418 84.9254 57.7148C84.9254 57.7148 84.8932 55.8778 84.8743 55.4104V55.4115Z" fill="#6F7271"/>
<path d="M86.4399 54.3183C86.4399 54.3183 86.6566 54.0936 86.9445 53.9296C87.1167 54.1599 87.3079 54.4554 87.3079 54.4554L86.81 54.8239L86.4399 54.3172V54.3183ZM86.5866 55.4172C86.7211 55.3385 86.9634 55.2981 87.1356 55.3116L87.1423 57.6947C87.0334 57.7475 86.7911 57.7407 86.67 57.7272C86.67 57.7272 86.6255 55.9767 86.5866 55.4161V55.4172Z" fill="#6F7271"/>
<path d="M87.4236 55.3453H87.9726L87.9604 54.6217C88.0682 54.5228 88.3104 54.4509 88.4905 54.4767L88.4716 55.3453H89.3717C89.4029 55.4509 89.3973 55.707 89.3584 55.7868H88.4649L88.4527 56.6228C88.446 57.0699 88.586 57.2216 88.8728 57.2216H89.3317C89.3706 57.3205 89.3573 57.6227 89.3262 57.7025H88.8728C88.1837 57.7025 88.0237 57.2947 88.0048 56.7407L87.9859 55.7857H87.4247C87.3802 55.6936 87.3802 55.4295 87.4247 55.3441L87.4236 55.3453Z" fill="#6F7271"/>
<path d="M89.2251 58.625C89.793 58.4531 90.2397 58.1441 90.4509 57.7418L89.5252 55.4115C89.5829 55.3396 89.9275 55.2857 90.043 55.2992L90.7898 57.2744C90.9299 57.0048 91.4533 55.616 91.5044 55.2992C91.6189 55.2857 91.8812 55.3262 91.9378 55.4048C91.9056 55.707 91.3377 57.1699 91.1977 57.4463C90.821 58.2621 90.2653 58.7632 89.723 58.9935C89.4618 58.9474 89.3018 58.7632 89.2251 58.625Z" fill="#6F7271"/>
<path d="M17.2543 49.1858L17.1943 46.0016L17.9834 45.6589V49.1926C17.9834 49.6409 18.2112 49.8465 18.3368 49.9521C18.2779 50.0206 18.0645 50.3251 17.9311 50.4532C17.2388 50.3319 17.2543 49.4735 17.2543 49.1847V49.1858Z" fill="#6F7271"/>
<path d="M22.9278 49.5139V50.2959H20.2395C19.945 50.197 19.7161 49.8172 19.7161 49.3464C19.7161 48.5779 20.2173 48.1532 21.0341 48.1532C21.2186 48.1532 21.4397 48.1835 21.682 48.2285L21.6598 47.788L22.4333 47.324V49.5127H22.9267L22.9278 49.5139ZM20.2684 46.7397C20.2684 46.5038 20.4529 46.3218 20.674 46.3218C20.8952 46.3218 21.0797 46.5038 21.0797 46.7397C21.0797 46.9757 20.8952 47.151 20.674 47.151C20.4529 47.151 20.2684 46.9678 20.2684 46.7397ZM21.7342 49.2172C21.7342 49.0127 21.572 48.8375 21.3653 48.8375C21.1586 48.8375 21.0052 49.0127 21.0052 49.2172C21.0052 49.4217 21.1675 49.5903 21.3653 49.5903C21.5631 49.5903 21.7342 49.4228 21.7342 49.2172ZM21.2997 46.7397C21.2997 46.5038 21.4831 46.3218 21.7042 46.3218C21.9254 46.3218 22.1099 46.5038 22.1099 46.7397C22.1099 46.9757 21.9265 47.151 21.7042 47.151C21.482 47.151 21.2997 46.9678 21.2997 46.7397Z" fill="#6F7271"/>
<path d="M24.896 49.5138V50.2958H22.6855V49.5138H23.7913L23.7391 48.5948L24.5203 48.1307V49.5138H24.896ZM23.8647 47.3397C23.8647 47.5678 23.688 47.7577 23.4601 47.7577C23.2323 47.7577 23.0623 47.5678 23.0623 47.3397C23.0623 47.1116 23.2401 46.9218 23.4601 46.9218C23.6802 46.9218 23.8647 47.1116 23.8647 47.3397Z" fill="#6F7271"/>
<path d="M27.0619 50.2959H24.5803V49.5139H26.3329L26.2818 48.5948L27.0619 48.1307V50.297V50.2959ZM25.7739 51.1925C25.7739 51.4206 25.5972 51.6104 25.3683 51.6104C25.1393 51.6104 24.9704 51.4206 24.9704 51.1925C24.9704 50.9644 25.1471 50.7734 25.3683 50.7734C25.5894 50.7734 25.7739 50.9633 25.7739 51.1925ZM26.813 51.1925C26.813 51.4206 26.6285 51.6104 26.4073 51.6104C26.1862 51.6104 26.0017 51.4206 26.0017 51.1925C26.0017 50.9644 26.1784 50.7734 26.4073 50.7734C26.6363 50.7734 26.813 50.9633 26.813 51.1925Z" fill="#6F7271"/>
<path d="M32.3606 49.5138H32.8607V50.2958H27.4985L27.9186 49.5138H31.5415C31.5049 49.4307 31.4171 49.0341 31.0637 49.0341H28.1687L28.5743 48.2588H31.1226C31.4826 48.2588 31.866 48.4262 32.0939 48.9509C32.1894 49.1644 32.2783 49.3464 32.3595 49.5138H32.3606Z" fill="#6F7271"/>
<path d="M36.4527 50.2958H35.4802C35.2002 50.4251 34.7812 50.4633 34.3611 50.4633C33.9199 50.4633 33.4776 50.4026 33.2198 50.2958H32.4541V49.5138H33.0209C33.102 49.1487 33.3743 48.1004 34.42 48.0768C35.039 48.0768 35.6203 48.7835 35.7836 49.4981H36.4538V50.2958H36.4527ZM34.589 49.315C34.589 49.1172 34.4345 48.9588 34.2422 48.9588C34.05 48.9588 33.8966 49.1183 33.8966 49.315C33.8966 49.5116 34.0511 49.6801 34.2422 49.6801C34.4334 49.6801 34.589 49.5127 34.589 49.315Z" fill="#6F7271"/>
<path d="M37.464 45.66V50.2959H35.7114V49.5139H36.7205L36.6838 46.0106L37.4651 45.66H37.464Z" fill="#6F7271"/>
<path d="M38.1574 49.1858L38.0974 46.0016L38.8865 45.6589V49.1926C38.8865 49.6409 39.1143 49.8465 39.2399 49.9521C39.181 50.0206 38.9676 50.3251 38.8342 50.4532C38.1419 50.3319 38.1574 49.4735 38.1574 49.1847V49.1858Z" fill="#6F7271"/>
<path d="M43.8306 49.5139V50.2959H41.1423C40.8478 50.197 40.6189 49.8172 40.6189 49.3464C40.6189 48.5779 41.1201 48.1532 41.9369 48.1532C42.1214 48.1532 42.3426 48.1835 42.5848 48.2285L42.5626 47.788L43.3361 47.324V49.5127H43.8295L43.8306 49.5139ZM41.1712 46.7397C41.1712 46.5038 41.3557 46.3218 41.5769 46.3218C41.798 46.3218 41.9825 46.5038 41.9825 46.7397C41.9825 46.9757 41.798 47.151 41.5769 47.151C41.3557 47.151 41.1712 46.9678 41.1712 46.7397ZM42.6371 49.2172C42.6371 49.0127 42.4748 48.8375 42.2681 48.8375C42.0614 48.8375 41.908 49.0127 41.908 49.2172C41.908 49.4217 42.0703 49.5903 42.2681 49.5903C42.4659 49.5903 42.6371 49.4228 42.6371 49.2172ZM42.2025 46.7397C42.2025 46.5038 42.3859 46.3218 42.6071 46.3218C42.8282 46.3218 43.0127 46.5038 43.0127 46.7397C43.0127 46.9757 42.8293 47.151 42.6071 47.151C42.3848 47.151 42.2025 46.9678 42.2025 46.7397Z" fill="#6F7271"/>
<path d="M47.9271 49.5139V50.2959H43.074V49.5139H46.2401C46.3513 49.506 46.4468 49.3622 46.4468 49.2555C46.4468 49.1869 46.4024 49.1262 46.3068 49.1262H44.8554C44.6487 49.1262 44.0531 48.9813 44.0531 48.3746C44.0531 47.8117 44.502 47.2802 44.9666 47.0364C45.2677 46.8768 45.7834 46.8544 45.7834 46.8544C45.7834 46.8544 47.2059 48.0027 47.2059 49.2555C47.2059 49.3386 47.1825 49.4375 47.1537 49.5139H47.9271ZM45.1144 46.0184C45.1144 46.2465 44.9377 46.4297 44.7087 46.4297C44.4798 46.4297 44.3109 46.2476 44.3109 46.0184C44.3109 45.7892 44.4876 45.6005 44.7087 45.6005C44.9299 45.6005 45.1144 45.7825 45.1144 46.0184ZM45.52 48.0701C45.52 47.8723 45.3655 47.706 45.1666 47.706C44.9677 47.706 44.8199 47.8735 44.8199 48.0701C44.8199 48.2667 44.9743 48.4263 45.1666 48.4263C45.3589 48.4263 45.52 48.2667 45.52 48.0701ZM46.1535 46.0184C46.1535 46.2465 45.969 46.4297 45.7478 46.4297C45.5267 46.4297 45.3433 46.2476 45.3433 46.0184C45.3433 45.7892 45.5267 45.6005 45.7478 45.6005C45.969 45.6005 46.1535 45.7825 46.1535 46.0184Z" fill="#6F7271"/>
<path d="M54.4405 50.2959H47.3047V49.5139H48.1371V46.0184L48.9183 45.6611V48.2532H52.8958L53.7493 49.515H54.4416V50.297L54.4405 50.2959ZM52.8058 49.5139L52.4668 49.0274H48.9172V49.5139H52.8058Z" fill="#6F7271"/>
<path d="M56.1552 49.5138V50.2958H53.9448V49.5138H55.0506L54.9984 48.5948L55.7796 48.1307V49.5138H56.1552ZM55.1239 47.3397C55.1239 47.5678 54.9472 47.7577 54.7194 47.7577C54.4916 47.7577 54.3216 47.5678 54.3216 47.3397C54.3216 47.1116 54.4994 46.9218 54.7194 46.9218C54.9395 46.9218 55.1239 47.1116 55.1239 47.3397Z" fill="#6F7271"/>
<path d="M59.2936 49.8554C59.2936 50.288 58.5868 50.4633 57.821 50.4633C57.3787 50.4633 56.9442 50.4026 56.6864 50.2958H55.854V49.5138H56.4875C56.5686 49.1487 56.8475 48.1004 57.8944 48.0768C58.4245 48.0768 58.9246 48.6015 59.168 49.2093C59.2347 49.3992 59.2936 49.6655 59.2936 49.8543V49.8554ZM58.0633 49.3161C58.0633 49.1183 57.9088 48.9599 57.7177 48.9599C57.5265 48.9599 57.3643 49.1195 57.3643 49.3161C57.3643 49.5127 57.5265 49.6812 57.7177 49.6812C57.9088 49.6812 58.0633 49.5138 58.0633 49.3161Z" fill="#6F7271"/>
<path d="M63.6123 49.5139V50.2959H62.8977V50.3409C62.8833 50.9948 62.5221 51.4734 61.962 51.4734H60.7173L61.1296 50.6982H61.8808C62.1687 50.6982 62.1831 50.3341 62.1831 50.3251C62.1831 50.1959 62.1164 48.4937 62.1098 48.4937L62.8977 48.1443V49.5128H63.6123V49.5139Z" fill="#6F7271"/>
<path d="M65.3971 50.2959H62.9155V49.5139H64.6681L64.617 48.5948L65.3971 48.1307V50.297V50.2959ZM64.1091 51.1925C64.1091 51.4206 63.9324 51.6104 63.7035 51.6104C63.4745 51.6104 63.3056 51.4206 63.3056 51.1925C63.3056 50.9644 63.4823 50.7734 63.7035 50.7734C63.9246 50.7734 64.1091 50.9633 64.1091 51.1925ZM65.1482 51.1925C65.1482 51.4206 64.9637 51.6104 64.7425 51.6104C64.5214 51.6104 64.3369 51.4206 64.3369 51.1925C64.3369 50.9644 64.5136 50.7734 64.7425 50.7734C64.9715 50.7734 65.1482 50.9633 65.1482 51.1925Z" fill="#6F7271"/>
<path d="M67.793 47.9858C67.793 47.9858 69.3689 49.5206 69.3689 50.1824C69.3689 50.2049 69.3622 50.2274 69.3622 50.251C69.2222 50.9734 68.7732 51.4745 68.1542 51.4745H65.8416L66.255 50.6914H68.3309C68.5232 50.6914 68.6032 50.4487 68.6032 50.342C68.6032 50.3195 68.6032 50.297 68.5887 50.297H67.0351C66.7628 50.297 66.1294 50.2139 66.1294 49.469C66.2105 48.4274 67.7942 47.9881 67.7942 47.9881L67.793 47.9858ZM67.6819 49.3004C67.6819 49.1027 67.5274 48.9442 67.3363 48.9442C67.1451 48.9442 66.9895 49.1038 66.9895 49.3004C66.9895 49.497 67.144 49.6577 67.3363 49.6577C67.5285 49.6577 67.6819 49.4982 67.6819 49.3004Z" fill="#6F7271"/>
<path d="M76.4793 50.2959H69.3435V49.5139H70.1759V46.0184L70.9572 45.6611V48.2532H74.9346L75.7881 49.515H76.4804V50.297L76.4793 50.2959ZM74.8446 49.5139L74.5056 49.0274H70.956V49.5139H74.8446Z" fill="#6F7271"/>
<path d="M78.3395 50.2958H75.8579V49.5138H77.6105L77.5593 48.5948L78.3395 48.1307V50.297V50.2958ZM77.3004 47.3397C77.3004 47.5678 77.1248 47.7577 76.8959 47.7577C76.667 47.7577 76.498 47.5678 76.498 47.3397C76.498 47.1116 76.6747 46.9218 76.8959 46.9218C77.117 46.9218 77.3004 47.1116 77.3004 47.3397ZM78.3395 47.3397C78.3395 47.5678 78.1561 47.7577 77.935 47.7577C77.7138 47.7577 77.5293 47.5678 77.5293 47.3397C77.5293 47.1116 77.7138 46.9218 77.935 46.9218C78.1561 46.9218 78.3395 47.1116 78.3395 47.3397Z" fill="#6F7271"/>
<path d="M83.1595 49.5139V50.2959H80.4712C80.1767 50.197 79.9478 49.8172 79.9478 49.3464C79.9478 48.5779 80.449 48.1532 81.2658 48.1532C81.4503 48.1532 81.6714 48.1835 81.9137 48.2285L81.8915 47.788L82.6649 47.324V49.5127H83.1584L83.1595 49.5139ZM80.5001 46.7397C80.5001 46.5038 80.6846 46.3218 80.9057 46.3218C81.1269 46.3218 81.3113 46.5038 81.3113 46.7397C81.3113 46.9757 81.1269 47.151 80.9057 47.151C80.6846 47.151 80.5001 46.9678 80.5001 46.7397ZM81.9659 49.2172C81.9659 49.0127 81.8037 48.8375 81.597 48.8375C81.3903 48.8375 81.2369 49.0127 81.2369 49.2172C81.2369 49.4217 81.3991 49.5903 81.597 49.5903C81.7948 49.5903 81.9659 49.4228 81.9659 49.2172ZM81.5314 46.7397C81.5314 46.5038 81.7148 46.3218 81.937 46.3218C82.1593 46.3218 82.3415 46.5038 82.3415 46.7397C82.3415 46.9757 82.1582 47.151 81.937 47.151C81.7159 47.151 81.5314 46.9678 81.5314 46.7397Z" fill="#6F7271"/>
<path d="M84.9731 49.5138H85.5621V50.2958H82.8516V49.5138H84.2729L84.2218 48.8453L84.9731 48.3891V49.5138ZM84.8842 48.1453H83.3894V47.7509H83.7584C83.7362 47.706 83.7062 47.5835 83.7062 47.5071C83.7062 47.097 84.0674 46.8835 84.2818 46.8835C84.4652 46.8835 84.6275 46.9364 84.6797 46.9757L84.5474 47.151C84.533 47.151 84.5252 47.1431 84.5108 47.1431C84.3485 47.1431 84.2163 47.2802 84.2163 47.4476C84.2163 47.615 84.3196 47.7588 84.5108 47.7588H84.8797L84.8864 48.1464L84.8842 48.1453Z" fill="#6F7271"/>
<path d="M87.9214 49.5139V50.2959H85.0708V49.5139H86.8167L86.7645 48.5948L87.5457 48.1307V49.5139H87.9214ZM86.2721 51.1936C86.2721 51.4217 86.0888 51.6116 85.8676 51.6116C85.6465 51.6116 85.462 51.4217 85.462 51.1936C85.462 50.9655 85.6454 50.7745 85.8676 50.7745C86.0899 50.7745 86.2721 50.9644 86.2721 51.1936ZM87.2957 51.1936C87.2957 51.4217 87.1123 51.6116 86.8912 51.6116C86.67 51.6116 86.4855 51.4217 86.4855 51.1936C86.4855 50.9655 86.67 50.7745 86.8912 50.7745C87.1123 50.7745 87.2957 50.9644 87.2957 51.1936Z" fill="#6F7271"/>
<path d="M91.9378 49.6802C92.1512 50.1734 91.7533 50.2959 91.7533 50.2959H87.3792V49.5139H88.3138C88.1148 49.4308 88.2627 48.9128 88.3138 48.7836C88.446 48.4645 88.7194 48.1836 89.0728 47.7274L88.9328 47.56L89.5285 46.9904C89.5285 46.9904 91.9067 49.6038 91.9367 49.6802H91.9378ZM89.5218 48.8443C89.5218 48.669 89.374 48.5173 89.1973 48.5173C89.0206 48.5173 88.8806 48.669 88.8806 48.8443C88.8806 49.0195 89.0284 49.1791 89.1973 49.1791C89.3662 49.1791 89.5218 49.0274 89.5218 48.8443ZM90.582 49.2162C90.582 49.0341 90.442 48.8903 90.2653 48.8903C90.0886 48.8903 89.9474 49.0341 89.9474 49.2162C89.9474 49.3982 90.0886 49.551 90.2653 49.551C90.442 49.551 90.582 49.3993 90.582 49.2162Z" fill="#6F7271"/>
</svg>
