<svg width="62" height="58" viewBox="0 0 62 58" fill="none" xmlns="http://www.w3.org/2000/svg">
<path d="M34.081 27.4504L34.069 27.1732C33.852 22.785 32.8996 18.9513 31.1636 15.4311L30.7778 14.6475L30.392 15.4311C28.6561 18.9392 27.7037 22.785 27.4867 27.1732L27.4746 27.4504C28.5476 27.6192 29.6446 27.7157 30.7778 27.7157C31.911 27.7157 33.0202 27.6192 34.081 27.4504Z" fill="#007167"/>
<path d="M19.5783 11.4407C21.1937 13.5384 23.5566 16.8175 25.3046 21.0249L25.823 22.2787L26.1244 20.9525C26.7995 17.9748 27.8604 15.2744 29.3553 12.7307L29.4879 12.5016L29.3312 12.2726C28.427 10.9344 27.4144 9.66856 26.1485 8.28217C25.2444 7.32978 24.2558 6.3774 23.2311 5.47323L22.9297 5.20801L22.6404 5.49734C21.1455 6.98017 19.952 8.53534 18.9755 10.2472L18.8308 10.5004L19.0237 10.7294C19.2045 10.9706 19.3854 11.2117 19.5783 11.4407Z" fill="#00958A"/>
<path d="M24.8948 26.8717L24.8586 26.7271C23.3758 20.5667 20.374 16.1182 18.2522 13.3093L17.782 12.6824L17.5048 13.4178C16.6609 15.636 16.0943 18.1556 15.8049 20.9284C17.987 23.665 21.1576 25.7747 24.8948 26.8717Z" fill="#007167"/>
<path d="M27.7398 6.79933C28.7645 7.92049 29.6566 8.98138 30.4281 10.0423L30.7778 10.5124L31.1274 10.0423C31.911 8.98138 32.779 7.93255 33.8157 6.81138C34.6837 5.90722 35.6241 4.99099 36.6006 4.12299L36.9864 3.77338L36.5765 3.45994C34.2136 1.63955 32.0436 0.566611 30.9706 0.0843889L30.7898 0L30.609 0.0843889C29.524 0.566611 27.366 1.65161 25.0031 3.45994L24.5933 3.77338L24.979 4.12299C25.9435 4.99099 26.8718 5.89516 27.7398 6.79933Z" fill="#6ABF4B"/>
<path d="M45.775 20.9284C45.4736 18.1556 44.907 15.6239 44.0631 13.4178L43.7859 12.6824L43.3157 13.3093C41.1939 16.1182 38.2041 20.5546 36.7093 26.7271L36.6731 26.8717C40.3983 25.7747 43.5809 23.665 45.775 20.9284Z" fill="#007167"/>
<path d="M35.407 8.30622C34.1532 9.66849 33.1165 10.9705 32.2244 12.2845L32.0676 12.5136L32.2002 12.7427C33.6951 15.2984 34.744 17.9868 35.4311 20.9645L35.7325 22.2906L36.2509 21.0369C37.999 16.8295 40.3498 13.5624 41.9652 11.4648C42.1581 11.2237 42.351 10.9946 42.5439 10.7535L42.7368 10.5244L42.5921 10.2713C41.6156 8.55938 40.4221 7.00422 38.9272 5.52139L38.6379 5.23206L38.3365 5.49728C37.2997 6.40144 36.3232 7.34177 35.407 8.30622Z" fill="#00958A"/>
<path d="M2.91744 56.444V53.6592L1.82039 56.444H1.44666L0.361666 53.6592V56.444H0V53.3578H0.638944L1.65161 55.9618L2.65222 53.3578H3.29116V56.444H2.91744Z" fill="#6F7271"/>
<path d="M5.425 56.4441C5.41295 56.3959 5.41295 56.3476 5.40089 56.2874C5.38884 56.2271 5.38884 56.1789 5.38884 56.1306C5.29239 56.2632 5.19595 56.3476 5.07539 56.4079C4.95484 56.4561 4.82223 56.4802 4.66551 56.4802C4.56906 56.4802 4.47262 56.4682 4.37617 56.4441C4.27973 56.42 4.20739 56.3838 4.13506 56.3235C4.06273 56.2753 4.01451 56.203 3.96628 56.1306C3.93012 56.0462 3.90601 55.9619 3.90601 55.8413C3.90601 55.6846 3.94217 55.552 4.02656 55.4555C4.11095 55.3591 4.20739 55.2867 4.32795 55.2385C4.44851 55.1903 4.58112 55.1541 4.72578 55.1421C4.87045 55.13 5.00306 55.118 5.13567 55.118C5.17184 55.118 5.20801 55.118 5.24417 55.118C5.28034 55.118 5.3165 55.118 5.34062 55.13V54.9974C5.34062 54.8286 5.30445 54.7081 5.23212 54.6116C5.15978 54.5152 5.03923 54.479 4.85839 54.479C4.72578 54.479 4.61728 54.5031 4.54495 54.5634C4.47262 54.6237 4.42439 54.7201 4.41234 54.8648H4.03862C4.03862 54.7442 4.07478 54.6478 4.12301 54.5755C4.17123 54.4911 4.23151 54.4308 4.30384 54.3826C4.37617 54.3344 4.46056 54.2982 4.55701 54.2741C4.65345 54.25 4.74989 54.2379 4.84634 54.2379C5.12362 54.2379 5.32856 54.2982 5.46117 54.4067C5.59378 54.5272 5.66612 54.7201 5.66612 55.0095V55.8051C5.66612 55.9498 5.67817 56.0824 5.69023 56.1909C5.70228 56.3115 5.72639 56.3838 5.73845 56.432H5.425V56.4441ZM5.35267 55.3591C5.30445 55.3591 5.26828 55.347 5.24417 55.347H5.15978C5.07539 55.347 4.97895 55.347 4.88251 55.3591C4.77401 55.3711 4.68962 55.3832 4.59317 55.4194C4.50878 55.4555 4.42439 55.5038 4.36412 55.564C4.30384 55.6243 4.27973 55.7087 4.27973 55.8292C4.27973 55.8895 4.29178 55.9498 4.31589 56.0101C4.34001 56.0583 4.37617 56.1065 4.42439 56.1427C4.47262 56.1789 4.52084 56.203 4.58112 56.215C4.64139 56.2271 4.70167 56.2391 4.76195 56.2391C4.89456 56.2391 5.00306 56.215 5.08745 56.1668C5.15978 56.1186 5.22006 56.0462 5.26828 55.9739C5.30445 55.8895 5.34062 55.7931 5.35267 55.6966C5.34062 55.5761 5.35267 55.4676 5.35267 55.3591Z" fill="#6F7271"/>
<path d="M7.90845 56.4441L7.88433 56.1186C7.78789 56.2391 7.69145 56.3356 7.595 56.3958C7.4865 56.4561 7.35389 56.4802 7.19717 56.4802C7.04045 56.4802 6.89578 56.4441 6.77522 56.3838C6.65467 56.3235 6.55822 56.2391 6.48589 56.1306C6.41356 56.0221 6.35328 55.9016 6.31711 55.769C6.28095 55.6363 6.25684 55.4917 6.25684 55.347C6.25684 55.2023 6.28095 55.0697 6.31711 54.9371C6.35328 54.8045 6.41356 54.684 6.48589 54.5875C6.55822 54.479 6.65467 54.4067 6.77522 54.3344C6.89578 54.2741 7.02839 54.2379 7.18511 54.2379C7.34184 54.2379 7.4865 54.2741 7.595 54.3223C7.7035 54.3826 7.79995 54.479 7.88433 54.6116V53.3337H8.25806V55.8172C8.25806 55.9136 8.25806 56.0221 8.25806 56.1306C8.25806 56.2391 8.25806 56.3476 8.27011 56.4441H7.90845ZM7.88433 55.3711C7.88433 55.2747 7.87228 55.1662 7.84817 55.0577C7.82406 54.9492 7.78789 54.8648 7.73967 54.7804C7.69145 54.696 7.61911 54.6357 7.53472 54.5875C7.45034 54.5393 7.35389 54.5152 7.23334 54.5152C7.11278 54.5152 7.01634 54.5393 6.944 54.5996C6.87167 54.6478 6.81139 54.7201 6.76317 54.8045C6.71495 54.8889 6.69084 54.9733 6.66672 55.0818C6.64261 55.1782 6.64261 55.2867 6.64261 55.3832C6.64261 55.4917 6.65467 55.5881 6.67878 55.6966C6.70289 55.7931 6.73906 55.8895 6.78728 55.9739C6.8355 56.0583 6.90784 56.1186 6.98017 56.1668C7.06456 56.215 7.161 56.2391 7.28156 56.2391C7.40211 56.2391 7.49856 56.215 7.57089 56.1668C7.64322 56.1186 7.7035 56.0462 7.75172 55.9739C7.79995 55.8895 7.83611 55.8051 7.84817 55.6966C7.87228 55.564 7.88433 55.4676 7.88433 55.3711Z" fill="#6F7271"/>
<path d="M8.93311 53.3578H9.35505V53.7436H8.93311V53.3578ZM8.95722 54.2861H9.33094V56.444H8.95722V54.2861Z" fill="#6F7271"/>
<path d="M11.501 56.444V55.2505C11.501 55.1541 11.5011 55.0697 11.489 54.9853C11.4769 54.9009 11.4649 54.8286 11.4287 54.7683C11.3926 54.708 11.3443 54.6478 11.272 54.6116C11.1997 54.5754 11.1153 54.5513 10.9947 54.5513C10.8742 54.5513 10.7777 54.5754 10.7054 54.6237C10.6331 54.6719 10.5728 54.7322 10.5246 54.8165C10.4763 54.8889 10.4522 54.9853 10.4281 55.0818C10.404 55.1782 10.404 55.2747 10.404 55.3832V56.4561H10.0303V54.8527C10.0303 54.8045 10.0303 54.7563 10.0303 54.708C10.0303 54.6598 10.0303 54.5995 10.0303 54.5513C10.0303 54.5031 10.0303 54.4549 10.0303 54.4067C10.0303 54.3584 10.0303 54.3223 10.0303 54.2982H10.404L10.4161 54.6478C10.5004 54.5272 10.6089 54.4308 10.7174 54.3705C10.8259 54.3102 10.9586 54.274 11.1153 54.274C11.3925 54.274 11.5975 54.3464 11.706 54.491C11.8265 54.6357 11.8748 54.8407 11.8748 55.1059V56.444H11.501Z" fill="#6F7271"/>
<path d="M13.9362 56.4441C13.9242 56.3959 13.9242 56.3476 13.9121 56.2874C13.9001 56.2271 13.9001 56.1789 13.9001 56.1306C13.8036 56.2632 13.7072 56.3476 13.5866 56.4079C13.4661 56.4561 13.3335 56.4802 13.1767 56.4802C13.0803 56.4802 12.9838 56.4682 12.8874 56.4441C12.791 56.42 12.7186 56.3838 12.6463 56.3235C12.574 56.2753 12.5257 56.203 12.4775 56.1306C12.4413 56.0462 12.4172 55.9619 12.4172 55.8413C12.4172 55.6846 12.4534 55.552 12.5378 55.4555C12.6222 55.3591 12.7186 55.2867 12.8392 55.2385C12.9597 55.1903 13.0923 55.1541 13.237 55.1421C13.3817 55.13 13.5143 55.118 13.6469 55.118C13.6831 55.118 13.7192 55.118 13.7554 55.118C13.7916 55.118 13.8277 55.118 13.8518 55.13V54.9974C13.8518 54.8286 13.8157 54.7081 13.7433 54.6116C13.671 54.5152 13.5505 54.479 13.3696 54.479C13.237 54.479 13.1285 54.5031 13.0562 54.5634C12.9838 54.6237 12.9356 54.7201 12.9236 54.8648H12.5619C12.5619 54.7442 12.5981 54.6478 12.6463 54.5755C12.6945 54.4911 12.7548 54.4308 12.8271 54.3826C12.8995 54.3344 12.9838 54.2982 13.0803 54.2741C13.1767 54.25 13.2732 54.2379 13.3696 54.2379C13.6469 54.2379 13.8518 54.2982 13.9845 54.4067C14.1171 54.5272 14.1894 54.7201 14.1894 55.0095V55.8051C14.1894 55.9498 14.2015 56.0824 14.2135 56.1909C14.2256 56.3115 14.2497 56.3838 14.2617 56.432H13.9362V56.4441ZM13.8639 55.3591C13.8157 55.3591 13.7795 55.347 13.7554 55.347H13.671C13.5866 55.347 13.5022 55.347 13.3937 55.3591C13.2973 55.3711 13.2008 55.3832 13.1044 55.4194C13.02 55.4555 12.9356 55.5038 12.8753 55.564C12.8151 55.6243 12.791 55.7087 12.791 55.8292C12.791 55.8895 12.803 55.9498 12.8271 56.0101C12.8512 56.0583 12.8874 56.1065 12.9356 56.1427C12.9838 56.1789 13.0321 56.203 13.0923 56.215C13.1526 56.2271 13.2129 56.2391 13.2732 56.2391C13.4058 56.2391 13.5143 56.215 13.5987 56.1668C13.671 56.1186 13.7313 56.0462 13.7795 55.9739C13.8157 55.8895 13.8518 55.7931 13.8639 55.6966C13.8518 55.5761 13.8639 55.4676 13.8639 55.3591Z" fill="#6F7271"/>
<path d="M16.3834 56.444V55.2505C16.3834 55.1541 16.3834 55.0697 16.3713 54.9853C16.3593 54.9009 16.3472 54.8286 16.311 54.7562C16.2749 54.696 16.2267 54.6357 16.1543 54.5995C16.082 54.5633 15.9976 54.5392 15.877 54.5392C15.7685 54.5392 15.6721 54.5633 15.5998 54.5995C15.5274 54.6477 15.4672 54.696 15.4189 54.7683C15.3707 54.8406 15.3345 54.925 15.3225 55.0094C15.2984 55.1058 15.2863 55.2023 15.2863 55.2987V56.444H14.9126V53.3578H15.2863V54.6236C15.3707 54.5031 15.4672 54.4066 15.5877 54.3463C15.6962 54.2861 15.8288 54.2499 15.9855 54.2499C16.1302 54.2499 16.2508 54.274 16.3472 54.3102C16.4437 54.3463 16.528 54.4066 16.5883 54.479C16.6486 54.5513 16.6968 54.6357 16.7209 54.7442C16.745 54.8527 16.7571 54.9612 16.7571 55.1058V56.444H16.3834Z" fill="#6F7271"/>
<path d="M20.5306 56.444C20.4824 56.3235 20.4462 56.1909 20.4462 56.0703C20.4342 55.9377 20.4221 55.8171 20.4101 55.6845C20.398 55.576 20.386 55.4675 20.3739 55.3831C20.3618 55.2988 20.3377 55.2264 20.3016 55.1782C20.2654 55.1179 20.2051 55.0818 20.1328 55.0576C20.0605 55.0335 19.952 55.0215 19.8314 55.0215H19.1683V56.4561H18.7705V53.3699H19.8676C19.9881 53.3699 20.1207 53.3819 20.2413 53.406C20.3618 53.4301 20.4703 53.4663 20.5788 53.5266C20.6753 53.5869 20.7597 53.6592 20.8199 53.7556C20.8802 53.8521 20.9164 53.9726 20.9164 54.1294C20.9164 54.3343 20.8561 54.491 20.7476 54.6116C20.6391 54.7321 20.4824 54.8165 20.3016 54.8648C20.398 54.8889 20.4824 54.913 20.5427 54.9491C20.6029 54.9853 20.6632 55.0335 20.6994 55.0818C20.7356 55.13 20.7717 55.2023 20.7838 55.2626C20.8079 55.3349 20.8199 55.4073 20.8199 55.4916C20.832 55.5881 20.8441 55.6966 20.8441 55.8051C20.8441 55.9136 20.8682 56.0221 20.8923 56.1426C20.9043 56.2029 20.9164 56.2511 20.9284 56.2994C20.9405 56.3476 20.9646 56.3958 20.9887 56.432H20.5306V56.444ZM20.4824 54.1655C20.4824 54.057 20.4583 53.9726 20.4221 53.9003C20.3859 53.84 20.3257 53.7798 20.2533 53.7436C20.181 53.7074 20.1087 53.6833 20.0243 53.6713C19.9399 53.6592 19.8555 53.6592 19.7591 53.6592H19.1442V54.708H19.6506C19.747 54.708 19.8435 54.708 19.9399 54.696C20.0363 54.6839 20.1328 54.6598 20.2051 54.6236C20.2895 54.5875 20.3498 54.5272 20.398 54.4549C20.4583 54.3825 20.4824 54.2861 20.4824 54.1655Z" fill="#6F7271"/>
<path d="M21.7844 55.4313V55.4795C21.7844 55.576 21.7964 55.6724 21.8205 55.7689C21.8446 55.8653 21.8929 55.9377 21.9411 56.01C21.9893 56.0823 22.0616 56.1426 22.146 56.1788C22.2304 56.2149 22.3269 56.239 22.4354 56.239C22.5921 56.239 22.7126 56.1908 22.8091 56.1064C22.9055 56.022 22.9658 55.9015 22.9899 55.7448H23.3516C23.3034 55.9979 23.2069 56.1908 23.0261 56.3114C22.8573 56.4319 22.6524 56.4922 22.3992 56.4922C22.2304 56.4922 22.0858 56.4681 21.9652 56.4078C21.8446 56.3596 21.7361 56.2752 21.6518 56.1788C21.5674 56.0823 21.5071 55.9618 21.4709 55.8292C21.4348 55.6965 21.4106 55.5519 21.4106 55.3952C21.4106 55.2384 21.4348 55.0817 21.4709 54.937C21.5071 54.7924 21.5794 54.6718 21.6638 54.5754C21.7482 54.4669 21.8567 54.3945 21.9773 54.3343C22.1099 54.274 22.2545 54.2499 22.4354 54.2499C22.6162 54.2499 22.7609 54.286 22.8814 54.3463C23.002 54.4066 23.0984 54.503 23.1708 54.6115C23.2431 54.72 23.2913 54.8406 23.3154 54.9853C23.3395 55.1299 23.3636 55.2746 23.3636 55.4313H21.7844ZM22.9899 55.1782C22.9899 55.0938 22.9779 55.0094 22.9538 54.925C22.9296 54.8406 22.8935 54.7683 22.8453 54.708C22.797 54.6477 22.7368 54.5995 22.6644 54.5513C22.5921 54.5151 22.5077 54.491 22.4113 54.491C22.3148 54.491 22.2304 54.5151 22.146 54.5513C22.0737 54.5874 22.0134 54.6357 21.9531 54.708C21.9049 54.7683 21.8567 54.8406 21.8326 54.925C21.8085 55.0094 21.7844 55.0938 21.7723 55.1782H22.9899Z" fill="#6F7271"/>
<path d="M25.799 54.286C25.7869 54.4066 25.7869 54.5392 25.7869 54.6598C25.7869 54.7803 25.7869 54.9129 25.7869 55.0335V55.8292C25.7869 56.0341 25.7748 56.227 25.7628 56.4078C25.7507 56.5887 25.7146 56.7454 25.6422 56.878C25.582 57.0106 25.4735 57.1191 25.3408 57.1914C25.2082 57.2638 25.0153 57.2999 24.7742 57.2999C24.6657 57.2999 24.5572 57.2879 24.4487 57.2758C24.3402 57.2517 24.2438 57.2276 24.1594 57.1673C24.075 57.1191 24.0027 57.0468 23.9545 56.9624C23.9062 56.878 23.8701 56.7695 23.8701 56.6369H24.2317C24.2317 56.7092 24.2438 56.7815 24.28 56.8298C24.3161 56.878 24.3523 56.9262 24.4005 56.9503C24.4487 56.9865 24.509 56.9985 24.5693 57.0227C24.6296 57.0347 24.7019 57.0468 24.7622 57.0468C24.8707 57.0468 24.9671 57.0347 25.0515 56.9985C25.1238 56.9624 25.1962 56.9262 25.2444 56.8659C25.2926 56.8057 25.3288 56.7454 25.3529 56.661C25.377 56.5766 25.4011 56.4922 25.4011 56.3958C25.4011 56.3355 25.4132 56.2752 25.4132 56.2149V56.0341C25.2444 56.2873 25.0153 56.4199 24.7019 56.4199C24.5452 56.4199 24.4005 56.3958 24.28 56.3355C24.1594 56.2752 24.063 56.2029 23.9906 56.1064C23.9062 56.01 23.858 55.8894 23.8098 55.7568C23.7736 55.6242 23.7495 55.4795 23.7495 55.3349C23.7495 55.1902 23.7736 55.0576 23.8098 54.925C23.846 54.7924 23.9062 54.6718 23.9906 54.5754C24.063 54.4789 24.1715 54.3945 24.28 54.3343C24.4005 54.274 24.5331 54.2499 24.6898 54.2499C25.0153 54.2499 25.2565 54.3825 25.4252 54.6598V54.2981H25.799V54.286ZM25.4132 55.3108C25.4132 55.2143 25.4011 55.1179 25.377 55.0214C25.3529 54.925 25.3167 54.8406 25.2685 54.7562C25.2203 54.6839 25.148 54.6115 25.0756 54.5633C24.9912 54.5151 24.9068 54.491 24.7983 54.491C24.6778 54.491 24.5813 54.5151 24.497 54.5633C24.4126 54.6115 24.3523 54.6839 24.3041 54.7562C24.2558 54.8406 24.2197 54.925 24.1956 55.0214C24.1715 55.1179 24.1594 55.2264 24.1594 55.3228C24.1594 55.4193 24.1715 55.5278 24.1956 55.6242C24.2197 55.7207 24.2558 55.805 24.3041 55.8894C24.3523 55.9618 24.4246 56.0341 24.497 56.0823C24.5813 56.1305 24.6778 56.1547 24.7983 56.1547C24.9189 56.1547 25.0153 56.1305 25.0997 56.0823C25.1841 56.0341 25.2444 55.9618 25.2926 55.8894C25.3408 55.805 25.377 55.7207 25.4011 55.6122C25.4011 55.5157 25.4132 55.4193 25.4132 55.3108Z" fill="#6F7271"/>
<path d="M26.4619 53.3578H26.8839V53.7436H26.4619V53.3578ZM26.486 54.2861H26.8597V56.444H26.486V54.2861Z" fill="#6F7271"/>
<path d="M29.5362 55.3591C29.5362 55.5158 29.5121 55.6725 29.4638 55.8051C29.4156 55.9378 29.3433 56.0583 29.2589 56.1668C29.1625 56.2753 29.054 56.3476 28.9213 56.4079C28.7887 56.4682 28.6441 56.4923 28.4753 56.4923C28.3065 56.4923 28.1498 56.4682 28.0172 56.4079C27.8846 56.3476 27.7761 56.2753 27.6796 56.1668C27.5952 56.0704 27.5229 55.9498 27.4747 55.8051C27.4265 55.6605 27.4023 55.5158 27.4023 55.347C27.4023 55.1782 27.4265 55.0336 27.4747 54.901C27.5229 54.7684 27.5952 54.6478 27.6796 54.5514C27.7761 54.4549 27.8846 54.3705 28.0172 54.3223C28.1498 54.262 28.3065 54.2379 28.4753 54.2379C28.6441 54.2379 28.8008 54.262 28.9334 54.3223C29.066 54.3705 29.1745 54.4549 29.271 54.5514C29.3553 54.6478 29.4277 54.7684 29.4759 54.901C29.5121 55.0336 29.5362 55.1903 29.5362 55.3591ZM29.1383 55.3591C29.1383 55.2506 29.1263 55.1541 29.1022 55.0456C29.0781 54.9492 29.0419 54.8527 28.9816 54.7684C28.9334 54.684 28.8611 54.6237 28.7767 54.5755C28.6923 54.5273 28.5838 54.5031 28.4632 54.5031C28.3427 54.5031 28.2462 54.5273 28.1498 54.5755C28.0654 54.6237 27.9931 54.684 27.9448 54.7684C27.8966 54.8527 27.8484 54.9371 27.8243 55.0456C27.8002 55.1421 27.7881 55.2506 27.7881 55.3591C27.7881 55.4676 27.8002 55.564 27.8243 55.6725C27.8484 55.781 27.8846 55.8654 27.9448 55.9498C27.9931 56.0342 28.0654 56.1065 28.1498 56.1547C28.2342 56.203 28.3427 56.2391 28.4632 56.2391C28.5838 56.2391 28.6802 56.215 28.7646 56.1547C28.849 56.1065 28.9213 56.0342 28.9696 55.9498C29.0178 55.8654 29.066 55.769 29.0901 55.6605C29.1263 55.564 29.1383 55.4555 29.1383 55.3591Z" fill="#6F7271"/>
<path d="M31.5372 56.444V55.2505C31.5372 55.1541 31.5372 55.0697 31.5251 54.9853C31.5131 54.9009 31.501 54.8286 31.4648 54.7683C31.4287 54.708 31.3805 54.6478 31.3081 54.6116C31.2358 54.5754 31.1514 54.5513 31.0308 54.5513C30.9103 54.5513 30.8138 54.5754 30.7415 54.6237C30.6692 54.6719 30.6089 54.7322 30.5607 54.8165C30.5125 54.8889 30.4883 54.9853 30.4642 55.0818C30.4401 55.1782 30.4401 55.2747 30.4401 55.3832V56.4561H30.0664V54.8527C30.0664 54.8045 30.0664 54.7563 30.0664 54.708C30.0664 54.6598 30.0664 54.5995 30.0664 54.5513C30.0664 54.5031 30.0664 54.4549 30.0664 54.4067C30.0664 54.3584 30.0664 54.3223 30.0664 54.2982H30.4401L30.4522 54.6478C30.5366 54.5272 30.6451 54.4308 30.7536 54.3705C30.8621 54.3102 31.0067 54.274 31.1635 54.274C31.4407 54.274 31.6457 54.3464 31.7542 54.491C31.8747 54.6357 31.923 54.8407 31.923 55.1059V56.444H31.5372Z" fill="#6F7271"/>
<path d="M33.9726 56.4441C33.9606 56.3959 33.9606 56.3476 33.9485 56.2874C33.9364 56.2271 33.9364 56.1789 33.9364 56.1306C33.84 56.2632 33.7436 56.3476 33.623 56.4079C33.5024 56.4561 33.3698 56.4802 33.2131 56.4802C33.1167 56.4802 33.0202 56.4682 32.9238 56.4441C32.8273 56.42 32.755 56.3838 32.6827 56.3235C32.6103 56.2753 32.5621 56.203 32.5139 56.1306C32.4777 56.0462 32.4536 55.9619 32.4536 55.8413C32.4536 55.6846 32.4898 55.552 32.5742 55.4555C32.6586 55.3591 32.755 55.2867 32.8756 55.2385C32.9961 55.1903 33.1287 55.1541 33.2734 55.1421C33.4181 55.13 33.5627 55.118 33.6833 55.118C33.7194 55.118 33.7556 55.118 33.7918 55.118C33.8279 55.118 33.8641 55.118 33.8882 55.13V54.9974C33.8882 54.8286 33.8521 54.7081 33.7797 54.6116C33.7074 54.5152 33.5868 54.479 33.406 54.479C33.2734 54.479 33.1649 54.5031 33.0926 54.5634C33.0202 54.6237 32.972 54.7201 32.9599 54.8648H32.5983C32.5983 54.7442 32.6344 54.6478 32.6827 54.5755C32.7309 54.4911 32.7912 54.4308 32.8635 54.3826C32.9358 54.3344 33.0202 54.2982 33.1167 54.2741C33.2131 54.25 33.3096 54.2379 33.406 54.2379C33.6833 54.2379 33.8882 54.2982 34.0208 54.4067C34.1534 54.5272 34.2258 54.7201 34.2258 55.0095V55.8051C34.2258 55.9498 34.2378 56.0824 34.2499 56.1909C34.2619 56.3115 34.2861 56.3838 34.2981 56.432H33.9726V56.4441ZM33.9003 55.3591C33.8521 55.3591 33.8159 55.347 33.7918 55.347H33.7074C33.623 55.347 33.5386 55.347 33.4301 55.3591C33.3337 55.3711 33.2372 55.3832 33.1408 55.4194C33.0564 55.4555 32.972 55.5038 32.9117 55.564C32.8514 55.6243 32.8273 55.7087 32.8273 55.8292C32.8273 55.8895 32.8394 55.9498 32.8635 56.0101C32.8876 56.0583 32.9238 56.1065 32.972 56.1427C33.0202 56.1789 33.0684 56.203 33.1287 56.215C33.189 56.2271 33.2493 56.2391 33.3096 56.2391C33.4422 56.2391 33.5507 56.215 33.6351 56.1668C33.7074 56.1186 33.7677 56.0462 33.8159 55.9739C33.8521 55.8895 33.8882 55.7931 33.9003 55.6966C33.8882 55.5761 33.9003 55.4676 33.9003 55.3591Z" fill="#6F7271"/>
<path d="M35.3227 53.3578H34.949V56.444H35.3227V53.3578Z" fill="#6F7271"/>
<path d="M40.2534 56.444V53.6592L39.1563 56.444H38.7947L37.6976 53.6592V56.444H37.3359V53.3578H37.9749L38.9996 55.9618L39.9882 53.3578H40.6271V56.444H40.2534Z" fill="#6F7271"/>
<path d="M42.8695 56.444L42.8575 56.1065C42.761 56.227 42.6646 56.3235 42.5561 56.3838C42.4476 56.444 42.315 56.4682 42.1583 56.4682C42.0136 56.4682 41.8931 56.444 41.7966 56.4079C41.7002 56.3717 41.6158 56.3114 41.5555 56.2391C41.4952 56.1668 41.447 56.0824 41.4229 55.9739C41.3988 55.8654 41.3867 55.7569 41.3867 55.6122V54.274H41.7604V55.4675C41.7604 55.564 41.7604 55.6484 41.7725 55.7328C41.7845 55.8172 41.8087 55.8895 41.8328 55.9618C41.8689 56.0221 41.9172 56.0824 41.9895 56.1185C42.0618 56.1547 42.1462 56.1788 42.2668 56.1788C42.3753 56.1788 42.4717 56.1547 42.5561 56.1185C42.6284 56.0824 42.6887 56.0221 42.7369 55.9498C42.7852 55.8774 42.8213 55.793 42.8334 55.7087C42.8575 55.6243 42.8695 55.5278 42.8695 55.4193V54.274H43.2433V55.3229V55.8774C43.2433 56.0583 43.2433 56.2512 43.2553 56.432H42.8695V56.444Z" fill="#6F7271"/>
<path d="M45.4012 56.444V55.2505C45.4012 55.1541 45.4012 55.0697 45.3891 54.9853C45.3771 54.9009 45.365 54.8286 45.3289 54.7683C45.2927 54.708 45.2445 54.6478 45.1721 54.6116C45.0998 54.5754 45.0154 54.5513 44.8949 54.5513C44.7743 54.5513 44.6779 54.5754 44.6055 54.6237C44.5332 54.6719 44.4729 54.7322 44.4247 54.8165C44.3765 54.8889 44.3524 54.9853 44.3283 55.0818C44.3041 55.1782 44.3041 55.2747 44.3041 55.3832V56.4561H43.9304V54.8527C43.9304 54.8045 43.9304 54.7563 43.9304 54.708C43.9304 54.6598 43.9304 54.5995 43.9304 54.5513C43.9304 54.5031 43.9304 54.4549 43.9304 54.4067C43.9304 54.3584 43.9304 54.3223 43.9304 54.2982H44.3041L44.3162 54.6478C44.4006 54.5272 44.5091 54.4308 44.6176 54.3705C44.7261 54.3102 44.8587 54.274 45.0154 54.274C45.2927 54.274 45.4976 54.3464 45.6061 54.491C45.7267 54.6357 45.7749 54.8407 45.7749 55.1059V56.444H45.4012Z" fill="#6F7271"/>
<path d="M46.438 53.3578H46.8599V53.7436H46.438V53.3578ZM46.4621 54.2861H46.8358V56.444H46.4621V54.2861Z" fill="#6F7271"/>
<path d="M49.2468 56.0583C49.1986 56.1547 49.1262 56.2391 49.0539 56.2994C48.9695 56.3597 48.8731 56.4079 48.7766 56.4441C48.6681 56.4802 48.5596 56.4923 48.427 56.4923C48.2582 56.4923 48.1015 56.4682 47.981 56.4079C47.8483 56.3597 47.7398 56.2753 47.6555 56.1788C47.5711 56.0824 47.4987 55.9618 47.4505 55.8292C47.4023 55.6966 47.3782 55.5399 47.3782 55.3832C47.3782 55.2144 47.4023 55.0697 47.4505 54.9251C47.4987 54.7804 47.559 54.6598 47.6555 54.5513C47.7398 54.4428 47.8604 54.3705 47.993 54.3102C48.1256 54.2499 48.2823 54.2258 48.4511 54.2258C48.6922 54.2258 48.8972 54.2861 49.0539 54.4067C49.2106 54.5272 49.3071 54.7201 49.3312 54.9733H48.9695C48.9575 54.8166 48.9092 54.696 48.8248 54.6116C48.7405 54.5272 48.6199 54.479 48.4632 54.479C48.3306 54.479 48.2341 54.5031 48.1377 54.5513C48.0533 54.5996 47.981 54.6719 47.9327 54.7563C47.8845 54.8407 47.8483 54.9371 47.8242 55.0336C47.8001 55.1421 47.7881 55.2506 47.7881 55.3591C47.7881 55.4676 47.8001 55.564 47.8242 55.6725C47.8483 55.781 47.8845 55.8654 47.9327 55.9498C47.981 56.0342 48.0533 56.0944 48.1377 56.1547C48.2221 56.2029 48.3185 56.2271 48.4391 56.2271C48.5958 56.2271 48.7284 56.1788 48.8248 56.0824C48.9213 55.9859 48.9695 55.8654 48.9816 55.7087H49.3312H49.3432C49.3312 55.8533 49.295 55.9618 49.2468 56.0583Z" fill="#6F7271"/>
<path d="M49.8015 53.3578H50.2235V53.7436H49.8015V53.3578ZM49.8256 54.2861H50.1993V56.444H49.8256V54.2861Z" fill="#6F7271"/>
<path d="M52.9238 55.335C52.9238 55.4796 52.8997 55.6243 52.8635 55.7569C52.8273 55.8895 52.767 56.0221 52.6827 56.1186C52.5983 56.215 52.5018 56.3115 52.3813 56.3717C52.2607 56.432 52.116 56.4682 51.9593 56.4682C51.8026 56.4682 51.67 56.4441 51.5735 56.3838C51.465 56.3235 51.3686 56.2271 51.2842 56.1065V57.2397H50.9105V54.8889C50.9105 54.7925 50.9105 54.684 50.9105 54.5875C50.9105 54.479 50.9105 54.3826 50.8984 54.2741H51.2722L51.2842 54.6478C51.3686 54.5031 51.465 54.4067 51.5856 54.3344C51.7062 54.2741 51.8508 54.2379 52.0196 54.2379C52.1763 54.2379 52.3089 54.2741 52.4295 54.3223C52.55 54.3826 52.6344 54.467 52.7188 54.5634C52.7912 54.6599 52.8514 54.7804 52.8876 54.913C52.8997 55.0577 52.9238 55.1903 52.9238 55.335ZM52.5259 55.3591C52.5259 55.2626 52.5139 55.1662 52.5018 55.0697C52.4777 54.9733 52.4536 54.8769 52.4054 54.7925C52.3572 54.7081 52.2969 54.6478 52.2245 54.5875C52.1522 54.5393 52.0558 54.5031 51.9352 54.5031C51.8147 54.5031 51.7182 54.5273 51.6338 54.5755C51.5494 54.6237 51.4892 54.696 51.4409 54.7684C51.3927 54.8527 51.3565 54.9371 51.3324 55.0456C51.3083 55.1421 51.2963 55.2506 51.2963 55.347C51.2963 55.4435 51.3083 55.5399 51.3204 55.6484C51.3445 55.7449 51.3686 55.8413 51.4168 55.9257C51.465 56.0101 51.5253 56.0704 51.5977 56.1186C51.67 56.1668 51.7664 56.1909 51.887 56.1909C52.0075 56.1909 52.116 56.1668 52.2004 56.1186C52.2848 56.0704 52.3451 55.998 52.3933 55.9257C52.4415 55.8413 52.4777 55.7569 52.5018 55.6484C52.5139 55.564 52.5259 55.4555 52.5259 55.3591Z" fill="#6F7271"/>
<path d="M54.8286 56.4441C54.8165 56.3959 54.8165 56.3476 54.8045 56.2874C54.7924 56.2271 54.7924 56.1789 54.7924 56.1306C54.696 56.2632 54.5995 56.3476 54.479 56.4079C54.3584 56.4561 54.2258 56.4802 54.0691 56.4802C53.9726 56.4802 53.8762 56.4682 53.7797 56.4441C53.6833 56.42 53.611 56.3838 53.5386 56.3235C53.4663 56.2753 53.4181 56.203 53.3698 56.1306C53.3337 56.0462 53.3096 55.9619 53.3096 55.8413C53.3096 55.6846 53.3457 55.552 53.4301 55.4555C53.5145 55.3591 53.611 55.2867 53.7315 55.2385C53.8521 55.1903 53.9847 55.1541 54.1293 55.1421C54.274 55.13 54.4066 55.118 54.5392 55.118C54.5754 55.118 54.6116 55.118 54.6477 55.118C54.6839 55.118 54.7201 55.118 54.7442 55.13V54.9974C54.7442 54.8286 54.708 54.7081 54.6357 54.6116C54.5633 54.5152 54.4428 54.479 54.262 54.479C54.1293 54.479 54.0208 54.5031 53.9485 54.5634C53.8762 54.6237 53.828 54.7201 53.8159 54.8648H53.4542C53.4542 54.7442 53.4904 54.6478 53.5386 54.5755C53.5868 54.4911 53.6471 54.4308 53.7195 54.3826C53.7918 54.3344 53.8762 54.2982 53.9726 54.2741C54.0691 54.25 54.1655 54.2379 54.262 54.2379C54.5392 54.2379 54.7442 54.2982 54.8768 54.4067C55.0094 54.5272 55.0817 54.7201 55.0817 55.0095V55.8051C55.0817 55.9498 55.0938 56.0824 55.1058 56.1909C55.1179 56.3115 55.142 56.3838 55.1541 56.432H54.8286V56.4441ZM54.7442 55.3591C54.696 55.3591 54.6598 55.347 54.6357 55.347H54.5513C54.4669 55.347 54.3705 55.347 54.274 55.3591C54.1655 55.3711 54.0811 55.3832 53.9847 55.4194C53.9003 55.4555 53.8159 55.5038 53.7556 55.564C53.6953 55.6243 53.6712 55.7087 53.6712 55.8292C53.6712 55.8895 53.6833 55.9498 53.7074 56.0101C53.7315 56.0583 53.7677 56.1065 53.8159 56.1427C53.8641 56.1789 53.9123 56.203 53.9726 56.215C54.0329 56.2271 54.0932 56.2391 54.1535 56.2391C54.2861 56.2391 54.3946 56.215 54.479 56.1668C54.5513 56.1186 54.6116 56.0462 54.6598 55.9739C54.696 55.8895 54.7321 55.7931 54.7442 55.6966C54.7442 55.5761 54.7442 55.4676 54.7442 55.3591Z" fill="#6F7271"/>
<path d="M56.1789 53.3578H55.8052V56.444H56.1789V53.3578Z" fill="#6F7271"/>
<path d="M56.866 53.3578H57.2879V53.7436H56.866V53.3578ZM56.878 54.2861H57.2517V56.444H56.878V54.2861Z" fill="#6F7271"/>
<path d="M58.626 56.4682C58.4572 56.4682 58.3246 56.432 58.2281 56.3477C58.1437 56.2753 58.0955 56.1427 58.0955 55.9619V54.5393H57.6736V54.2741H58.0955V53.8522L58.4692 53.6954V54.2741H58.9515V54.5393H58.4692V55.8172C58.4692 55.8775 58.4693 55.9378 58.4813 55.986C58.4813 56.0342 58.5054 56.0704 58.5175 56.0945C58.5416 56.1186 58.5657 56.1427 58.6019 56.1548C58.638 56.1668 58.6862 56.1789 58.7586 56.1789C58.7947 56.1789 58.8309 56.1789 58.855 56.1668C58.8912 56.1668 58.9153 56.1548 58.9635 56.1548V56.4441C58.843 56.4562 58.7345 56.4682 58.626 56.4682Z" fill="#6F7271"/>
<path d="M60.0727 57.2518H59.6989L60.0485 56.4441L59.1323 54.2861H59.5663L60.2414 56.0462L60.9165 54.2861H61.3023L60.0727 57.2518Z" fill="#6F7271"/>
<path d="M1.62751 45.2203C1.7119 45.1359 1.76012 45.0274 1.76012 44.9068C1.76012 44.7863 1.7119 44.6778 1.62751 44.5813C1.54312 44.4969 1.43462 44.4487 1.30201 44.4487C1.18146 44.4487 1.07296 44.4969 0.988568 44.5813C0.904179 44.6778 0.855957 44.7742 0.855957 44.9068C0.855957 45.0274 0.904179 45.1359 0.988568 45.2203C1.07296 45.3167 1.18146 45.3529 1.30201 45.3529C1.43462 45.365 1.54312 45.3167 1.62751 45.2203Z" fill="#007167"/>
<path d="M0.397833 46.5706C0.132611 46.8599 0 47.2818 0 47.8364V49.1022H3.42377V48.3307H2.59194H2.15794H0.831833V47.9087C0.831833 47.5712 0.904166 47.318 1.06089 47.1492C1.21761 46.9805 1.45872 46.8961 1.79628 46.8961H2.57989V47.969H3.41172V46.1245H1.6275C1.07294 46.1245 0.663055 46.2692 0.397833 46.5706Z" fill="#007167"/>
<path d="M2.47129 45.365C2.59185 45.365 2.70035 45.3168 2.78474 45.2324C2.88118 45.1359 2.91735 45.0395 2.91735 44.9189C2.91735 44.7984 2.86913 44.6899 2.78474 44.5934C2.70035 44.509 2.59185 44.4608 2.47129 44.4608C2.38691 44.4608 2.31457 44.4849 2.24224 44.5211C2.16991 44.5693 2.10963 44.6175 2.07346 44.6899C2.02524 44.7622 2.01318 44.8345 2.01318 44.9189C2.01318 45.0033 2.03729 45.0756 2.07346 45.148C2.12168 45.2203 2.16991 45.2806 2.24224 45.3168C2.31457 45.3409 2.39896 45.365 2.47129 45.365Z" fill="#007167"/>
<path d="M5.06343 49.0781C5.06343 49.4157 4.9911 49.6688 4.83438 49.8497C4.67765 50.0305 4.4486 50.1269 4.14721 50.1269H3.89404V50.9106H4.20749C4.7741 50.9106 5.19604 50.7538 5.47332 50.4283C5.7506 50.1149 5.89526 49.6688 5.89526 49.1022V46.1245H5.06343V49.0781Z" fill="#007167"/>
<path d="M14.5391 45.365C14.6596 45.365 14.7681 45.3168 14.8646 45.2324C14.949 45.148 14.9972 45.0395 14.9972 44.9189C14.9972 44.7863 14.949 44.6778 14.8646 44.5934C14.7802 44.509 14.6717 44.4608 14.5391 44.4608C14.4185 44.4608 14.31 44.509 14.2256 44.5934C14.1412 44.6899 14.093 44.7984 14.093 44.9189C14.093 45.0395 14.1412 45.148 14.2256 45.2324C14.31 45.3168 14.4185 45.365 14.5391 45.365Z" fill="#007167"/>
<path d="M25.3527 48.3307H24.1713H22.3268H21.7843V47.8364C21.7843 47.2819 21.6517 46.8599 21.3865 46.5706C21.1212 46.2813 20.7114 46.1366 20.1568 46.1366H18.3605V48.3307H17.3117H15.4672H14.9488V46.1366H14.129V48.3307H12.9355H11.091H10.5485V46.1366H8.75225C8.1977 46.1366 7.78781 46.2813 7.52259 46.5706C7.25737 46.8599 7.12476 47.2819 7.12476 47.8364V49.1023H9.7167C9.7167 49.3554 9.69259 49.5604 9.64436 49.7051C9.59614 49.8497 9.4997 49.9582 9.36709 50.0306C9.23448 50.1029 9.04159 50.1391 8.80048 50.1391H7.70342V50.9106H8.93309C9.51175 50.9106 9.92164 50.7539 10.1628 50.4404C10.4039 50.127 10.5365 49.6809 10.5485 49.0902H11.1031H12.9476H15.4792H17.3237H22.3389H24.1833H26.1966V44.2921H25.3648V48.3307H25.3527ZM9.70464 48.3307H7.94453V47.9088C7.94453 47.5712 8.01687 47.3181 8.17359 47.1493C8.33031 46.9805 8.57142 46.8961 8.90898 46.8961H9.69259V48.3307H9.70464ZM20.9404 48.3307H19.1803V46.8961H19.9639C20.3015 46.8961 20.5426 46.9805 20.6993 47.1493C20.856 47.3181 20.9284 47.5712 20.9284 47.9088V48.3307H20.9404Z" fill="#007167"/>
<path d="M28.1497 44.2921H27.3179V49.0902H28.1497V44.2921Z" fill="#007167"/>
<path d="M31.887 44.5813C31.8026 44.6657 31.7544 44.7742 31.7544 44.9068C31.7544 45.0274 31.8026 45.1359 31.887 45.2203C31.9714 45.3167 32.0799 45.3529 32.2004 45.3529C32.321 45.3529 32.4295 45.3047 32.5259 45.2203C32.6103 45.1238 32.6586 45.0274 32.6586 44.9068C32.6586 44.7863 32.6103 44.6778 32.5259 44.5813C32.4416 44.4969 32.3331 44.4487 32.2004 44.4487C32.0799 44.4487 31.9714 44.4969 31.887 44.5813Z" fill="#007167"/>
<path d="M33.1407 44.509C33.0683 44.5572 33.0081 44.6054 32.9719 44.6778C32.9237 44.7501 32.9116 44.8224 32.9116 44.9068C32.9116 44.9912 32.9357 45.0636 32.9719 45.1359C33.0201 45.2082 33.0683 45.2685 33.1407 45.3047C33.213 45.3408 33.2853 45.3649 33.3697 45.3649C33.4903 45.3649 33.5988 45.3167 33.6832 45.2323C33.7796 45.1359 33.8158 45.0394 33.8158 44.9189C33.8158 44.7983 33.7676 44.6898 33.6832 44.5934C33.5988 44.509 33.4903 44.4608 33.3697 44.4608C33.2853 44.4487 33.213 44.4728 33.1407 44.509Z" fill="#007167"/>
<path d="M38.3245 45.365C38.445 45.365 38.5535 45.3168 38.65 45.2324C38.7344 45.148 38.7826 45.0395 38.7826 44.9189C38.7826 44.7863 38.7344 44.6778 38.65 44.5934C38.5656 44.509 38.4571 44.4608 38.3245 44.4608C38.2039 44.4608 38.0954 44.509 38.011 44.5934C37.9266 44.6899 37.8784 44.7984 37.8784 44.9189C37.8784 45.0395 37.9266 45.148 38.011 45.2324C38.0954 45.3168 38.2039 45.365 38.3245 45.365Z" fill="#007167"/>
<path d="M43.2914 49.6206C43.207 49.6206 43.1346 49.6447 43.0623 49.6809C42.99 49.7291 42.9297 49.7773 42.8935 49.8497C42.8453 49.922 42.8333 49.9943 42.8333 50.0787C42.8333 50.151 42.8574 50.2234 42.8935 50.2957C42.9418 50.368 42.99 50.4163 43.0623 50.4645C43.1346 50.5007 43.207 50.5248 43.2914 50.5248C43.3757 50.5248 43.4481 50.5007 43.5204 50.4645C43.5927 50.4283 43.653 50.368 43.6892 50.2957C43.7254 50.2234 43.7495 50.151 43.7495 50.0787C43.7495 49.9461 43.7013 49.8376 43.6169 49.7412C43.5204 49.6568 43.4119 49.6206 43.2914 49.6206Z" fill="#007167"/>
<path d="M43.4121 46.1245H42.5923V48.3186H41.0854H39.2409H38.7225V46.1245H37.9027V48.3186H36.7092H34.8647H34.5995H34.3222H33.4904H33.0443H31.7303V47.8966C31.7303 47.5591 31.8026 47.3059 31.9593 47.1371C32.116 46.9684 32.3572 46.884 32.6947 46.884H33.4904V47.9569H34.3222V46.1124H32.5259C31.9714 46.1124 31.5615 46.2571 31.2963 46.5464C31.031 46.8358 30.8984 47.2577 30.8984 47.8123V49.0781H34.8647H36.7092H39.2409H41.0854H43.4V46.1245H43.4121Z" fill="#007167"/>
<path d="M42.1221 49.6206C42.0015 49.6206 41.893 49.6688 41.8086 49.7532C41.7242 49.8497 41.676 49.9582 41.676 50.0908C41.676 50.1631 41.7001 50.2354 41.7363 50.3078C41.7725 50.3801 41.8327 50.4283 41.9051 50.4765C41.9774 50.5127 42.0497 50.5368 42.1341 50.5368C42.2547 50.5368 42.3632 50.4886 42.4596 50.4042C42.544 50.3198 42.5922 50.2113 42.5922 50.0908C42.5922 49.9582 42.544 49.8497 42.4596 49.7532C42.3511 49.6568 42.2547 49.6206 42.1221 49.6206Z" fill="#007167"/>
<path d="M58.4935 48.3306H57.1915H55.347H54.8045V47.8363C54.8045 47.2818 54.6719 46.8599 54.4067 46.5705C54.1414 46.2812 53.7315 46.1365 53.177 46.1365H51.3807V48.3306H50.3319H48.4874H47.9328V47.7881C47.9328 46.6911 47.4024 46.1365 46.3294 46.1365H44.9189V46.9081H46.1365C46.4741 46.9081 46.7152 46.9804 46.8719 47.1371C47.0287 47.2939 47.101 47.5229 47.101 47.8363V48.3306H44.3162V49.1022H48.4874H50.3319H55.347H57.1915H59.3253V44.3041H58.4935V48.3306ZM53.9606 48.3306H52.2005V46.896H52.9841C53.3217 46.896 53.5748 46.9804 53.7195 47.1492C53.8762 47.318 53.9485 47.5711 53.9485 47.9087V48.3306H53.9606Z" fill="#007167"/>
<path d="M61.3025 44.2921H60.4707V49.0902H61.3025V44.2921Z" fill="#007167"/>
<path d="M2.24224 37.1673C2.31457 37.2034 2.38691 37.2275 2.47129 37.2275C2.59185 37.2275 2.70035 37.1793 2.78474 37.0949C2.88118 37.0105 2.91735 36.902 2.91735 36.7815C2.91735 36.6609 2.86913 36.5524 2.78474 36.456C2.70035 36.3716 2.59185 36.3234 2.47129 36.3234C2.38691 36.3234 2.31457 36.3475 2.24224 36.3836C2.16991 36.4319 2.10963 36.4801 2.07346 36.5524C2.02524 36.6248 2.01318 36.6971 2.01318 36.7815C2.01318 36.8659 2.03729 36.9382 2.07346 37.0105C2.10963 37.0708 2.16991 37.1311 2.24224 37.1673Z" fill="#007167"/>
<path d="M1.30201 37.2396C1.42257 37.2396 1.53107 37.1914 1.62751 37.107C1.7119 37.0226 1.76012 36.9141 1.76012 36.7936C1.76012 36.673 1.7119 36.5645 1.62751 36.4681C1.54312 36.3837 1.43462 36.3354 1.30201 36.3354C1.18146 36.3354 1.07296 36.3837 0.988568 36.4681C0.892123 36.5524 0.855957 36.661 0.855957 36.7936C0.855957 36.9141 0.904179 37.0226 0.988568 37.107C1.07296 37.1914 1.18146 37.2396 1.30201 37.2396Z" fill="#007167"/>
<path d="M9.80128 37.2396C9.92183 37.2396 10.0303 37.1914 10.1268 37.107C10.2112 37.0226 10.2594 36.9141 10.2594 36.7936C10.2594 36.673 10.2112 36.5645 10.1268 36.4681C10.0424 36.3837 9.93389 36.3354 9.80128 36.3354C9.68072 36.3354 9.57222 36.3837 9.48784 36.4681C9.40345 36.5524 9.35522 36.661 9.35522 36.7936C9.35522 36.9141 9.40345 37.0226 9.48784 37.107C9.58428 37.1914 9.68072 37.2396 9.80128 37.2396Z" fill="#007167"/>
<path d="M10.7415 37.1673C10.8138 37.2034 10.8862 37.2275 10.9706 37.2275C11.0911 37.2275 11.1996 37.1793 11.284 37.0949C11.3684 37.0105 11.4166 36.902 11.4166 36.7815C11.4166 36.6609 11.3684 36.5524 11.284 36.456C11.1996 36.3716 11.0911 36.3234 10.9706 36.3234C10.8862 36.3234 10.8138 36.3475 10.7415 36.3836C10.6692 36.4319 10.6089 36.4801 10.5727 36.5524C10.5245 36.6248 10.5125 36.6971 10.5125 36.7815C10.5125 36.8659 10.5366 36.9382 10.5727 37.0105C10.6089 37.0708 10.6692 37.1311 10.7415 37.1673Z" fill="#007167"/>
<path d="M28.198 37.2396C28.3186 37.2396 28.4271 37.1914 28.5235 37.107C28.6079 37.0226 28.6561 36.9141 28.6561 36.7936C28.6561 36.661 28.6079 36.5524 28.5235 36.4681C28.4391 36.3837 28.3306 36.3354 28.198 36.3354C28.0775 36.3354 27.969 36.3837 27.8846 36.4681C27.8002 36.5645 27.752 36.673 27.752 36.7936C27.752 36.9141 27.8002 37.0226 27.8846 37.107C27.969 37.1914 28.0775 37.2396 28.198 37.2396Z" fill="#007167"/>
<path d="M36.7212 40.9768V39.711C36.7212 39.1564 36.5886 38.7345 36.3233 38.4451C36.0581 38.1558 35.6482 38.0111 35.0937 38.0111H33.2974V40.2052H32.2486H29.1262H28.6078V38.0111H27.788V40.2052H26.5945H23.8941H23.3395V39.6627C23.3395 38.5657 22.8091 38.0111 21.7361 38.0111H18.4691V36.1666H17.6373V40.1932H16.5523H12.5739H12.0314V37.9991H10.2231C9.66854 37.9991 9.25866 38.1437 8.99343 38.4331C8.72821 38.7224 8.5956 39.1443 8.5956 39.6989V40.1932H7.52266H3.96627H3.70105H3.42377H2.59194H2.13383H0.819777V39.7833C0.819777 39.4457 0.89211 39.1926 1.04883 39.0238C1.20555 38.855 1.44666 38.7706 1.78422 38.7706H2.57989V39.8436H3.41172V37.9991H1.6275C1.07294 37.9991 0.663055 38.1437 0.397833 38.4331C0.132611 38.7224 0 39.1443 0 39.6989V40.9647H3.96627H7.52266H12.5619H16.5402H23.882H26.5825H29.1141H32.2365H36.7212V40.9768ZM34.1292 38.7706H34.9128C35.2504 38.7706 35.5036 38.855 35.6482 39.0238C35.805 39.1926 35.8773 39.4457 35.8773 39.7833V40.2052H34.1172V38.7706H34.1292ZM11.1875 40.2052H9.42743V39.7833C9.42743 39.4457 9.49977 39.1926 9.65649 39.0238C9.81321 38.855 10.0543 38.7706 10.3919 38.7706H11.1755V40.2052H11.1875ZM22.5077 40.2052H18.4691V38.7827H21.5433C21.8808 38.7827 22.1219 38.855 22.2786 39.0117C22.4354 39.1685 22.5077 39.3975 22.5077 39.711V40.2052Z" fill="#007167"/>
<path d="M41.5313 37.1673C41.6036 37.2034 41.676 37.2275 41.7604 37.2275C41.8809 37.2275 41.9894 37.1793 42.0738 37.0949C42.1582 37.0105 42.2064 36.902 42.2064 36.7815C42.2064 36.6609 42.1582 36.5524 42.0738 36.456C41.9894 36.3716 41.8809 36.3234 41.7604 36.3234C41.676 36.3234 41.6036 36.3475 41.5313 36.3836C41.459 36.4319 41.3987 36.4801 41.3625 36.5524C41.3143 36.6248 41.3022 36.6971 41.3022 36.7815C41.3022 36.8659 41.3264 36.9382 41.3625 37.0105C41.3987 37.0708 41.459 37.1311 41.5313 37.1673Z" fill="#007167"/>
<path d="M43.2553 40.9767H47.6676H49.6809V38.0111H48.8611V40.2052H47.6676H43.2553H43.0986H42.7007H41.8689H41.5313H40.1088V39.7832C40.1088 39.4457 40.1811 39.1925 40.3378 39.0237C40.4946 38.855 40.7357 38.7706 41.0732 38.7706H41.8568V39.8435H42.6887V37.999H40.8924C40.3378 37.999 39.9279 38.1437 39.6627 38.433C39.3975 38.7224 39.2649 39.1443 39.2649 39.6989V40.9647H43.2553V40.9767Z" fill="#007167"/>
<path d="M40.5911 37.2396C40.7116 37.2396 40.8201 37.1914 40.9166 37.107C41.001 37.0226 41.0492 36.9141 41.0492 36.7936C41.0492 36.673 41.001 36.5645 40.9166 36.4681C40.8322 36.3837 40.7237 36.3354 40.5911 36.3354C40.4705 36.3354 40.362 36.3837 40.2776 36.4681C40.1812 36.5524 40.145 36.661 40.145 36.7936C40.145 36.9141 40.1932 37.0226 40.2776 37.107C40.3741 37.1914 40.4705 37.2396 40.5911 37.2396Z" fill="#007167"/>
<path d="M49.271 37.2396C49.3916 37.2396 49.5001 37.1914 49.5965 37.107C49.6809 37.0226 49.7291 36.9141 49.7291 36.7936C49.7291 36.661 49.6809 36.5524 49.5965 36.4681C49.5121 36.3837 49.4036 36.3354 49.271 36.3354C49.1505 36.3354 49.042 36.3837 48.9576 36.4681C48.8732 36.5645 48.825 36.673 48.825 36.7936C48.825 36.9141 48.8732 37.0226 48.9576 37.107C49.042 37.1914 49.1505 37.2396 49.271 37.2396Z" fill="#007167"/>
<path d="M57.8666 37.9991H56.0703V40.1932H54.1656H52.3211H52.2487C52.0438 40.1932 51.8991 40.145 51.8027 40.0485C51.7062 39.9521 51.658 39.7953 51.658 39.5904V36.1666H50.8262V39.506C50.8262 39.8556 50.8744 40.1329 50.9588 40.3499C51.0552 40.5669 51.1999 40.7236 51.4169 40.8201C51.6339 40.9165 51.9232 40.9768 52.2849 40.9768H52.3211H54.1656H59.4941V39.711C59.4941 39.1564 59.3615 38.7345 59.0963 38.4451C58.8311 38.1437 58.4212 37.9991 57.8666 37.9991ZM58.6623 40.2052H56.9022V38.7827H57.6858C58.0233 38.7827 58.2644 38.8671 58.4212 39.0358C58.5779 39.2046 58.6502 39.4578 58.6502 39.7953V40.2052H58.6623Z" fill="#007167"/>
<path d="M61.3025 36.1666H60.4707V40.9647H61.3025V36.1666Z" fill="#007167"/>
<path d="M60.8443 35.4433V35.0817C60.8443 34.9852 60.8684 34.9249 60.9046 34.8767C60.9408 34.8285 61.0011 34.8164 61.0854 34.8164H61.4712V34.4789H61.1096C60.8926 34.4789 60.7238 34.5271 60.6273 34.6115C60.5309 34.7079 60.4827 34.8526 60.4827 35.0696V35.4313V35.7568H61.5556V35.4433H60.8443Z" fill="#007167"/>
</svg>
