<svg width="99" height="33" viewBox="0 0 99 33" fill="none" xmlns="http://www.w3.org/2000/svg">
<path d="M20.425 17.1082C19.8762 17.1082 19.4109 17.657 19.4109 18.2296C19.4109 18.8858 19.9 19.3749 20.5562 19.3749C21.2959 19.3749 21.6538 18.9932 21.6538 18.2057C21.6538 17.4661 21.2482 17.1082 20.425 17.1082Z" fill="#6F7271"/>
<path d="M34.1925 9.07896C33.9419 9.26985 33.8107 9.65162 33.8107 10.2481C33.8107 10.3555 33.8107 10.6299 33.8346 11.0952V12.3837H32.3075V8.84035L30.6969 9.62776C30.3986 9.79479 30.2077 10.0334 30.1481 10.3674C30.1242 10.5345 30.1242 11.2145 30.1242 12.3837H28.5136V9.8783L27.3087 10.4748C26.6763 10.7969 26.3542 11.0236 26.3542 11.1548V12.3837H24.5289H23.9801H22.966V8.31542C22.4411 8.67333 21.9519 9.0551 21.4628 9.41301C21.1406 9.66355 20.914 9.96181 20.8305 10.2839C20.7469 10.6061 20.7231 11.3219 20.7231 12.3837H17.0366H16.3804H15.5095C15.5095 10.9878 15.4856 10.1169 15.426 9.81865C15.2351 8.64947 14.6863 8.06488 13.8392 8.06488C13.7557 8.06488 13.3501 8.08874 12.5866 8.14839C11.823 8.17225 11.1907 8.20804 10.6777 8.20804C8.87621 8.20804 8.00529 7.93365 8.02915 7.42064V7.2894C8.2439 7.07466 9.34149 6.3827 11.2742 5.27317C12.9445 4.31874 13.7915 3.57905 13.7915 3.11377C6.88383 6.46621 3.30472 8.29156 3.00646 8.56596C2.81557 8.75684 2.73206 9.11475 2.73206 9.66355C2.73206 9.66355 2.75592 9.8783 2.83943 10.3197C3.11383 10.3197 3.96089 10.2959 5.35674 10.2362C6.77646 10.1766 7.92178 10.1527 8.79269 10.1527C11.8469 10.1527 13.3859 10.451 13.3859 11.0594V12.3479H0.823197L0 14.9726H16.3923H17.0485H23.992H24.5408H26.3662H26.4974H35.2901C35.7554 14.9726 36.0775 14.4238 36.0775 13.9585V8.07681C35.4452 8.39893 34.8248 8.73298 34.1925 9.07896Z" fill="#6F7271"/>
<path d="M83.2979 0H54.0327L38.8811 16.4401L53.9611 32.4268L83.3695 32.4387L98.7001 16.452L83.2979 0ZM82.4389 30.2316L54.9275 30.2197L41.9234 16.4281L55.011 2.21905H82.3435L95.6697 16.4401L82.4389 30.2316Z" fill="#01A85A"/>
<path d="M80.9117 6.6691V6.64524H58.8643V4.30688H56.0129V9.4966H80.4225C82.4745 9.4966 84.0136 11.2981 84.0136 13.6842C84.0136 14.9249 83.5841 16.0345 82.7967 16.8099C82.1166 17.49 81.2218 17.8359 80.2078 17.8359C80.1839 17.8359 80.172 17.8359 80.1481 17.8359H58.2916V20.6754H80.1839C80.1958 20.6754 80.2078 20.6754 80.2316 20.6754C81.9854 20.6754 83.6079 20.0192 84.8248 18.8262C86.1491 17.5138 86.8888 15.6885 86.8888 13.6842C86.8649 9.91417 84.288 6.93157 80.9117 6.6691Z" fill="#01A85A"/>
<path d="M53.4956 19.0529C53.4956 17.8121 53.9251 16.7026 54.7125 15.9271C55.4045 15.2351 56.3112 14.8892 57.3492 14.9011H79.2295V12.0497H57.3372C55.5835 12.0378 53.9251 12.694 52.7082 13.8989C51.384 15.2113 50.6443 17.0366 50.6443 19.0409C50.6443 22.8109 53.2212 25.7935 56.5975 26.056V26.0799H78.6449V28.4182H81.4843V23.2285H57.0867C55.0347 23.2404 53.4956 21.4389 53.4956 19.0529Z" fill="#01A85A"/>
<path d="M4.41423 22.2382L4.55739 21.7371H5.09426C5.09426 22.107 5.09426 22.4768 5.10619 22.8347C5.11812 23.1926 5.13005 23.5506 5.14198 23.8965H4.62897C4.5216 23.3597 4.28299 22.9302 3.94894 22.6319C3.60296 22.3337 3.19733 22.1786 2.70818 22.1786C2.3622 22.1786 2.07587 22.274 1.87305 22.4649C1.65831 22.6558 1.56286 22.9063 1.56286 23.2165C1.56286 23.646 1.98043 24.0516 2.82748 24.4334L2.87521 24.4573C3.99666 24.9703 4.73635 25.4236 5.08233 25.8173C5.42831 26.211 5.60726 26.6882 5.60726 27.2728C5.60726 28.0125 5.35673 28.609 4.85565 29.0505C4.35457 29.5038 3.68647 29.7186 2.85135 29.7186C2.39799 29.7186 2.00429 29.6589 1.68217 29.5396C1.36005 29.4203 1.04986 29.2294 0.775458 28.9669L0.632294 29.5277H0.0834961C0.0954265 29.3368 0.107357 29.1578 0.107357 28.9669C0.107357 28.788 0.119287 28.5971 0.119287 28.4062C0.119287 28.1557 0.119287 27.929 0.107357 27.7023C0.107357 27.4876 0.0954265 27.2728 0.0834961 27.0819H0.608433C0.763528 27.762 1.01407 28.275 1.34812 28.621C1.6941 28.9669 2.12359 29.1459 2.6366 29.1459C3.06609 29.1459 3.41207 29.0385 3.66261 28.8119C3.91315 28.5852 4.04438 28.2869 4.04438 27.9051C4.04438 27.6069 3.94894 27.3563 3.76998 27.1535C3.59103 26.9507 3.14961 26.7002 2.45764 26.39C1.61059 26.0082 1.01407 25.6264 0.691946 25.2447C0.369825 24.8629 0.2028 24.3857 0.2028 23.8011C0.2028 23.1449 0.417547 22.62 0.847041 22.2263C1.27653 21.8206 1.83726 21.6298 2.54116 21.6298C2.94679 21.6298 3.29277 21.6775 3.59103 21.7729C3.88929 21.8803 4.16369 22.0354 4.41423 22.2382Z" fill="#6F7271"/>
<path d="M9.73516 21.6655H10.2959L12.8967 28.1914C13.016 28.5136 13.1711 28.7522 13.3501 28.8834C13.529 29.0146 13.7676 29.0982 14.0778 29.122V29.5992C13.7557 29.5873 13.4336 29.5754 13.0995 29.5754C12.7655 29.5754 12.4314 29.5634 12.0854 29.5634C11.7275 29.5634 11.3935 29.5634 11.0594 29.5754C10.7254 29.5754 10.4152 29.5873 10.105 29.5992V29.122C10.5226 29.0982 10.785 29.0624 10.9043 29.0027C11.0236 28.9431 11.0833 28.8238 11.0833 28.6687C11.0833 28.5852 11.0594 28.4658 11.0236 28.3108C10.9878 28.1557 10.9282 27.9886 10.8566 27.7977L10.6299 27.1893H8.05297L7.85015 27.6427C7.77857 27.8216 7.71892 27.9886 7.6712 28.1437C7.62348 28.2988 7.61155 28.4301 7.61155 28.5016C7.61155 28.7164 7.69506 28.8715 7.85015 28.9789C8.00525 29.0862 8.24386 29.1339 8.57791 29.1339V29.6112C8.3393 29.5992 8.10069 29.5873 7.86208 29.5873C7.62348 29.5873 7.3968 29.5754 7.15819 29.5754C6.93151 29.5754 6.71677 29.5754 6.49009 29.5873C6.26341 29.5873 6.03674 29.5992 5.81006 29.6112V29.1339C6.08446 29.1101 6.32307 29.0266 6.50202 28.8834C6.68098 28.7402 6.83607 28.5255 6.96731 28.2272L9.73516 21.6655ZM9.38917 23.9084L8.29158 26.5928H10.4033L9.38917 23.9084Z" fill="#6F7271"/>
<path d="M14.4236 21.8206C14.5667 21.8325 14.7338 21.8444 14.9127 21.8444C15.0917 21.8444 15.3422 21.8563 15.6882 21.8563C15.8433 21.8563 16.1296 21.8563 16.583 21.8444C17.0244 21.8325 17.3942 21.8325 17.6806 21.8325C18.9452 21.8325 19.8519 21.9995 20.4246 22.3216C20.9972 22.6438 21.2716 23.1687 21.2716 23.8845C21.2716 24.6242 20.9972 25.173 20.4365 25.5309C19.8758 25.8888 19.0168 26.0678 17.8357 26.0678C17.6806 26.0678 17.5732 26.0678 17.4897 26.0678C17.4062 26.0678 17.3346 26.0678 17.2749 26.0558V28.1198C17.2749 28.5135 17.3465 28.776 17.5136 28.9072C17.6686 29.0504 17.955 29.11 18.3845 29.11H18.4441V29.5872C18.0981 29.5753 17.7044 29.5634 17.263 29.5634C16.8216 29.5634 16.3324 29.5514 15.7956 29.5514C15.378 29.5514 15.0917 29.5514 14.9127 29.5634C14.7338 29.5634 14.5906 29.5753 14.4594 29.5872V29.11C14.865 29.0742 15.1275 29.0026 15.2706 28.8714C15.4019 28.7402 15.4735 28.5135 15.4735 28.1675V23.2164C15.4735 22.8466 15.4138 22.608 15.2826 22.4887C15.1513 22.3694 14.8769 22.2978 14.4594 22.262V21.8206H14.4236ZM17.263 25.4951C17.2988 25.4951 17.3346 25.507 17.3823 25.507C17.43 25.507 17.4897 25.507 17.5732 25.507C18.1817 25.507 18.6231 25.3758 18.8855 25.1253C19.148 24.8747 19.2912 24.4452 19.2912 23.8607C19.2912 23.3834 19.1719 23.0136 18.9333 22.7631C18.6947 22.5125 18.3368 22.3813 17.8715 22.3813C17.6329 22.3813 17.4658 22.4051 17.3823 22.4409C17.2988 22.4887 17.263 22.5602 17.263 22.6795V25.4951Z" fill="#6F7271"/>
<path d="M24.2186 21.6655H24.7793L27.3801 28.1914C27.4994 28.5136 27.6545 28.7522 27.8335 28.8834C28.0124 29.0146 28.2511 29.0982 28.5612 29.122V29.5992C28.2391 29.5873 27.9051 29.5754 27.583 29.5754C27.2489 29.5754 26.9149 29.5634 26.5689 29.5634C26.211 29.5634 25.8769 29.5634 25.5429 29.5754C25.2088 29.5754 24.8986 29.5873 24.5884 29.5992V29.122C25.006 29.0982 25.2685 29.0624 25.3878 29.0027C25.5071 28.9431 25.5667 28.8238 25.5667 28.6687C25.5667 28.5852 25.5429 28.4658 25.5071 28.3108C25.4713 28.1557 25.4116 27.9886 25.34 27.7977L25.1134 27.1893H22.5483L22.3455 27.6427C22.2739 27.8216 22.2143 27.9886 22.1666 28.1437C22.1188 28.2988 22.1069 28.4301 22.1069 28.5016C22.1069 28.7164 22.1785 28.8715 22.3455 28.9789C22.5006 29.0862 22.7392 29.1339 23.0733 29.1339V29.6112C22.8347 29.5992 22.5961 29.5873 22.3574 29.5873C22.1188 29.5873 21.8922 29.5754 21.6536 29.5754C21.4269 29.5754 21.2121 29.5754 20.9855 29.5873C20.7588 29.5873 20.5321 29.5992 20.3054 29.6112V29.1339C20.5798 29.1101 20.8184 29.0266 20.9974 28.8834C21.1763 28.7402 21.3314 28.5255 21.4627 28.2272L24.2186 21.6655ZM23.8726 23.9084L22.775 26.5928H24.8867L23.8726 23.9084Z" fill="#6F7271"/>
<path d="M35.1587 22.4052L35.3615 21.7848H35.8387V22.095C35.8387 22.4529 35.8506 22.8108 35.8625 23.1687C35.8745 23.5266 35.9103 23.8726 35.9341 24.2186H35.4569C35.278 23.5863 35.0036 23.1091 34.6218 22.775C34.24 22.441 33.7867 22.2739 33.2617 22.2739C32.534 22.2739 31.9613 22.5841 31.5437 23.2045C31.1262 23.8249 30.9114 24.672 30.9114 25.7576C30.9114 26.7956 31.1262 27.6188 31.5437 28.1914C31.9613 28.776 32.5459 29.0623 33.2856 29.0623C33.894 29.0623 34.3951 28.8714 34.7888 28.4777C35.1825 28.096 35.445 27.5472 35.5643 26.8314H36.0654V26.9029C36.0534 27.5352 36.0534 27.9886 36.0534 28.2749C36.0534 28.442 36.0534 28.609 36.0534 28.7999C36.0534 28.9788 36.0654 29.2294 36.0654 29.5395H35.5881L35.3495 28.8476C34.9558 29.1458 34.5621 29.3725 34.1565 29.5157C33.7628 29.6589 33.3333 29.7304 32.8799 29.7304C31.6869 29.7304 30.7205 29.3725 29.9809 28.6567C29.2412 27.9409 28.8713 26.9984 28.8713 25.8292C28.8713 25.2804 28.9549 24.7793 29.1219 24.3021C29.2889 23.8249 29.5275 23.4073 29.8496 23.0614C30.2553 22.608 30.7325 22.262 31.2574 22.0115C31.7943 21.7729 32.355 21.6536 32.9635 21.6536C33.3572 21.6536 33.7389 21.7132 34.0968 21.8325C34.4428 21.9638 34.8007 22.1546 35.1587 22.4052Z" fill="#6F7271"/>
</svg>
