<svg width="125" height="39" viewBox="0 0 125 39" fill="none" xmlns="http://www.w3.org/2000/svg">
<path d="M49.095 33.649C48.5609 33.649 48.1564 33.7651 47.8822 34.0059L48.1636 34.5671C48.3552 34.4106 48.6568 34.3338 49.0746 34.3338C49.7262 34.3338 50.1238 34.7385 50.2615 35.5478H47.2452V35.5552H46.8742C46.5855 35.5552 46.298 35.2315 46.2836 34.7864C46.2761 34.5801 46.2502 32.2777 46.2502 31.7698H45.5308L45.557 35.0747C45.557 35.3622 45.2698 35.5549 44.9883 35.5549H43.3771C43.1987 34.3274 42.5747 33.7167 41.5114 33.7167L42.4573 32.7911L41.9436 32.2906L40.0998 34.1491L40.3666 34.7103C40.6959 34.4986 41.0381 34.3882 41.3881 34.3882C41.7099 34.3882 41.9917 34.4842 42.2178 34.6772C42.4644 34.8889 42.6154 35.1776 42.6762 35.5549H40.0229C39.4338 35.5748 39.0697 35.2807 38.9334 34.6625C38.8709 34.3755 38.7404 34.1416 38.5286 33.9575C38.2878 33.7443 38.0003 33.6415 37.658 33.6415C37.0473 33.6415 36.6569 33.9025 36.4857 34.4305H35.8402C35.238 34.4305 34.9367 34.7308 34.9422 35.3285L34.9771 37.7076H35.6967L35.6691 35.7114C35.663 35.5198 35.6834 35.3822 35.7169 35.3067C35.7794 35.198 35.8952 35.1427 36.0666 35.1427H36.4238C36.4716 35.4446 36.6019 35.6984 36.8211 35.8972C37.0547 36.109 37.3494 36.219 37.7119 36.219C38.227 36.219 38.5897 36.0205 38.8026 35.623C39.0544 36.0241 39.4199 36.2221 39.8869 36.2185V36.219H45.2629C45.6403 36.219 45.9897 35.9929 46.1202 35.6633C46.2236 35.9785 46.5106 36.219 46.8122 36.219H51.0016C51.0016 35.5126 50.8711 34.9368 50.6043 34.4842C50.2676 33.9301 49.7611 33.649 49.095 33.649ZM37.7188 35.6307C37.575 35.6307 37.4446 35.5754 37.3417 35.4579C37.2256 35.3288 37.1631 35.1505 37.1631 34.9373C37.1631 34.7181 37.2181 34.5467 37.3212 34.4162C37.4169 34.3 37.5402 34.2448 37.6854 34.2448C37.8363 34.2448 37.9654 34.3 38.0685 34.4162C38.1858 34.5467 38.2466 34.7253 38.2466 34.9373C38.2466 35.3769 38.0204 35.6307 37.7188 35.6307ZM48.8833 37.2613H49.5421V36.5693H48.8833V37.2613ZM52.374 30.845C52.374 30.7419 52.4146 30.6871 52.4973 30.6871C52.5656 30.6871 52.6264 30.7145 52.6814 30.7767L52.8468 30.5229C52.7439 30.3924 52.6261 30.3302 52.4826 30.3302C52.2288 30.3302 52.0303 30.5436 52.0303 30.8176C52.0303 30.9006 52.0502 30.9686 52.0928 31.0294H51.7981L51.64 31.3661H52.86V31.0294H52.6336C52.4627 31.0294 52.374 30.9686 52.374 30.845ZM51.8938 31.7836L51.9269 36.2204H52.648L52.6134 31.7836H51.8938ZM56.7414 33.0324H56.0768V33.7244H56.7414V33.0324ZM61.2598 33.6409C60.4721 33.6409 60.012 34.1358 60.012 34.9307C60.012 35.1499 60.0599 35.3559 60.1558 35.5547H59.3272V35.5552H58.8387C58.7082 35.5552 58.5924 35.5002 58.4821 35.3824C58.3513 35.2533 58.2703 35.0822 58.2484 34.8759L58.2426 34.3683H57.5086L57.5434 35.7742C57.5492 36.096 57.4406 36.3774 57.2214 36.6097C57.0079 36.8505 56.7469 36.9666 56.4395 36.9666C56.1304 36.9666 55.8708 36.8505 55.6574 36.6171C55.4456 36.3907 55.3355 36.1093 55.3355 35.7875C55.3355 35.7595 55.3355 35.5403 55.3281 35.13V34.3755H54.5954C54.5954 34.4507 54.6026 34.6976 54.6087 35.1225C54.6159 35.4927 54.6231 35.7117 54.6231 35.7742C54.6231 36.3081 54.8014 36.7681 55.1567 37.1452C55.5136 37.5223 55.9388 37.7136 56.4395 37.7136C56.9327 37.7136 57.3579 37.5295 57.7074 37.1579C58.0643 36.788 58.2484 36.3429 58.2556 35.8145C58.4138 36.0816 58.6184 36.2193 58.8796 36.2193H59.4558V36.2188H61.3427C62.1102 36.2188 62.5625 35.7255 62.5625 34.9304C62.5625 34.5953 62.4525 34.2998 62.2332 34.0526C61.9797 33.7786 61.6573 33.6409 61.2598 33.6409ZM61.3222 35.6301C61.1771 35.6301 61.048 35.5751 60.9449 35.4587C60.8276 35.3282 60.7668 35.1499 60.7668 34.9379C60.7668 34.7189 60.8144 34.5464 60.9178 34.417C61.0134 34.2998 61.1367 34.2442 61.2949 34.2442C61.4381 34.2442 61.5691 34.2998 61.672 34.417C61.7881 34.5464 61.8506 34.7247 61.8506 34.9379C61.8503 35.3761 61.6242 35.6301 61.3222 35.6301ZM67.4245 34.3678L67.4591 35.7736C67.4591 36.1032 67.349 36.3846 67.1298 36.618C66.9166 36.8502 66.6568 36.9677 66.3548 36.9677C66.0458 36.9677 65.7848 36.8505 65.573 36.618C65.3612 36.3918 65.2509 36.1104 65.2509 35.788C65.2437 35.3761 65.2437 34.9033 65.2437 34.3752H64.5113L64.5373 35.7734C64.5373 36.3161 64.7159 36.7689 65.0726 37.1444C65.4295 37.5218 65.8547 37.7147 66.3551 37.7147C66.8558 37.7147 67.2866 37.5218 67.6363 37.1444C67.9929 36.7689 68.1715 36.3161 68.1715 35.7811L68.1583 34.3678H67.4245ZM66.6568 33.0316H65.9924V33.7236H66.6568V33.0316ZM72.9921 32.0037H72.3333V32.6957H72.9921V32.0037ZM71.9982 32.0037H71.3393V32.6957H71.9982V32.0037ZM75.8862 32.4704H75.2276V33.1624H75.8862V32.4704ZM74.8926 32.4704H74.234V33.1624H74.8926V32.4704ZM75.2016 33.7181C75.2075 33.8878 75.2074 34.1217 75.2146 34.4029C75.2218 34.5887 75.2218 34.8148 75.2218 35.0819C75.2218 35.3893 75.0233 35.5549 74.7549 35.5549H73.947V35.5552H73.6918C73.3971 35.5552 73.1577 35.5334 72.9722 35.5002C73.294 35.1781 73.4521 34.8209 73.4521 34.4162C73.4521 34.0391 73.3216 33.7446 73.062 33.5254C72.8284 33.3266 72.5337 33.2237 72.1842 33.2237C71.8345 33.2237 71.5403 33.3266 71.3064 33.5254C71.0526 33.7443 70.9222 34.0391 70.9222 34.4162C70.9222 34.8209 71.0875 35.1836 71.4093 35.5002C71.2384 35.5334 70.9973 35.5552 70.7029 35.5552H70.1342C69.9415 35.5552 69.8182 35.3692 69.8182 35.1225L69.7906 31.7844H69.0637L69.0842 35.4098C69.0842 35.6708 69.1668 35.877 69.3178 36.0205C69.4483 36.151 69.6122 36.219 69.8055 36.219H71.0737C71.438 36.219 71.8149 36.1438 72.192 35.9857C72.568 36.1436 72.9451 36.219 73.3222 36.219H74.0767V36.2188H75.0239C75.6202 36.2188 75.9423 35.8765 75.9423 35.3282C75.9423 35.3354 75.9351 34.8002 75.9279 33.7178H75.2016V33.7181ZM72.4986 34.9998C72.3753 35.1505 72.2722 35.2259 72.1912 35.2259C72.1085 35.2259 72.0054 35.1505 71.8821 34.9998C71.7242 34.8065 71.6487 34.602 71.6487 34.3888C71.6487 34.0537 71.8547 33.7723 72.1912 33.7723C72.3554 33.7723 72.4859 33.8347 72.5887 33.9639C72.6772 34.0814 72.7247 34.2179 72.7247 34.3888C72.7247 34.602 72.6495 34.8065 72.4986 34.9998ZM77.3122 37.1317C77.3122 37.0285 77.3545 36.9735 77.4369 36.9735C77.5052 36.9735 77.5663 37.0084 77.621 37.0636L77.7867 36.8098C77.6835 36.6794 77.566 36.6169 77.4223 36.6169C77.1682 36.6169 76.9697 36.83 76.9697 37.1043C76.9697 37.187 76.9901 37.2555 77.0322 37.3174H76.7361L76.5796 37.6525H77.7996V37.3174H77.5735C77.4021 37.3172 77.3122 37.2552 77.3122 37.1317ZM78.9583 37.2624H79.6172V36.5704H78.9583V37.2624ZM79.542 33.7181C79.5478 33.8878 79.5478 34.1217 79.555 34.4029C79.5621 34.5887 79.5621 34.8148 79.5621 35.0819C79.5621 35.3893 79.3636 35.5549 79.0949 35.5549H78.4162V35.5547H77.9025C77.7112 35.5547 77.5865 35.3703 77.5865 35.122L77.5602 31.7839H76.8334L76.8536 35.4109C76.8536 35.6705 76.9365 35.8765 77.0869 36.0202C77.2163 36.1507 77.3813 36.2188 77.5732 36.2188H78.2865V36.219H79.3631C79.9592 36.219 80.2815 35.8768 80.2815 35.3285C80.2815 35.3357 80.2743 34.8005 80.2672 33.7181H79.542ZM96.856 32.4762H96.1916V33.1682H96.856V32.4762ZM96.9099 33.7181H96.1844C96.1905 33.8878 96.1905 34.1217 96.1977 34.4029C96.2049 34.5887 96.2049 34.8148 96.2049 35.0819C96.2049 35.3893 96.0061 35.5549 95.7379 35.5549H94.9298V35.5552H93.9749C93.7907 35.5552 93.66 35.5334 93.5701 35.4853C94.0506 35.0877 94.4349 34.6149 94.7166 34.0739C94.2433 33.6083 93.5239 33.3266 92.7623 33.3266C92.1239 33.3266 91.5552 33.5113 91.0473 33.8823V34.4438C91.5491 34.4715 92.0484 34.7864 92.5488 35.3827C92.2818 35.5002 92.0224 35.5555 91.7681 35.5555H90.1358C90.1358 35.2118 90.0183 34.9171 89.7924 34.6702C89.553 34.4037 89.2306 34.2658 88.8261 34.2658C88.0512 34.2658 87.571 34.759 87.571 35.5558H87.0896L86.4731 35.5555C86.1787 35.5555 85.8969 35.2608 85.8839 34.9246L85.8638 31.7095H85.1294L85.1773 35.7745C85.1773 36.4115 84.6841 36.9672 84.0733 36.9672C83.7645 36.9672 83.5121 36.8508 83.2915 36.6174C82.9213 36.2199 82.9838 36.117 82.9636 35.1306L82.9492 34.3761H82.2295C82.2295 34.3761 82.2569 35.7341 82.2569 35.7745C82.2569 36.8306 83.08 37.7145 84.0733 37.7145C85.0614 37.7145 85.877 36.851 85.8914 35.8154C86.0482 36.0838 86.2613 36.2201 86.5154 36.2201H86.9613H87.7493C87.9887 36.6382 88.3661 36.8441 88.8809 36.8441C89.4222 36.8441 89.7921 36.6379 89.9909 36.2201H91.7742C92.1513 36.2201 92.5488 36.1101 92.9536 35.8911C93.1394 36.1101 93.3727 36.2201 93.653 36.2201H95.0584V36.2199H96.0061C96.6024 36.2199 96.9245 35.8776 96.9245 35.3293C96.9245 35.3357 96.9173 34.8005 96.9099 33.7181ZM88.8883 36.2469C88.7429 36.2469 88.6127 36.1922 88.5096 36.0758C88.3935 35.9453 88.3326 35.7742 88.3326 35.5552C88.3326 35.3346 88.3863 35.1635 88.4894 35.0402C88.5867 34.924 88.7097 34.869 88.861 34.869C89.0047 34.869 89.1347 34.924 89.2364 35.0402C89.3539 35.1706 89.415 35.3421 89.415 35.5552C89.4147 36.0006 89.1886 36.2469 88.8883 36.2469ZM93.1114 35.0128C92.7689 34.5469 92.4051 34.2583 92.0219 34.1566C92.248 34.0537 92.5007 33.999 92.7747 33.999C93.2065 33.999 93.5433 34.0874 93.7902 34.2729C93.619 34.5541 93.3926 34.8007 93.1114 35.0128Z" fill="#F79045"/>
<path d="M13.0602 1.86888C15.9324 2.21973 19.7568 3.92693 22.1229 6.56142C19.0264 2.73672 14.834 0.151167 10.7995 0.00657301C4.254 -0.231745 0.598775 6.04 2.63747 14.0096C2.92362 15.1174 3.2999 16.2053 3.76133 17.2539C4.40799 18.8649 5.30874 20.4947 6.476 22.0656C7.24071 23.1057 8.0881 24.0825 8.98691 24.9921C8.35379 24.3183 7.75993 23.6106 7.20947 22.8674C1.86612 15.6446 2.53739 7.65819 8.99631 5.34385C11.8127 4.3339 15.4583 4.77487 18.845 5.9037C15.6463 3.66871 11.7699 2.27364 7.46549 3.73313C5.87467 4.27612 4.67368 5.26118 3.84703 6.55562C5.19317 3.16691 8.18072 1.27613 13.0602 1.86888Z" fill="#14539B"/>
<path d="M27.1639 16.8063H27.1139C30.9375 23.1222 31.7807 29.5847 29.264 33.0448C25.851 37.7401 16.945 35.1559 9.37107 27.2602C1.97989 19.5475 -1.40494 9.62824 1.63458 4.79663C1.5638 4.88427 1.49331 4.97302 1.4275 5.06536C-2.22661 10.0817 1.37719 20.9945 9.46922 29.4352C17.5624 37.8687 27.084 40.6369 30.7323 35.6165C33.6179 31.6497 31.9709 24.0039 27.1639 16.8063Z" fill="#F79045"/>
<path d="M25.3789 13.6905C26.338 14.8566 26.6363 16.2 26.0424 16.694C25.4469 17.19 24.1793 16.647 23.2166 15.4823C22.2562 14.3225 21.9565 12.9785 22.5528 12.4828C23.1461 11.991 24.414 12.5279 25.3789 13.6905Z" fill="#F79045"/>
<path d="M107.313 12.6501C106.852 12.2816 106.392 11.9164 105.942 11.5553C107.047 11.215 107.878 10.9626 108.428 10.7975C108.565 10.3286 108.681 9.90368 108.765 9.51331L105.079 10.6009C105.013 10.8583 104.949 11.1132 104.892 11.3612C104.801 11.68 104.761 11.9363 104.761 12.1213C104.761 12.1898 104.9 12.3717 105.183 12.6612C105.466 12.9568 105.645 13.1025 105.724 13.1025C105.812 13.1025 105.878 13.0552 105.92 12.9639L107.223 13.9778H104.311C104.009 13.9778 103.83 13.8835 103.762 13.7049C103.655 13.3767 103.535 12.826 103.401 12.0574C103.257 11.1605 103.142 10.5686 103.08 10.2996L103.019 10.2642L102.318 11.4635C102.334 11.5763 102.38 11.6955 102.434 11.8205C102.008 12.0618 101.585 12.2976 101.156 12.5418C100.863 12.7273 100.643 12.954 100.506 13.2089C100.365 13.4666 100.212 13.9335 100.037 14.6239L102.154 14.9971C102.252 15.0189 102.389 14.8915 102.55 14.6131C102.728 14.2838 102.845 14.0991 102.9 14.0554C102.976 14.3137 103.053 14.5586 103.134 14.8063C103.267 15.1044 103.458 15.2504 103.709 15.2504H107.949C108.196 14.4522 108.324 13.9946 108.324 13.8757C108.324 13.6443 107.987 13.2363 107.313 12.6501ZM101.591 13.3192C101.77 13.181 101.912 13.0718 102.041 13.022C102.286 12.7848 102.462 12.5935 102.561 12.4442L102.773 13.4765L101.591 13.3192ZM72.8046 11.5183L72.1394 12.6609C72.4731 13.1157 72.7109 13.5553 72.8599 13.9775H69.8632C69.5544 13.9775 69.3758 13.8824 69.3153 13.7041C69.1992 13.3762 69.0783 12.8249 68.9495 12.0568C68.8046 11.1605 68.6905 10.5683 68.6205 10.2993L68.5605 10.2639L67.8619 11.4633C67.8873 11.5758 67.9268 11.6947 67.9808 11.8202C67.5517 12.061 67.1265 12.2976 66.7084 12.5415C66.4143 12.7262 66.197 12.954 66.0507 13.2083C65.9152 13.4663 65.7585 13.933 65.5865 14.6233L67.7007 14.9966C67.8035 15.0189 67.9291 14.8912 68.0972 14.6128C68.2785 14.2833 68.3894 14.0989 68.4474 14.0546C68.5262 14.3139 68.6028 14.5584 68.6822 14.8058C68.8127 15.1047 69.002 15.2504 69.2567 15.2504H73.4488C73.6186 14.3562 73.7059 13.7497 73.7059 13.4337C73.7059 12.8777 73.4082 12.2365 72.8046 11.5183ZM67.1431 13.3192C67.3089 13.1807 67.4602 13.0718 67.5829 13.0223C67.8298 12.7851 68.0095 12.5932 68.1063 12.4439L68.3216 13.4762L67.1431 13.3192ZM71.9467 16.3134C71.8077 16.4713 71.7073 16.5467 71.6523 16.5467C71.5669 16.5467 71.2868 16.3853 70.8265 16.056C70.594 16.3195 70.3852 16.5841 70.1986 16.8495C70.3852 17.0176 70.6799 17.2111 71.0864 17.4223C71.3219 17.1801 71.4975 17.0062 71.6086 16.9006L72.4928 17.4223C72.6968 17.2562 72.9196 16.9943 73.1577 16.6167L72.2376 16.0463C72.1922 16.0687 72.096 16.1564 71.9467 16.3134ZM61.4295 10.0372C61.3902 9.93741 61.3734 9.80692 61.3612 9.64988L61.2874 9.59155C61.04 9.86526 60.7668 10.3223 60.463 10.9623C60.5813 11.1155 60.706 11.2388 60.8182 11.3206C60.889 11.4962 60.9739 11.9034 61.0773 12.5556C61.1757 13.2017 61.2299 13.6363 61.2299 13.8569C61.2299 13.8959 61.2166 13.9327 61.1939 13.9775H60.32C60.1359 13.9775 60.027 13.9689 60.0076 13.9648C59.897 13.9471 59.8362 13.8821 59.8207 13.777C59.7804 13.4934 59.73 12.7942 59.6595 11.677C59.6053 10.797 59.5047 10.1022 59.375 9.58823L59.3341 9.55257L58.4281 10.8221L58.9012 13.9775H57.6858V13.9786H57.4638C57.1296 13.9786 56.6609 13.6485 56.0709 12.991C55.6571 12.5155 55.2443 12.0414 54.8301 11.5691L57.4809 11.0331C57.6211 10.5962 57.7331 10.1752 57.8188 9.77927C57.7248 9.76573 56.5636 9.99796 54.3281 10.4834C54.1124 11.0516 53.9507 11.6336 53.8503 12.2222L55.6734 13.9789H53.8614V13.9778H52.7624C52.8979 13.6698 53.0234 13.3596 53.1475 13.0563C53.3137 12.6449 53.3922 12.3341 53.3922 12.1273V11.4569C53.0383 11.4569 52.6327 11.6637 52.1799 12.069C51.7903 12.4099 51.4871 12.7649 51.2653 13.1536C51.1039 13.5147 50.9872 13.7853 50.9206 13.9778H50.3079C49.8197 13.9778 49.4531 13.8047 49.1882 13.4671C48.9504 13.1157 48.7215 12.7649 48.4879 12.4096C48.424 12.492 48.2988 12.6858 48.1091 12.9974C47.9148 13.3079 47.8235 13.4887 47.8235 13.5343C47.8235 13.5523 47.9394 13.7038 48.1614 14.0029C48.3881 14.2929 48.4992 14.5022 48.4992 14.6374C48.4992 14.9125 48.1691 15.2645 47.5252 15.6969C46.8838 16.1304 46.3975 16.3474 46.061 16.3474C45.8437 16.3474 45.596 16.2694 45.311 16.1055C45.0353 15.9498 44.9076 15.8694 44.9305 15.8694C44.888 15.8694 44.8717 15.8757 44.8717 15.8965V16.0458C45.0809 16.2846 45.463 16.5293 46.0055 16.8088C46.5603 17.0806 46.9767 17.2136 47.2612 17.2136C47.693 17.2136 48.0776 16.9642 48.4315 16.4558C48.6853 16.0242 48.9192 15.6015 49.1581 15.1771L49.2181 15.1096C49.4124 15.2075 49.5645 15.2498 49.6748 15.2498H50.5343C50.5658 15.2498 50.6601 15.3938 50.8 15.6805C50.9875 16.0377 51.1586 16.3059 51.3046 16.4823C51.5365 16.7729 51.7845 16.9133 52.0234 16.9133C52.6637 16.9133 53.1511 16.3596 53.4975 15.2539H55.7146L56.1965 14.4608L57.0402 15.2539H58.0051V15.2498H58.5064L58.9203 14.4782C58.928 14.6283 58.9352 14.7751 58.9451 14.9241C58.9775 15.1439 59.0378 15.2495 59.1318 15.2495H61.5218C61.6272 15.1953 61.6874 15.1558 61.7051 15.1315C61.7585 15.0624 61.8243 14.8318 61.9117 14.4359C61.9974 14.035 62.035 13.7922 62.0181 13.6938L61.8873 12.1127L62.7955 10.9352C62.5868 10.8401 62.3358 10.7024 62.0477 10.5263C61.6758 10.3048 61.4707 10.1384 61.4295 10.0372ZM52.69 15.6582H52.4221C52.2233 15.6582 52.0234 15.5899 51.8415 15.4572C51.6563 15.3253 51.5161 15.1641 51.4359 14.9728C51.6587 14.9728 51.8954 15.0261 52.1453 15.1309C52.4218 15.2506 52.6065 15.4052 52.6897 15.5763L52.69 15.6582ZM52.3289 13.4162C52.0881 13.5147 51.8307 13.6089 51.5849 13.7121H51.5036C51.9866 13.0875 52.3751 12.6797 52.6568 12.4934C52.6844 12.5683 52.69 12.654 52.69 12.7618C52.69 13.0718 52.5705 13.2927 52.3289 13.4162ZM116.909 15.2504H118.472C118.573 15.1047 118.656 14.9963 118.708 14.9247C118.778 15.0723 118.826 15.1779 118.859 15.2504H120.964C121.069 15.1962 121.136 15.1566 121.148 15.1323C121.199 15.0632 121.272 14.8326 121.357 14.4367C121.449 14.0358 121.477 13.7928 121.467 13.6947L121.325 12.1135L122.246 10.936C122.032 10.8409 121.785 10.703 121.496 10.5271C121.122 10.3048 120.917 10.1384 120.877 10.0367C120.831 9.93742 120.81 9.80664 120.807 9.64988L120.739 9.59155C120.488 9.86526 120.209 10.3223 119.911 10.9623C120.029 11.1152 120.148 11.2388 120.268 11.3206C120.338 11.4962 120.422 11.9031 120.518 12.5556C120.623 13.2017 120.677 13.6363 120.677 13.8567C120.677 13.8959 120.66 13.933 120.632 13.9772H119.52C119.158 13.9772 118.982 13.7295 118.982 13.247C118.987 13.215 118.995 13.1564 118.995 13.0812C118.995 13.0007 118.987 12.9476 118.982 12.9053C118.982 12.7032 118.966 12.5407 118.935 12.4093C118.842 12.4699 118.692 12.6255 118.484 12.8879C118.273 13.1514 118.17 13.3328 118.17 13.4215C118.17 13.4668 118.179 13.5343 118.203 13.6255C118.227 13.7165 118.24 13.7845 118.24 13.8334C118.24 13.8821 118.222 13.928 118.179 13.9772C117.643 13.9504 117.342 13.9504 117.298 13.9772C117.43 13.4331 117.495 12.9266 117.495 12.4439C117.495 12.4096 117.479 12.3654 117.459 12.3184C117.337 12.4276 117.17 12.6258 116.956 12.9056C116.724 13.228 116.611 13.4436 116.611 13.5525C116.611 13.7649 116.571 13.9059 116.508 13.9772H115.474C115.714 13.2993 115.827 12.8553 115.827 12.6446L115.795 12.3507C115.684 12.3969 115.514 12.5514 115.286 12.8069C115.061 13.0707 114.951 13.252 114.951 13.359C114.951 13.5788 114.903 13.7842 114.796 13.9769H113.652C113.171 13.9769 112.799 13.8041 112.533 13.4666C112.303 13.1152 112.068 12.7641 111.836 12.4091C111.775 12.4912 111.645 12.6853 111.455 12.9974C111.271 13.3076 111.175 13.4881 111.175 13.534C111.175 13.552 111.288 13.7035 111.508 14.0026C111.736 14.2927 111.851 14.502 111.851 14.6371C111.851 14.912 111.523 15.2639 110.875 15.6966C110.233 16.1301 109.743 16.3474 109.407 16.3474C109.189 16.3474 108.944 16.2692 108.661 16.1052C108.378 15.9496 108.25 15.8691 108.273 15.8691C108.235 15.8691 108.219 15.8755 108.219 15.8962V16.0455C108.428 16.2841 108.804 16.529 109.355 16.8085C109.902 17.08 110.316 17.2133 110.605 17.2133C111.037 17.2133 111.431 16.9636 111.787 16.4555C112.029 16.0239 112.273 15.6012 112.511 15.1768L112.568 15.1096C112.767 15.2067 112.914 15.2495 113.023 15.2495H114.502C114.572 15.2495 114.644 15.202 114.736 15.1052C114.82 15.0096 114.881 14.9482 114.917 14.9238C114.984 15.0419 115.02 15.1533 115.027 15.2495H116.405C116.434 15.2495 116.473 15.2166 116.542 15.1472C116.609 15.0762 116.654 15.0383 116.674 15.0383C116.73 15.0394 116.805 15.1107 116.909 15.2504ZM44.2803 16.738C44.2803 16.6808 44.1445 16.5271 43.8576 16.2708C43.5695 16.0151 43.4061 15.8813 43.3569 15.8813C43.3115 15.8813 43.1492 16.0151 42.8811 16.2708C42.6112 16.5268 42.4805 16.6772 42.4805 16.727C42.4805 16.7734 42.6085 16.9003 42.8739 17.1124C43.1293 17.3225 43.2955 17.4372 43.3665 17.4419C43.982 17.0983 44.2803 16.8616 44.2803 16.738ZM35.4924 14.9811C35.7216 15.0391 35.9505 15.0983 36.1742 15.1638C35.9394 15.2871 35.7265 15.4458 35.5308 15.6405C35.2886 15.8882 35.1719 16.1094 35.1791 16.3062V16.3858C35.9817 15.6656 36.922 15.2869 37.9944 15.2542C38.2516 14.8976 38.4835 14.5578 38.6829 14.2396C37.1529 14.2396 36.261 14.0989 35.9873 13.8C36.248 13.6073 36.4451 13.5097 36.5949 13.5097C36.7227 13.5097 36.8758 13.5578 37.0373 13.6526C37.1664 13.7472 37.301 13.8381 37.4326 13.9197C37.7675 13.4162 37.9372 13.1497 37.9372 13.1036C37.9372 12.9352 37.8606 12.7826 37.7017 12.6532C37.543 12.5197 37.3768 12.4527 37.2035 12.4527C36.6898 12.4527 36.2046 12.6665 35.7514 13.1016C35.3008 13.5343 35.076 14.0043 35.076 14.518C35.0763 14.7405 35.2209 14.8959 35.4924 14.9811ZM93.4623 15.1326C93.5118 15.0635 93.5853 14.8326 93.6652 14.4367C93.7509 14.0358 93.7893 13.7931 93.7722 13.6947L93.6389 12.1138L94.5513 10.936C94.3387 10.8415 94.0932 10.7035 93.8056 10.5274C93.4319 10.3048 93.2195 10.1387 93.1844 10.0369C93.1416 9.93769 93.1225 9.80692 93.1183 9.64961L93.0418 9.59182C92.7921 9.86553 92.5178 10.3228 92.2173 10.9623C92.3401 11.1155 92.4609 11.2393 92.5784 11.3206C92.6481 11.4962 92.7302 11.9037 92.8286 12.5559C92.935 13.202 92.9782 13.6366 92.9782 13.8569C92.9782 13.8962 92.9682 13.9333 92.95 13.9775H91.8283C91.4689 13.9775 91.2892 13.7298 91.2892 13.2476C91.2942 13.2147 91.3036 13.1564 91.3036 13.0814C91.3036 13.0007 91.2945 12.9479 91.2892 12.9053C91.2892 12.7038 91.2734 12.5415 91.2425 12.4099C91.1501 12.4704 90.9997 12.6258 90.7891 12.8882C90.5765 13.1517 90.4761 13.333 90.4761 13.4226C90.4761 13.4671 90.4913 13.5354 90.5112 13.6261C90.5325 13.7168 90.5488 13.7856 90.5488 13.8337C90.5488 13.8827 90.5217 13.9285 90.4913 13.9778C89.9456 13.9509 89.6508 13.9509 89.6052 13.9778C89.7354 13.4265 89.7957 12.9186 89.7957 12.4417C89.7957 12.4035 89.788 12.356 89.7647 12.3129C89.6406 12.4204 89.472 12.6189 89.261 12.9004C89.0296 13.2197 88.9174 13.4381 88.9174 13.5484C88.9174 13.7599 88.8806 13.9064 88.8123 13.9778H87.7816C88.01 13.2999 88.1372 12.8556 88.1372 12.6449L88.1098 12.3513C87.9915 12.3977 87.8211 12.552 87.5958 12.8075C87.3686 13.0712 87.256 13.2526 87.256 13.3598C87.256 13.5794 87.2082 13.7853 87.107 13.9775H85.3982C85.4864 13.8384 85.5679 13.7013 85.6412 13.5683C85.7518 13.3991 85.7963 13.2587 85.7963 13.1514C85.7963 12.8351 85.6235 12.5517 85.2862 12.3126C84.9638 12.0955 84.6439 11.9886 84.3158 11.9886C83.7731 11.9886 83.3678 12.1213 83.1148 12.3941C82.9669 12.5514 82.7689 12.9183 82.503 13.5144C82.7573 13.4854 82.8989 13.4663 82.9226 13.4663C83.2892 13.4663 83.5936 13.6366 83.8355 13.9775H81.6669C81.4587 12.6338 81.0921 11.9667 80.5585 11.9667C80.2174 11.9667 79.8787 12.2949 79.5348 12.9454C79.2304 13.5271 79.0813 14.0032 79.0813 14.3662C79.0813 14.7057 79.2799 14.9413 79.6727 15.074C79.7264 15.0969 80.0617 15.1635 80.6865 15.2725C80.4045 15.5423 80.0584 15.7931 79.6575 16.0071C79.1947 16.2492 78.7977 16.3659 78.4529 16.3659C78.3498 16.3659 78.1806 16.3347 77.9558 16.2747C77.7247 16.2139 77.558 16.1851 77.4399 16.1851C77.4062 16.1851 77.3686 16.1984 77.336 16.2277V16.3347C77.5339 16.568 77.8552 16.7632 78.3031 16.933C78.7283 17.0983 79.1062 17.1798 79.4319 17.1798C79.8314 17.1798 80.2469 16.946 80.6766 16.4884C81.0067 16.1212 81.2716 15.7065 81.4778 15.2504H83.9633C84.1327 14.9938 84.2627 14.7992 84.336 14.6617C84.4941 14.9222 84.6041 15.119 84.6757 15.2504H86.8106C86.8762 15.2504 86.9575 15.2034 87.0454 15.106C87.1316 15.0104 87.1894 14.949 87.2251 14.9247C87.2892 15.0427 87.3265 15.1541 87.3368 15.2504H88.7139C88.7296 15.2504 88.7775 15.2175 88.8444 15.1481C88.9151 15.0767 88.9561 15.0389 88.9829 15.0389C89.0326 15.0389 89.1054 15.1102 89.2085 15.2504H90.781C90.8825 15.1047 90.9588 14.9963 91.0138 14.9247C91.0763 15.0726 91.1313 15.1776 91.1631 15.2504H93.2737C93.3851 15.1962 93.4404 15.1566 93.4623 15.1326ZM80.5035 13.9775C80.1665 13.9775 79.9379 13.8569 79.8021 13.6258C79.8115 13.6084 79.8115 13.5943 79.8021 13.5794C79.7946 13.5174 79.8403 13.4439 79.9473 13.3413C80.0487 13.2368 80.1325 13.1846 80.1864 13.1846C80.2992 13.1846 80.4189 13.2794 80.5273 13.4668C80.5411 13.489 80.6124 13.6349 80.7396 13.912C80.657 13.954 80.5854 13.9775 80.5035 13.9775ZM116.724 11.2808L117.716 11.7773C118.099 11.5075 118.341 11.2504 118.426 11.0118L117.424 10.45C117.323 10.5501 117.218 10.6474 117.111 10.7417C116.924 10.9006 116.829 10.9739 116.801 10.9739C116.673 10.9739 116.376 10.8072 115.917 10.4746C115.55 10.8069 115.301 11.0679 115.169 11.2446C115.762 11.5855 116.094 11.7605 116.171 11.7605C116.162 11.7602 116.34 11.6018 116.724 11.2808ZM44.8835 15.2501C45.1177 15.2501 45.2347 14.6618 45.2347 13.4884C45.2347 13.1157 45.1542 12.7353 44.9922 12.3411C44.8294 11.949 44.6049 11.6432 44.3364 11.4193L43.6524 12.6261C43.7954 12.745 43.943 12.9537 44.1114 13.2473C44.2808 13.5465 44.3657 13.777 44.3657 13.9357C44.3657 13.965 44.3571 13.9778 44.353 13.9778H41.752C41.5211 13.9778 41.3992 13.9125 41.3746 13.7906C41.2748 13.3712 41.1871 12.6919 41.1155 11.7367C41.0724 11.0325 41.0229 10.3239 40.9784 9.61533C40.8952 9.685 40.7517 9.86028 40.5305 10.139C40.2941 10.4417 40.1816 10.6175 40.1816 10.675L40.5852 15.2504L44.8835 15.2501ZM124.412 13.3654C124.412 12.6795 124.301 11.5785 124.072 10.0585C123.641 10.6524 123.353 11.1633 123.205 11.5918L123.732 15.3521C124.182 14.8224 124.412 14.16 124.412 13.3654ZM101.148 10.2866C101.678 10.6106 102.008 10.7807 102.108 10.7807C102.155 10.7807 102.274 10.6637 102.472 10.4411C102.642 10.236 102.755 10.0884 102.805 9.99824L101.827 9.47184C101.406 9.79531 101.2 9.95898 101.208 9.95898C101.075 9.95898 100.784 9.79531 100.33 9.47184C99.943 9.89982 99.7097 10.1583 99.6425 10.2507C100.057 10.5166 100.38 10.6861 100.613 10.7519C100.89 10.4981 101.069 10.3424 101.148 10.2866ZM116.336 10.3637C116.548 10.5393 116.673 10.6267 116.71 10.6267C116.78 10.6267 116.909 10.5426 117.097 10.3781C117.257 10.2341 117.367 10.1207 117.417 10.0439C117.01 9.63136 116.773 9.4229 116.71 9.41516C116.247 9.75826 116.023 9.97667 116.023 10.0557C116.023 10.0864 116.127 10.1868 116.336 10.3637ZM66.6941 10.2866C67.231 10.6106 67.5514 10.7807 67.6545 10.7807C67.7001 10.7807 67.8193 10.6637 68.0114 10.4411C68.1862 10.236 68.3006 10.0884 68.3532 9.99824L67.3742 9.47184C66.9501 9.79531 66.7494 9.95898 66.7585 9.95898C66.6214 9.95898 66.33 9.79531 65.8776 9.47184C65.4906 9.89982 65.2575 10.1583 65.1876 10.2507C65.5968 10.5166 65.9252 10.6861 66.1558 10.7519C66.4361 10.4981 66.615 10.3424 66.6941 10.2866ZM77.5323 13.907C77.5323 12.6582 76.9409 11.7663 75.7607 11.2388L75.3584 12.5805C75.5845 12.6109 75.8674 12.7942 76.2218 13.1182C76.5638 13.4467 76.7383 13.7165 76.7383 13.928C76.7383 13.9415 76.736 13.9565 76.728 13.9772H74.4447L74.3291 15.2501H77.1433C77.4043 15.2504 77.5323 14.8044 77.5323 13.907ZM96.7199 13.3654C96.7199 12.6792 96.6068 11.5785 96.3821 10.0585C95.9522 10.6521 95.6624 11.163 95.5167 11.5918L96.0456 15.3515C96.4943 14.8224 96.7199 14.1594 96.7199 13.3654ZM52.7212 27.2016H53.6988V23.5066H52.7212V27.2016ZM50.7843 23.944C50.4835 23.6031 50.1265 23.4336 49.7193 23.4336C49.2681 23.4336 48.8987 23.5984 48.6123 23.9191C48.3115 24.2489 48.1672 24.7267 48.1672 25.3512C48.1672 25.9633 48.3126 26.4422 48.6214 26.7839C48.9228 27.1287 49.2822 27.3017 49.7041 27.3017C49.915 27.3017 50.1221 27.2431 50.3256 27.1336C50.533 27.03 50.7038 26.8666 50.8575 26.6584V27.2014H51.7602V22.0969H50.7843V23.944ZM50.5606 26.2439C50.3997 26.4342 50.2092 26.5307 49.9883 26.5307C49.7038 26.5307 49.4871 26.4004 49.3286 26.1475C49.2214 25.9697 49.1603 25.6827 49.1603 25.2851C49.1603 24.9174 49.2435 24.6338 49.4005 24.4535C49.557 24.2658 49.7516 24.1743 49.9825 24.1743C50.2172 24.1743 50.4113 24.2699 50.5658 24.4566C50.7185 24.6476 50.7967 24.9553 50.7967 25.378C50.7964 25.7659 50.7163 26.0518 50.5606 26.2439ZM43.0649 25.9899L43.0765 24.8519C43.0765 24.4267 43.0323 24.1336 42.9496 23.9819C42.8598 23.8262 42.713 23.6896 42.4973 23.5821C42.2806 23.4837 41.9612 23.4333 41.5255 23.4333C41.0439 23.4333 40.6837 23.5182 40.4371 23.6894C40.1974 23.8602 40.0276 24.1298 39.9267 24.4864L40.8001 24.644C40.8642 24.4676 40.9424 24.3463 41.0431 24.2758C41.1357 24.2083 41.2764 24.174 41.4495 24.174C41.7044 24.174 41.8783 24.2169 41.977 24.2968C42.0677 24.3794 42.113 24.5121 42.113 24.7093V24.8027C41.94 24.8801 41.6237 24.9553 41.162 25.0471C40.8302 25.1079 40.57 25.1865 40.3948 25.2691C40.2173 25.3559 40.0818 25.4837 39.9773 25.6451C39.8764 25.8093 39.8291 25.9984 39.8291 26.2088C39.8291 26.5166 39.9358 26.7803 40.1506 26.9912C40.3688 27.1933 40.6701 27.3017 41.0494 27.3017C41.2623 27.3017 41.4611 27.2586 41.653 27.174C41.8382 27.0886 42.0179 26.9658 42.1827 26.8049C42.1888 26.8229 42.2004 26.8602 42.2178 26.9163C42.256 27.0407 42.29 27.1336 42.3135 27.2016H43.2825C43.1985 27.0219 43.1429 26.8563 43.1094 26.7034C43.0779 26.5483 43.0649 26.3142 43.0649 25.9899ZM42.1127 25.628C42.1127 25.8632 42.1009 26.0211 42.0746 26.109C42.0359 26.234 41.961 26.344 41.8449 26.4308C41.6867 26.5461 41.5142 26.6039 41.3408 26.6039C41.188 26.6039 41.0519 26.5569 40.9543 26.4538C40.8523 26.3518 40.7995 26.2384 40.7995 26.1021C40.7995 25.9575 40.8706 25.8428 40.9941 25.756C41.0768 25.6974 41.2526 25.6426 41.525 25.5832C41.7901 25.5243 41.9886 25.4732 42.1125 25.4311L42.1127 25.628ZM52.7563 23.0048H53.7361V22.0977H52.7563V23.0048ZM38.4467 24.3949C38.2043 24.2702 37.8357 24.1447 37.3422 24.0327C36.8393 23.9122 36.5267 23.7983 36.3962 23.6899C36.2977 23.6037 36.2435 23.4986 36.2435 23.3758C36.2435 23.2487 36.2994 23.1397 36.4069 23.0604C36.5742 22.9387 36.8139 22.8793 37.1053 22.8793C37.3906 22.8793 37.6118 22.9374 37.7509 23.0532C37.8921 23.1685 37.9919 23.3498 38.0354 23.6175L39.0647 23.5804C39.0475 23.1079 38.8703 22.7306 38.5543 22.4483C38.2294 22.1641 37.7462 22.0189 37.1108 22.0189C36.7221 22.0189 36.3881 22.0806 36.1081 22.2011C35.8338 22.3217 35.6248 22.4936 35.4821 22.7173C35.3279 22.9401 35.2527 23.187 35.2527 23.4452C35.2527 23.8461 35.4116 24.1898 35.7277 24.4707C35.9436 24.6719 36.3384 24.834 36.8839 24.9733C37.3143 25.0756 37.5847 25.1519 37.7028 25.1934C37.878 25.2578 38.0063 25.3294 38.0777 25.4129C38.1476 25.4986 38.1819 25.6053 38.1819 25.7187C38.1819 25.91 38.1012 26.0689 37.9289 26.2116C37.7633 26.3512 37.5175 26.4226 37.1813 26.4226C36.8714 26.4226 36.6245 26.3438 36.436 26.1887C36.2557 26.0261 36.1324 25.7773 36.071 25.4449L35.0732 25.5434C35.1346 26.1182 35.3409 26.5481 35.6895 26.8525C36.0326 27.1527 36.5311 27.3015 37.1722 27.3015C37.6118 27.3015 37.985 27.2359 38.2742 27.1118C38.5709 26.9912 38.8023 26.7977 38.9715 26.5431C39.1255 26.2893 39.2104 26.0136 39.2104 25.7236C39.2104 25.4032 39.1443 25.1325 39.0036 24.9155C38.867 24.6938 38.6862 24.5254 38.4467 24.3949ZM122.544 26.1314L121.656 23.5066H120.633L122.027 27.2152C121.969 27.4156 121.887 27.5926 121.778 27.7289C121.671 27.863 121.503 27.9307 121.275 27.9307C121.156 27.9307 121.024 27.9141 120.868 27.8851L120.953 28.6509C121.128 28.686 121.316 28.7048 121.503 28.7048C121.689 28.7048 121.848 28.686 121.997 28.6509C122.148 28.607 122.272 28.5536 122.374 28.4861C122.466 28.4131 122.558 28.3172 122.634 28.2016C122.71 28.0916 122.789 27.9307 122.875 27.7115L123.114 27.0565L124.411 23.5066H123.399L122.544 26.1314ZM46.4052 25.0759C46.4052 25.6059 46.3826 25.9384 46.3289 26.0736C46.2794 26.2124 46.189 26.3288 46.0563 26.4217C45.925 26.5138 45.7738 26.5577 45.6107 26.5577C45.4652 26.5577 45.3403 26.5262 45.2463 26.451C45.1514 26.385 45.0887 26.2937 45.0478 26.1801C45.0121 26.0554 44.9974 25.7369 44.9974 25.213V23.5069H44.0218V25.8541C44.0218 26.2011 44.0619 26.4731 44.1534 26.6697C44.2394 26.8674 44.3815 27.0244 44.5786 27.1331C44.7765 27.2431 45.003 27.3017 45.2493 27.3017C45.4929 27.3017 45.7268 27.2415 45.9466 27.1212C46.1639 27.0015 46.3458 26.8444 46.4735 26.6476V27.2016H47.3756V23.5069H46.4047V25.0759H46.4052ZM76.5212 23.0048H77.4983V22.0977H76.5212V23.0048ZM82.4676 23.0048H83.4435V22.0977H82.4676V23.0048ZM88.1568 26.1314L87.2712 23.5069H86.2519L87.6434 27.2155C87.5886 27.4159 87.5032 27.5928 87.3899 27.7289C87.2912 27.863 87.1184 27.9313 86.8969 27.9313C86.7725 27.9313 86.6379 27.9141 86.4841 27.8845L86.5709 28.6515C86.7479 28.6866 86.9315 28.7045 87.1184 28.7045C87.3047 28.7045 87.4662 28.6866 87.6124 28.6515C87.7636 28.6072 87.8845 28.5541 87.9848 28.4861C88.0827 28.4134 88.1734 28.3172 88.2458 28.2019C88.3246 28.091 88.4111 27.9313 88.4916 27.7117L88.7354 27.0568L90.026 23.5069H89.0188L88.1568 26.1314ZM85.6641 26.4848C85.595 26.4848 85.5386 26.4662 85.4974 26.4328C85.4471 26.4004 85.4197 26.3587 85.4056 26.3111C85.3973 26.2572 85.3879 26.0836 85.3879 25.7781V24.2793H86.0553V23.5069H85.3879V22.208L84.4098 22.7776V23.5069H83.9641V24.2793H84.41V25.9036C84.41 26.2517 84.4236 26.482 84.4402 26.5967C84.4695 26.7585 84.5121 26.8815 84.574 26.9783C84.642 27.0747 84.7479 27.1533 84.8889 27.2072C85.0299 27.2683 85.1903 27.3023 85.3581 27.3023C85.6473 27.3023 85.903 27.2462 86.1278 27.1541L86.0553 26.3921C85.8847 26.4513 85.7526 26.4848 85.6641 26.4848ZM82.3736 27.2016H83.3473V23.5066H82.3736V27.2016ZM80.4698 26.346C80.3534 26.4513 80.1991 26.508 80.0155 26.508C79.7687 26.508 79.5701 26.4156 79.4269 26.2343C79.2793 26.0518 79.208 25.7413 79.208 25.2995C79.208 24.9036 79.2793 24.6222 79.4269 24.4502C79.5649 24.2796 79.7634 24.1981 80.0037 24.1981C80.1825 24.1981 80.3351 24.2431 80.4449 24.3402C80.5632 24.4367 80.6326 24.573 80.663 24.7623L81.6282 24.5954C81.5135 24.2014 81.3244 23.9119 81.0589 23.7203C80.7946 23.5285 80.4399 23.4333 79.9868 23.4333C79.4413 23.4333 79.0078 23.6034 78.6915 23.9423C78.3705 24.2796 78.2052 24.7593 78.2052 25.3689C78.2052 25.9719 78.3705 26.4447 78.6827 26.7894C79.0072 27.1284 79.4344 27.302 79.9763 27.302C80.4452 27.302 80.8237 27.1875 81.1073 26.9559C81.3918 26.733 81.5779 26.3955 81.6816 25.9523L80.7122 25.7905C80.668 26.056 80.5854 26.239 80.4698 26.346ZM110.496 23.4339C110.247 23.4339 110.026 23.49 109.822 23.6039C109.625 23.7134 109.461 23.861 109.344 24.0463V23.5069H108.431V28.6072H109.403V26.7604C109.589 26.9559 109.767 27.0886 109.929 27.1743C110.098 27.2583 110.281 27.302 110.489 27.302C110.921 27.302 111.282 27.1284 111.585 26.7833C111.884 26.4422 112.038 25.96 112.038 25.3468C112.038 24.7441 111.884 24.2741 111.587 23.9379C111.293 23.6039 110.927 23.4339 110.496 23.4339ZM110.812 26.247C110.661 26.4303 110.473 26.5168 110.241 26.5168C110.002 26.5168 109.805 26.4225 109.637 26.2238C109.475 26.0214 109.396 25.7128 109.396 25.2992C109.396 24.9426 109.472 24.6578 109.629 24.4756C109.789 24.2876 109.982 24.1978 110.231 24.1978C110.457 24.1978 110.649 24.291 110.804 24.487C110.959 24.6725 111.036 24.955 111.036 25.351C111.036 25.7665 110.962 26.067 110.812 26.247ZM106.972 23.5981C106.783 23.4886 106.55 23.4336 106.281 23.4336C106.069 23.4336 105.867 23.4839 105.68 23.5804C105.488 23.6753 105.315 23.8265 105.153 24.0142C105.043 23.8265 104.901 23.6753 104.726 23.5804C104.553 23.4842 104.346 23.4336 104.109 23.4336C103.665 23.4336 103.28 23.6225 102.958 24.0095V23.5066H102.059V27.2016H103.032V25.4065C103.032 25.0518 103.056 24.8013 103.108 24.6476C103.164 24.4931 103.25 24.3797 103.367 24.2973C103.492 24.2177 103.628 24.1746 103.778 24.1746C103.905 24.1746 104.006 24.1983 104.078 24.2489C104.151 24.2998 104.205 24.3797 104.24 24.487C104.278 24.5873 104.289 24.816 104.289 25.1815V27.2019H105.27V25.4239C105.27 25.0764 105.296 24.8226 105.351 24.6581C105.401 24.5052 105.488 24.3844 105.608 24.2976C105.729 24.2202 105.857 24.1748 105.997 24.1748C106.181 24.1748 106.323 24.2412 106.421 24.3844C106.478 24.49 106.512 24.727 106.512 25.0922V27.2019H107.493V24.8458C107.493 24.4933 107.459 24.2379 107.39 24.0836C107.297 23.874 107.161 23.7065 106.972 23.5981ZM99.4548 23.4339C99.0937 23.4339 98.7697 23.5099 98.4736 23.673C98.1758 23.832 97.9483 24.0659 97.7901 24.3645C97.6309 24.6722 97.5496 24.9913 97.5496 25.3103C97.5496 25.7375 97.6309 26.0944 97.7901 26.3955C97.9483 26.6916 98.1847 26.9166 98.4904 27.0681C98.8009 27.2229 99.1252 27.302 99.4625 27.302C100.013 27.302 100.465 27.1129 100.829 26.7471C101.189 26.3767 101.37 25.9191 101.37 25.3557C101.37 24.801 101.193 24.3404 100.831 23.978C100.474 23.6133 100.015 23.4339 99.4548 23.4339ZM100.103 26.2127C99.9358 26.4071 99.7174 26.508 99.4595 26.508C99.206 26.508 98.9875 26.4071 98.8181 26.2127C98.6378 26.0186 98.5546 25.7375 98.5546 25.3662C98.5546 24.9984 98.6378 24.712 98.8181 24.5171C98.9875 24.3219 99.206 24.2265 99.4595 24.2265C99.7174 24.2265 99.9358 24.3219 100.103 24.5171C100.281 24.7118 100.367 24.9957 100.367 25.3562C100.367 25.7286 100.281 26.0189 100.103 26.2127ZM95.4982 26.1477C95.3041 26.3219 95.0644 26.4071 94.7957 26.4071C94.4236 26.4071 94.1214 26.2757 93.8883 25.9993C93.6594 25.7283 93.5391 25.2669 93.5391 24.6249C93.5391 24.0167 93.6613 23.5804 93.8916 23.3053C94.1338 23.0355 94.4382 22.9017 94.8137 22.9017C95.0912 22.9017 95.3232 22.9772 95.5184 23.1292C95.7116 23.2796 95.8383 23.49 95.8983 23.7557L96.9079 23.5069C96.7971 23.1027 96.6193 22.7914 96.3884 22.5799C95.9942 22.2064 95.4921 22.0197 94.8665 22.0197C94.1529 22.0197 93.5748 22.263 93.1393 22.7267C92.702 23.192 92.4764 23.8563 92.4764 24.7004C92.4764 25.5049 92.6959 26.1336 93.1338 26.5965C93.5684 27.0571 94.1233 27.2857 94.802 27.2857C95.3553 27.2857 95.8065 27.1533 96.1609 26.8815C96.5142 26.6045 96.7747 26.1898 96.9245 25.628L95.9212 25.3205C95.838 25.6979 95.6964 25.9716 95.4982 26.1477ZM66.0969 23.978C65.7861 23.6131 65.3499 23.4336 64.8019 23.4336C64.3101 23.4336 63.9067 23.6131 63.5854 23.9578C63.2714 24.2998 63.1085 24.7778 63.1085 25.3955C63.1085 25.9108 63.2338 26.3352 63.4715 26.6667C63.7801 27.0877 64.2581 27.3017 64.8995 27.3017C65.3059 27.3017 65.6393 27.2039 65.9136 27.0161C66.1845 26.8295 66.383 26.5575 66.505 26.1972L65.5276 26.038C65.4746 26.226 65.3985 26.3598 65.296 26.4433C65.1934 26.5309 65.059 26.5685 64.9067 26.5685C64.6855 26.5685 64.4986 26.4914 64.3438 26.3288C64.1931 26.1654 64.1124 25.9332 64.1077 25.6451H66.5509C66.5677 24.895 66.4179 24.3363 66.0969 23.978ZM64.1281 25.0482C64.124 24.7775 64.1903 24.566 64.3313 24.4112C64.4693 24.2495 64.6498 24.1743 64.8627 24.1743C65.0637 24.1743 65.2346 24.2487 65.372 24.3966C65.5121 24.5461 65.586 24.7629 65.5934 25.0482H64.1281ZM76.4391 27.2016H77.4142V23.5066H76.4391V27.2016ZM119.859 23.8425C119.768 23.7264 119.633 23.6302 119.457 23.5486C119.277 23.4754 119.084 23.4336 118.87 23.4336C118.385 23.4336 117.979 23.6385 117.663 24.0457V23.5063H116.76V27.2014H117.733V25.5271C117.733 25.1143 117.755 24.8337 117.809 24.6819C117.853 24.5329 117.948 24.4038 118.078 24.3109C118.208 24.2218 118.36 24.1746 118.535 24.1746C118.661 24.1746 118.773 24.2053 118.866 24.2711C118.955 24.336 119.024 24.4262 119.068 24.5442C119.104 24.6576 119.131 24.9172 119.131 25.3172V27.2011H120.104V24.9108C120.104 24.6296 120.08 24.4068 120.051 24.2542C120.015 24.0985 119.948 23.9631 119.859 23.8425ZM115.788 25.9899L115.799 24.8519C115.799 24.4267 115.76 24.1336 115.674 23.9819C115.581 23.8262 115.435 23.6896 115.223 23.5821C115.006 23.4837 114.684 23.4333 114.247 23.4333C113.773 23.4333 113.408 23.5182 113.162 23.6894C112.919 23.8602 112.751 24.1298 112.65 24.4864L113.53 24.644C113.59 24.4676 113.669 24.3463 113.763 24.2758C113.862 24.2083 113.999 24.174 114.171 24.174C114.428 24.174 114.605 24.2169 114.696 24.2968C114.798 24.3794 114.84 24.5121 114.84 24.7093V24.8027C114.663 24.8801 114.346 24.9553 113.893 25.0471C113.556 25.1079 113.302 25.1865 113.12 25.2691C112.943 25.3559 112.803 25.4837 112.704 25.6451C112.606 25.8093 112.556 25.9984 112.556 26.2088C112.556 26.5166 112.662 26.7803 112.877 26.9912C113.099 27.1933 113.397 27.3017 113.773 27.3017C113.989 27.3017 114.185 27.2586 114.376 27.174C114.571 27.0886 114.74 26.9658 114.909 26.8049C114.919 26.8229 114.927 26.8602 114.942 26.9163C114.976 27.0407 115.01 27.1336 115.039 27.2016H116.015C115.922 27.0219 115.869 26.8563 115.838 26.7034C115.799 26.5483 115.788 26.3142 115.788 25.9899ZM114.84 25.628C114.84 25.8632 114.825 26.0211 114.799 26.109C114.764 26.234 114.686 26.344 114.571 26.4308C114.408 26.5461 114.243 26.6039 114.068 26.6039C113.909 26.6039 113.783 26.5569 113.683 26.4538C113.576 26.3518 113.53 26.2384 113.53 26.1021C113.53 25.9575 113.59 25.8428 113.716 25.756C113.798 25.6974 113.977 25.6426 114.247 25.5832C114.516 25.5243 114.714 25.4732 114.839 25.4311V25.628H114.84ZM61.416 27.2019H62.3908V22.0974H61.416V27.2019ZM57.706 24.9553H60.2686V24.0878H57.706V22.9631H60.4466V22.0974H56.6855V27.2019H60.5512V26.3371H57.7057L57.706 24.9553ZM69.3963 26.346C69.2796 26.4513 69.1289 26.508 68.9445 26.508C68.6976 26.508 68.5008 26.4156 68.3581 26.2343C68.213 26.0518 68.1395 25.7413 68.1395 25.2995C68.1395 24.9036 68.213 24.6222 68.3543 24.4502C68.5005 24.2796 68.6896 24.1981 68.9351 24.1981C69.1165 24.1981 69.26 24.2431 69.3778 24.3402C69.4911 24.4367 69.5636 24.573 69.5962 24.7623L70.5597 24.5954C70.4416 24.2014 70.2572 23.9119 69.9913 23.7203C69.7261 23.5285 69.3711 23.4333 68.9208 23.4333C68.3758 23.4333 67.9379 23.6034 67.6222 23.9423C67.299 24.2796 67.1439 24.7593 67.1439 25.3689C67.1439 25.9719 67.2984 26.4447 67.6222 26.7894C67.9379 27.1284 68.3689 27.302 68.905 27.302C69.3778 27.302 69.7563 27.1875 70.0377 26.9559C70.32 26.733 70.5119 26.3955 70.6106 25.9523L69.6468 25.7905C69.5959 26.056 69.5124 26.239 69.3963 26.346ZM74.952 23.5475C74.8314 23.6227 74.6943 23.7842 74.5387 24.0333V23.5072H73.6357V27.2019H74.6092V26.0673C74.6092 25.4361 74.6423 25.0286 74.6943 24.829C74.7466 24.6346 74.8237 24.4969 74.9122 24.4215C75.0092 24.3471 75.1264 24.3111 75.2625 24.3111C75.4024 24.3111 75.553 24.3648 75.7167 24.4687L76.0219 23.6178C75.8121 23.4911 75.6061 23.4345 75.3761 23.4345C75.2218 23.4339 75.08 23.4751 74.952 23.5475ZM72.6175 26.4848C72.5503 26.4848 72.4969 26.4662 72.4496 26.4328C72.4037 26.4004 72.3767 26.3587 72.3664 26.3111C72.352 26.2572 72.3426 26.0836 72.3426 25.7781V24.2793H73.0081V23.5069H72.3426V22.208L71.365 22.7776V23.5069H70.9232V24.2793H71.365V25.9036C71.365 26.2517 71.3772 26.482 71.3966 26.5967C71.4234 26.7585 71.4707 26.8815 71.5367 26.9783C71.5992 27.0747 71.7029 27.1533 71.8384 27.2072C71.9846 27.2683 72.1436 27.3023 72.315 27.3023C72.6039 27.3023 72.8574 27.2462 73.0781 27.1541L73.0128 26.3921C72.8386 26.4513 72.7087 26.4848 72.6175 26.4848Z" fill="#14539B"/>
</svg>
