<svg width="97" height="56" viewBox="0 0 97 56" fill="none" xmlns="http://www.w3.org/2000/svg">
<path fill-rule="evenodd" clip-rule="evenodd" d="M16.3525 33.4926L32.7056 45.8475V27.9282H49.0583V55.3556H21.8031L0 38.8988V0.5H27.2545L49.0583 16.9568V22.4421H32.7056L16.3525 10.0933V33.4926ZM96.2189 38.0218H90.1676V35.0549H94.6836V32.9621H90.1676V30.0116H96.2189V27.9277H90.1676H87.9176V30.0116V32.9621V35.0549V38.0218V40.1057H90.1676H96.2189V38.0218ZM65.4543 49.0244H65.404H63.2211H61.2193V51.1082H63.2211V53.2648C62.9137 53.3141 62.5753 53.3389 62.2078 53.3389C61.0771 53.3389 60.2281 52.9885 59.6592 52.2879C59.0912 51.5875 58.8067 50.5366 58.8067 49.1363C58.8067 47.8614 59.0894 46.8747 59.6548 46.1776C60.221 45.4798 61.0143 45.1312 62.0364 45.1312C62.2414 45.1312 62.4402 45.1505 62.6327 45.1893C62.8686 45.2367 63.0948 45.3128 63.3121 45.4183C63.7061 45.6096 64.0338 45.8746 64.2953 46.2114L65.7105 44.5738C65.3519 44.0644 64.8545 43.6716 64.214 43.3941C63.866 43.2426 63.4808 43.1326 63.0603 43.0638C62.9888 43.0521 62.9163 43.0417 62.8421 43.0323C62.7432 43.0199 62.6425 43.0095 62.54 43.0013C62.3447 42.9859 62.1433 42.978 61.9348 42.978C60.191 42.978 58.8385 43.5231 57.8782 44.612C56.918 45.7011 56.4392 47.2383 56.4392 49.2217C56.4392 51.3145 56.903 52.8835 57.8323 53.9299C58.7599 54.9763 60.1512 55.5 62.0029 55.5C62.1 55.5 62.1946 55.4991 62.2882 55.4972L62.5082 55.4907C62.7229 55.4824 62.9313 55.4687 63.1327 55.4499C63.4914 55.4163 63.828 55.3657 64.1416 55.2981C64.7671 55.164 65.2043 55.059 65.4543 54.9843V49.0244ZM59.3182 37.9447H60.1459C61.2537 37.9447 62.0833 37.6254 62.6371 36.9879C63.191 36.3505 63.4693 35.4172 63.4693 34.1885C63.4693 32.8388 63.191 31.8183 62.6371 31.1266C62.0833 30.4351 61.2537 30.0891 60.1459 30.0891H59.3182V37.9447ZM60.1459 27.9279H59.3182H59.0284H57.0682V40.1058H59.1998H59.3182H60.1459C63.9349 40.1058 65.8289 38.1331 65.8289 34.1885C65.8289 30.0144 63.9349 27.9279 60.1459 27.9279ZM67.2953 36.1951C67.2953 38.9164 68.639 40.2775 71.3263 40.2775C72.6673 40.2775 73.6859 39.937 74.3811 39.257C75.0764 38.5767 75.4253 37.5562 75.4253 36.1951V27.9279H73.1753V36.1951C73.1753 37.47 72.5693 38.1075 71.3599 38.1075C70.7344 38.1075 70.2768 37.9473 69.9844 37.6274C69.6903 37.3073 69.5445 36.8299 69.5445 36.1951V27.9279H67.2953V36.1951ZM81.7187 35.6095L83.7426 40.1058H86.52L83.6083 34.2362C83.679 34.1627 83.7488 34.0871 83.8168 34.0099C83.8707 33.9478 83.9246 33.8846 83.9767 33.8203L84.0703 33.704C84.6808 32.9233 85.1454 32.0353 85.4635 31.0404C85.6861 30.3446 85.831 29.6277 85.8972 28.8898C85.9255 28.573 85.9405 28.2524 85.9405 27.9279H83.6569C83.6569 28.272 83.6383 28.6112 83.6012 28.9457C83.5694 29.2244 83.5261 29.4994 83.4687 29.7711C83.4422 29.8992 83.4131 30.0266 83.3804 30.1531C83.1958 30.8707 82.9104 31.5151 82.5279 32.0868C82.1436 32.6585 81.6577 33.1136 81.0703 33.4505L80.9881 33.4965L80.8706 33.5566C80.8247 33.5792 80.7779 33.6009 80.731 33.6215C80.6568 33.6541 80.5809 33.684 80.5031 33.7119C80.3945 33.7509 80.2823 33.7852 80.1674 33.8149C80.0658 33.8412 79.9616 33.8638 79.8556 33.8826V27.9279H77.6056V40.1058H79.8556V36.1618C80.1524 36.1215 80.4395 36.0627 80.7169 35.9861C80.7885 35.9661 80.8592 35.945 80.9298 35.9227C81.0509 35.8847 81.1692 35.843 81.2849 35.7977C81.4325 35.7406 81.5773 35.6779 81.7187 35.6095ZM71.3263 55.4996C68.639 55.4996 67.2953 54.1384 67.2953 51.4171V43.15H69.5445V51.4171C69.5445 52.052 69.6903 52.5292 69.9844 52.8494C70.2768 53.1693 70.7344 53.3295 71.3599 53.3295C72.5693 53.3295 73.1753 52.692 73.1753 51.4171V43.15H75.4253V51.4171C75.4253 52.7782 75.0764 53.7988 74.3811 54.479C73.6859 55.159 72.6673 55.4996 71.3263 55.4996ZM85.9926 53.2436H79.9413V43.1495H77.6913V53.2436V55.3274H79.9413H85.9926V53.2436ZM94.5387 48.6899H90.1676V45.2334H96.218V43.1495H90.1676H87.9176V45.2334V48.6899V50.7907V55.3274H90.1676V50.7907H94.5387V48.6899Z" fill="#01D15F"/>
</svg>
