<svg width="154" height="55" viewBox="0 0 154 55" fill="none" xmlns="http://www.w3.org/2000/svg">
<path fill-rule="evenodd" clip-rule="evenodd" d="M74.1336 32.9926L90.4867 45.3475V27.4282H106.839V54.8556H79.5841L57.7811 38.3988V0H85.0355L106.839 16.4568V21.9421H90.4867L74.1336 9.59329V32.9926ZM154 37.5218H147.949V34.5549H152.465V32.4621H147.949V29.5116H154V27.4277H147.949H145.699V29.5116V32.4621V34.5549V37.5218V39.6057H147.949H154V37.5218ZM123.235 48.5244H123.185H121.002H119V50.6082H121.002V52.7648C120.695 52.8141 120.356 52.8389 119.989 52.8389C118.858 52.8389 118.009 52.4885 117.44 51.7879C116.872 51.0875 116.588 50.0366 116.588 48.6363C116.588 47.3614 116.87 46.3747 117.436 45.6776C118.002 44.9798 118.795 44.6312 119.818 44.6312C120.022 44.6312 120.221 44.6505 120.414 44.6893C120.65 44.7367 120.876 44.8128 121.093 44.9183C121.487 45.1096 121.815 45.3746 122.076 45.7114L123.492 44.0738C123.133 43.5644 122.636 43.1716 121.995 42.8941C121.647 42.7426 121.262 42.6326 120.841 42.5638C120.77 42.5521 120.697 42.5417 120.623 42.5323C120.524 42.5199 120.424 42.5095 120.321 42.5013C120.126 42.4859 119.924 42.478 119.716 42.478C117.972 42.478 116.62 43.0231 115.659 44.112C114.699 45.2011 114.22 46.7383 114.22 48.7217C114.22 50.8145 114.684 52.3835 115.613 53.4299C116.541 54.4763 117.932 55 119.784 55C119.881 55 119.976 54.9991 120.069 54.9972L120.289 54.9907C120.504 54.9824 120.712 54.9687 120.914 54.9499C121.272 54.9163 121.609 54.8657 121.923 54.7981C122.548 54.664 122.985 54.559 123.235 54.4843V48.5244ZM117.099 37.4447H117.927C119.035 37.4447 119.864 37.1254 120.418 36.4879C120.972 35.8505 121.25 34.9172 121.25 33.6885C121.25 32.3388 120.972 31.3183 120.418 30.6266C119.864 29.9351 119.035 29.5891 117.927 29.5891H117.099V37.4447ZM117.927 27.4279H117.099H116.81H114.849V39.6058H116.981H117.099H117.927C121.716 39.6058 123.61 37.6331 123.61 33.6885C123.61 29.5144 121.716 27.4279 117.927 27.4279ZM125.076 35.6951C125.076 38.4164 126.42 39.7775 129.107 39.7775C130.448 39.7775 131.467 39.437 132.162 38.757C132.857 38.0767 133.206 37.0562 133.206 35.6951V27.4279H130.956V35.6951C130.956 36.97 130.35 37.6075 129.141 37.6075C128.516 37.6075 128.058 37.4473 127.766 37.1274C127.471 36.8073 127.326 36.3299 127.326 35.6951V27.4279H125.076V35.6951ZM139.5 35.1095L141.524 39.6058H144.301L141.389 33.7362C141.46 33.6627 141.53 33.5871 141.598 33.5099C141.652 33.4478 141.706 33.3846 141.758 33.3203L141.851 33.204C142.462 32.4233 142.927 31.5353 143.245 30.5404C143.467 29.8446 143.612 29.1277 143.678 28.3898C143.707 28.073 143.722 27.7524 143.722 27.4279H141.438C141.438 27.772 141.419 28.1112 141.382 28.4457C141.351 28.7244 141.307 28.9994 141.25 29.2711C141.223 29.3992 141.194 29.5266 141.161 29.6531C140.977 30.3707 140.691 31.0151 140.309 31.5868C139.925 32.1585 139.439 32.6136 138.851 32.9505L138.769 32.9965L138.652 33.0566C138.606 33.0792 138.559 33.1009 138.512 33.1215C138.438 33.1541 138.362 33.184 138.284 33.2119C138.176 33.2509 138.063 33.2852 137.949 33.3149C137.847 33.3412 137.743 33.3638 137.637 33.3826V27.4279H135.387V39.6058H137.637V35.6618C137.934 35.6215 138.221 35.5627 138.498 35.4861C138.57 35.4661 138.64 35.445 138.711 35.4227C138.832 35.3847 138.95 35.343 139.066 35.2977C139.214 35.2406 139.358 35.1779 139.5 35.1095ZM129.107 54.9996C126.42 54.9996 125.076 53.6384 125.076 50.9171V42.65H127.326V50.9171C127.326 51.552 127.471 52.0292 127.766 52.3494C128.058 52.6693 128.516 52.8295 129.141 52.8295C130.35 52.8295 130.956 52.192 130.956 50.9171V42.65H133.206V50.9171C133.206 52.2782 132.857 53.2988 132.162 53.979C131.467 54.659 130.448 54.9996 129.107 54.9996ZM143.774 52.7436H137.722V42.6495H135.472V52.7436V54.8274H137.722H143.774V52.7436ZM152.32 48.1899H147.949V44.7334H153.999V42.6495H147.949H145.699V44.7334V48.1899V50.2907V54.8274H147.949V50.2907H152.32V48.1899ZM21.7841 1.34287C21.7841 1.62135 21.8764 1.85598 22.0618 2.0472C22.2473 2.24363 22.4768 2.34217 22.7477 2.34217C22.8598 2.34217 22.9651 2.32458 23.0643 2.28964C23.1997 2.24167 23.3223 2.16072 23.4318 2.0472C23.619 1.85055 23.7113 1.61592 23.7113 1.34287C23.7113 1.06028 23.619 0.822827 23.4318 0.631828C23.2463 0.435184 23.0186 0.337507 22.7477 0.337507C22.5907 0.337507 22.4458 0.371583 22.3147 0.439958C22.224 0.487272 22.1395 0.5513 22.0618 0.631828C21.8764 0.828259 21.7841 1.06462 21.7841 1.34287ZM22.8107 5.02857L22.8909 5.06525V8.84366H21.9548C20.4934 8.84366 19.7636 8.15732 19.7636 6.7821C19.7636 6.19802 19.9181 5.72421 20.2269 5.35957C20.5504 4.98625 20.9818 4.79959 21.52 4.79959C21.6046 4.79959 21.6874 4.80176 21.7676 4.8061C21.9212 4.81412 22.067 4.82997 22.2042 4.85363C22.3026 4.87035 22.3965 4.89118 22.4872 4.91593C22.5475 4.93242 22.6062 4.95087 22.6632 4.97106L22.7227 4.99276L22.8107 5.02857ZM19.3564 1.34287C19.3564 1.62135 19.4487 1.85598 19.6342 2.0472C19.7231 2.14096 19.8214 2.21237 19.9293 2.26143C20.0483 2.31525 20.1786 2.34217 20.32 2.34217C20.5953 2.34217 20.829 2.24363 21.0197 2.0472C21.2052 1.85055 21.2992 1.61592 21.2992 1.34287C21.2992 1.19919 21.2751 1.06722 21.2267 0.94698C21.1802 0.830864 21.1111 0.725808 21.0197 0.631828C20.829 0.435184 20.5953 0.337507 20.32 0.337507C20.1932 0.337507 20.075 0.359652 19.9655 0.403926C19.937 0.415643 19.9085 0.42889 19.881 0.443648L19.8404 0.466656L19.7964 0.494651C19.7722 0.511152 19.7481 0.52895 19.7248 0.547833C19.6938 0.573437 19.6636 0.601441 19.6342 0.631828C19.4487 0.828259 19.3564 1.06462 19.3564 1.34287ZM20.0561 14.0535C21.3122 14.0535 22.8883 13.9983 24.7819 13.888V3.77903C23.8916 3.43848 22.8685 3.26853 21.7124 3.26853C20.4409 3.26853 19.4608 3.64206 18.7706 4.38959C18.1564 5.05549 17.8501 5.91261 17.8501 6.9616C17.8501 9.23758 19.1511 10.3747 21.7548 10.3747H22.7477V12.4505C21.8384 12.5091 21.0335 12.5376 20.3339 12.5376C18.5446 12.5376 17.2937 12.2906 16.5785 11.797C15.8935 11.3278 15.5502 10.516 15.5502 9.36107C15.5502 8.48547 15.6891 7.55826 15.9652 6.58111L13.9732 6.94749C13.8722 7.31495 13.7937 7.68524 13.7368 8.05813C13.6609 8.55037 13.6229 9.04698 13.6229 9.54777C13.6229 11.1001 14.1173 12.2335 15.1085 12.9465C16.1265 13.6844 17.776 14.0535 20.0561 14.0535ZM30.4127 4.86491C30.1816 4.82129 29.9279 4.79937 29.6519 4.79937C29.1135 4.79937 28.6882 4.98603 28.3734 5.35936C28.0645 5.72399 27.9093 6.19781 27.9093 6.78188C27.9093 8.1571 28.6425 8.84428 30.1082 8.84428H31.0443V5.06503C30.9865 5.03747 30.9261 5.01207 30.8631 4.98863C30.8278 4.97518 30.7915 4.96237 30.7536 4.95043L30.6491 4.91962C30.5733 4.89878 30.4947 4.88054 30.4127 4.86491ZM26.1096 13.8878L26.2312 12.3001C26.9922 12.4681 27.7522 12.5517 28.5096 12.5517C30.1989 12.5517 31.0443 11.9009 31.0443 10.5976V10.3745H29.9012C27.2881 10.3745 25.9819 9.23732 25.9819 6.96139C25.9819 5.9176 26.2908 5.0607 26.9093 4.38936C27.6047 3.64185 28.5882 3.26831 29.8581 3.26831C30.2989 3.26831 30.7208 3.29348 31.1236 3.34385C31.7689 3.42437 32.366 3.56957 32.9137 3.77859V10.4037C32.9137 11.4955 32.56 12.3622 31.85 13.0042C31.0606 13.7225 29.8891 14.0816 28.3371 14.0816C27.6047 14.0816 26.8628 14.0176 26.1096 13.8878ZM39.0113 8.8441H34.6702V10.3749H41.6167H41.8384H45.3582V0H43.4301V8.8441H41.8384H41.6167H40.8825C40.7954 7.24463 40.3416 5.97686 39.5186 5.04333C38.737 4.16233 37.5741 3.51509 36.0272 3.10357L35.5631 4.72687C37.7759 5.29229 38.9259 6.6649 39.0113 8.8441ZM49.7709 0.000216889H47.8437V10.3751H49.7709V0.000216889ZM4.2117 19.0814C4.02622 18.8901 3.93391 18.6555 3.93391 18.3772C3.93391 18.099 4.02622 17.8624 4.2117 17.6659C4.33766 17.5366 4.48001 17.45 4.63874 17.406C4.7207 17.3831 4.80697 17.3717 4.89755 17.3717C5.16844 17.3717 5.39792 17.4695 5.5834 17.6659C5.66881 17.7539 5.73437 17.8517 5.78009 17.9592L5.79648 17.9967L5.80943 18.035L5.82668 18.094L5.83617 18.1339L5.84307 18.1676C5.85515 18.2345 5.86119 18.3043 5.86119 18.3772C5.86119 18.54 5.8284 18.6894 5.76284 18.8251C5.74473 18.8621 5.72402 18.8981 5.70072 18.9331C5.66708 18.9847 5.62826 19.0342 5.5834 19.0814C5.39792 19.2777 5.16844 19.3765 4.89755 19.3765C4.62666 19.3765 4.39718 19.2777 4.2117 19.0814ZM5.06232 22.0996C4.69051 21.9216 4.22723 21.8337 3.66993 21.8337C3.36453 21.8337 3.09537 21.8939 2.86244 22.0141C2.68473 22.1057 2.52771 22.2323 2.39141 22.3937C2.08256 22.7584 1.92728 23.2321 1.92728 23.8162C1.92728 25.1917 2.66056 25.878 4.12629 25.878H5.06232V22.0996ZM1.78407 19.0814C1.59859 18.8901 1.50627 18.6555 1.50627 18.3772C1.50627 18.3015 1.51318 18.229 1.52698 18.1595C1.53733 18.1064 1.55114 18.0549 1.56925 18.0055C1.58391 17.9655 1.60203 17.9267 1.62187 17.8889C1.66501 17.8094 1.7185 17.7352 1.78407 17.6659C1.97558 17.4695 2.20334 17.3717 2.46991 17.3717C2.58292 17.3717 2.68817 17.3879 2.78652 17.4207C2.85899 17.4448 2.92801 17.4776 2.99271 17.5195C3.05568 17.5599 3.11435 17.6087 3.16956 17.6659C3.35504 17.8572 3.44907 18.0944 3.44907 18.3772C3.44907 18.6501 3.35504 18.8849 3.16956 19.0814C2.97977 19.2777 2.74684 19.3765 2.46991 19.3765C2.19902 19.3765 1.9704 19.2777 1.78407 19.0814ZM3.91925 27.4088C1.30613 27.4088 0 26.2717 0 23.9957C0 22.9522 0.308847 22.0942 0.928268 21.424C1.62274 20.6762 2.60622 20.3029 3.87611 20.3029C5.02351 20.3029 6.04235 20.4726 6.93266 20.8132V25.878H8.14649H8.35957H10.1954V20.4896H12.1226V25.878H14.1146L19.5488 25.8784L19.5695 25.698L19.5825 25.5652L19.5919 25.4409C19.6015 25.3135 19.6092 25.1885 19.6135 25.0653L19.6187 24.9025L19.6196 24.7574C19.6196 23.8 19.4056 23.0959 18.9768 22.645C18.5204 22.1713 17.7777 21.9338 16.7493 21.9338C16.2067 21.9338 15.6477 21.9748 15.0713 22.0567V20.5399C15.7572 20.4492 16.381 20.403 16.9426 20.403C18.5559 20.403 19.7317 20.7647 20.4693 21.4884C21.1784 22.1776 21.533 23.2434 21.533 24.6855C21.533 24.836 21.5305 24.9837 21.5252 25.1292C21.5209 25.2577 21.5149 25.3842 21.5071 25.5088C21.4985 25.634 21.4881 25.7571 21.476 25.8784L22.3897 25.878H24.4385V20.4896H26.3659V25.878L28.1301 25.8783L28.3579 25.878L29.9435 25.8783V17.0342H31.8716V25.8783L33.1139 25.878L33.3348 25.8783L38.7758 25.878C38.8233 25.4857 38.8465 25.1124 38.8465 24.7578C38.8465 23.7993 38.6326 23.0952 38.2038 22.6455C37.9468 22.3781 37.5991 22.1865 37.1608 22.0699C36.9236 22.0067 36.6604 21.9657 36.3697 21.9466C36.2998 21.9421 36.2283 21.9386 36.1549 21.9367L35.9763 21.9343C35.6407 21.9343 35.2982 21.9496 34.9506 21.9805C34.7358 21.9996 34.5184 22.0248 34.2984 22.056V20.5402C34.9842 20.4497 35.608 20.4034 36.1695 20.4034C37.7828 20.4034 38.9587 20.7652 39.6963 21.4888C40.4055 22.1778 40.76 23.2437 40.76 24.6857C40.76 24.857 40.7565 25.025 40.7505 25.1897C40.7453 25.3223 40.7384 25.453 40.729 25.5815L40.7031 25.878L41.6167 25.8783L41.8453 25.878L43.4301 25.8783V17.0342H45.3582V27.4091L41.8453 27.4088L41.6167 27.4091H33.3348L33.1139 27.4088H28.3579L28.1301 27.4091L22.6183 27.4086L22.3897 27.4088H14.1146L13.8869 27.4086L8.35957 27.4088H8.14649H3.91925ZM11.8164 30.6129C12.0821 30.6129 12.3107 30.515 12.5014 30.3186C12.6188 30.1947 12.699 30.0557 12.7421 29.9016C12.7671 29.8111 12.7801 29.7154 12.7801 29.6145C12.7801 29.3362 12.6869 29.0998 12.5014 28.9032C12.3159 28.7122 12.0873 28.616 11.8164 28.616C11.5489 28.616 11.3203 28.714 11.1306 28.9104C11.0391 29.0067 10.9701 29.1125 10.9235 29.2275C10.8761 29.3466 10.8527 29.4755 10.8527 29.6145C10.8527 29.6883 10.8588 29.759 10.8708 29.8268C10.8829 29.8899 10.9003 29.9503 10.9235 30.008C10.9701 30.1252 11.0391 30.2311 11.1306 30.3257C11.3161 30.5169 11.5446 30.6129 11.8164 30.6129ZM9.93488 30.4496C9.98921 30.4124 10.0401 30.3687 10.0884 30.3186C10.2213 30.1816 10.3067 30.0221 10.3446 29.8404C10.3593 29.7686 10.3662 29.6933 10.3662 29.6145C10.3662 29.3362 10.2739 29.0998 10.0884 28.9032C9.89866 28.7122 9.66394 28.616 9.38876 28.616C9.31888 28.616 9.25156 28.6228 9.1869 28.6362C9.15669 28.6425 9.12647 28.6503 9.09714 28.6597C9.0566 28.6727 9.01693 28.6887 8.97815 28.7077L8.94961 28.7226L8.9065 28.747L8.86684 28.773L8.83574 28.7944C8.81684 28.808 8.79864 28.8223 8.78141 28.8375L8.73742 28.8765L8.70288 28.9104C8.51745 29.1068 8.42514 29.3416 8.42514 29.6145C8.42514 29.7855 8.4588 29.9399 8.52691 30.0777C8.5709 30.1676 8.62956 30.2502 8.70288 30.3257C8.80907 30.4356 8.92983 30.5139 9.06525 30.5608C9.09979 30.5729 9.13513 30.5829 9.17223 30.5907C9.24123 30.6055 9.31375 30.6129 9.38876 30.6129C9.59406 30.6129 9.77701 30.5586 9.93488 30.4496ZM16.6424 30.3405C16.4422 30.1441 16.343 29.9023 16.343 29.6142C16.343 29.3368 16.4422 29.0977 16.6424 28.8958C16.8374 28.6994 17.0729 28.6015 17.3489 28.6015C17.6301 28.6015 17.8674 28.6994 18.0633 28.8958C18.2634 29.0923 18.3634 29.3323 18.3634 29.6142C18.3634 29.8968 18.2634 30.1369 18.0633 30.3325C17.9778 30.4206 17.8846 30.4894 17.7829 30.5389C17.7224 30.5684 17.6595 30.5912 17.593 30.607C17.5154 30.6255 17.4343 30.6348 17.3489 30.6348C17.0729 30.6348 16.8374 30.5369 16.6424 30.3405ZM26.0596 30.6129C26.3253 30.6129 26.5539 30.515 26.7446 30.3186C26.9301 30.1221 27.0232 29.8875 27.0232 29.6145C27.0232 29.3362 26.9301 29.0998 26.7446 28.9032C26.7066 28.8641 26.6669 28.8292 26.6255 28.7982L26.5858 28.7702C26.5453 28.7432 26.5039 28.7198 26.4607 28.6999C26.3391 28.644 26.2053 28.616 26.0596 28.616C25.7922 28.616 25.5636 28.714 25.3737 28.9104C25.1883 29.1068 25.096 29.3416 25.096 29.6145C25.096 29.756 25.1193 29.886 25.1658 30.0048C25.1865 30.0566 25.2107 30.1063 25.2401 30.1539C25.2772 30.2148 25.3219 30.2721 25.3737 30.3257C25.5592 30.5169 25.7879 30.6129 26.0596 30.6129ZM23.632 30.6129C23.9072 30.6129 24.1418 30.515 24.3316 30.3186C24.5171 30.1275 24.6094 29.8928 24.6094 29.6145C24.6094 29.5548 24.6051 29.497 24.5965 29.441C24.5844 29.3582 24.5619 29.2796 24.5309 29.2049C24.5171 29.1725 24.5015 29.1409 24.4843 29.1101L24.455 29.0605C24.4316 29.0248 24.4066 28.9899 24.3782 28.9562L24.3316 28.9032C24.1418 28.7122 23.9072 28.616 23.632 28.616C23.3645 28.616 23.1368 28.714 22.9461 28.9104C22.8702 28.9902 22.8107 29.0764 22.7658 29.1691C22.7235 29.2572 22.6951 29.3512 22.6804 29.4508C22.6726 29.5038 22.6683 29.5583 22.6683 29.6145C22.6683 29.8973 22.7606 30.1346 22.9461 30.3257C23.0471 30.4297 23.161 30.5055 23.2868 30.553C23.393 30.593 23.5077 30.6129 23.632 30.6129ZM35.57 18.2402C35.57 18.5283 35.6692 18.7701 35.8694 18.9665C36.0643 19.1577 36.2998 19.2537 36.5759 19.2537C36.8572 19.2537 37.0944 19.156 37.2902 18.9596C37.4904 18.7578 37.5904 18.5185 37.5904 18.2402C37.5904 17.9638 37.4904 17.7237 37.2902 17.5218C37.1582 17.3903 37.0082 17.3027 36.8382 17.2595C36.7553 17.2384 36.6682 17.2277 36.5759 17.2277C36.2998 17.2277 36.0643 17.3263 35.8694 17.5218C35.6692 17.7237 35.57 17.9638 35.57 18.2402ZM49.7701 17.0342H47.8428V27.4091H49.7701V17.0342Z" fill="#01D15F"/>
</svg>
